<?xml version="1.0" standalone="no"?>
<!DOCTYPE svg PUBLIC "-//W3C//DTD SVG 1.1//EN" "http://www.w3.org/Graphics/SVG/1.1/DTD/svg11.dtd" >
<svg xmlns="http://www.w3.org/2000/svg" xmlns:xlink="http://www.w3.org/1999/xlink" version="1.1">
<metadata>
Created by FontForge 20201107 at Tue Jan 21 15:04:10 2025
 By 
Copyright (c) 2024 by Mj Studio. All rights reserved.
</metadata>
<defs>
<font id="MJAmelia" horiz-adv-x="432" >
  <font-face 
    font-family="MJ Amelia"
    font-weight="400"
    font-stretch="normal"
    units-per-em="1000"
    panose-1="2 0 5 7 0 0 0 2 0 2"
    ascent="800"
    descent="-200"
    x-height="499"
    cap-height="1017"
    bbox="-2542 -1013 9893 1475"
    underline-thickness="50"
    underline-position="-125"
    unicode-range="U+000D-FB05"
  />
<missing-glyph horiz-adv-x="250" 
 />
    <glyph glyph-name="f_f" unicode="ff" horiz-adv-x="723" 
d="M550 274l-2 -37l12 -18q45 6 86.5 12.5t75 22t58.5 44t37 78.5q1 8 11 8q5 0 7.5 -2t2.5 -4t-1 -4q-13 -53 -38.5 -84.5t-60 -49.5t-76 -26.5t-88.5 -16.5q32 -52 57 -111.5t41.5 -118t22.5 -103t6 -73.5q0 -16 -1 -30q-7 -63 -39 -93t-70 -30q-27 0 -52.5 15.5
t-42.5 45.5t-30.5 85.5t-22.5 127.5t-13 148.5t-4 147.5v32q-38 -11 -86.5 -22t-106.5 -21q32 -52 57 -111.5t41.5 -118t22.5 -103t6 -73.5q0 -16 -1 -30q-7 -63 -39 -93t-70 -30q-27 0 -52.5 15.5t-42.5 45.5q-21 36 -36 107t-23.5 163t-9.5 156.5t-1 89.5q0 79 5.5 171
t20 187t38.5 166.5t57 111t73 39.5h8q29 -2 48 -22.5t28 -53.5t9.5 -56.5t0.5 -25.5q0 -42 -8 -88q-6 -37 -18.5 -87.5t-32 -102t-45.5 -99.5t-60 -81l-2 -37l12 -18q63 8 114 17.5t93 21.5q1 80 7 158t17 149.5t27.5 132t38.5 104t48.5 66t56.5 22.5h7q36 -3 56 -39.5
t24 -75.5t4 -63q0 -37 -7 -91t-27.5 -119.5t-52.5 -121t-74 -86.5v-5l-1 -10v-5zM211 305q28 33 50 77t38.5 89.5t27 87t14.5 69.5q7 40 7 73q0 6 -1 28t-7.5 50t-15.5 43.5t-18 16.5h-1q-16 0 -30 -43t-26 -118t-22 -172t-16 -201zM553 317q41 33 67 83.5t40.5 108t18 103
t3.5 75.5q0 22 -2.5 56t-11.5 64t-21 32h-1q-15 0 -28.5 -43t-25.5 -117t-22 -168.5t-17 -193.5zM206 202q-3 -81 -3.5 -130.5t-0.5 -70.5q0 -52 2 -107.5t8 -104t16 -72.5q8 -20 20.5 -30t26.5 -10q20 0 37.5 19.5t24.5 61.5q3 19 3 42q0 24 -5 65t-22.5 100.5t-44.5 121
t-62 115.5zM547 202q-3 -81 -3.5 -130.5t-0.5 -70.5q0 -52 2 -107.5t8 -104t16 -72.5q8 -20 20.5 -30t26.5 -10q20 0 37.5 19.5t24.5 61.5q3 19 3 42q0 24 -5 65t-22.5 100.5t-44.5 121t-62 115.5z" />
    <glyph glyph-name="fi" unicode="fi" horiz-adv-x="699" 
d="M598 36h-4q-42 0 -70 24t-42.5 62t-16.5 72t-2 54q0 27 2 53q-27 -29 -55.5 -47.5t-57.5 -30t-59 -17.5t-59 -9q32 -52 57 -111.5t41.5 -118t22.5 -103t6 -73.5q0 -16 -1 -30q-7 -63 -39 -93t-70 -30q-27 0 -52.5 15.5t-42.5 45.5q-21 36 -36 107t-23.5 163t-9.5 156.5
t-1 89.5q0 79 5.5 171t20 187t38.5 166.5t57 111t73 39.5h8q29 -2 48 -22.5t28 -53.5t9.5 -56.5t0.5 -25.5q0 -42 -8 -88q-6 -37 -18.5 -87.5t-32 -102t-45.5 -99.5t-60 -81l-2 -37l12 -18q44 3 83.5 13.5t72.5 30t58.5 49.5t41.5 73q6 15 13.5 36t17.5 35q14 22 40 32.5
t49 10.5q19 0 29.5 -6.5t10.5 -16.5q0 -3 -1 -7q-3 -15 -14 -48t-23 -74.5t-20.5 -85.5t-8.5 -82t13.5 -64t45.5 -30q6 -1 12 -1q20 0 39 12.5t36 37.5t29.5 57.5t22 66t15.5 65t11 53.5q1 7 10 7q5 0 7.5 -2t2.5 -5v-2q-5 -32 -13 -69.5t-20 -75t-28 -72t-38.5 -61.5
t-51 -43t-64.5 -17zM212 305q28 33 50 77t38.5 89.5t27 87t14.5 69.5q7 40 7 73q0 6 -1 28t-7.5 50t-15.5 43.5t-18 16.5h-1q-16 0 -30 -43t-26 -118t-22 -172t-16 -201zM583 658q30 0 45 -18.5t15 -40.5t-15 -40.5t-45 -18.5t-45.5 18.5t-15.5 40.5t15.5 40.5t45.5 18.5z
M207 202q-3 -81 -3.5 -130.5t-0.5 -70.5q0 -52 2 -107.5t8 -104t16 -72.5q8 -20 20.5 -30t26.5 -10q20 0 37.5 19.5t24.5 61.5q3 19 3 42q0 24 -5 65t-22.5 100.5t-44.5 121t-62 115.5z" />
    <glyph glyph-name="fl" unicode="fl" horiz-adv-x="758" 
d="M234 197q32 -52 57 -111.5t41.5 -118t22.5 -103t6 -73.5q0 -16 -1 -30q-7 -63 -39 -93t-70 -30q-27 0 -52.5 15.5t-42.5 45.5q-21 36 -36 107t-23.5 163t-9.5 156.5t-1 89.5q0 79 5.5 171t20 187t38.5 166.5t57 111t73 39.5h8q29 -2 48 -22.5t28 -53.5t9.5 -56.5
t0.5 -25.5q0 -42 -8 -88q-6 -37 -18.5 -87.5t-32 -102t-45.5 -99.5t-60 -81l-2 -37l12 -18q67 9 131.5 34.5t122.5 63.5q-1 28 -1 58q0 43 3.5 103.5t16 132.5t32 135.5t44.5 110.5t54.5 72t60.5 25h7q29 -2 47 -22t27 -52.5t9.5 -54t0.5 -24.5q0 -39 -8 -80
q-16 -97 -62 -183t-115 -155v-23q0 -58 4.5 -117t15.5 -108t29 -78t43 -29q21 0 41 19.5t37.5 51t32 70.5t26.5 77.5t20.5 73t12.5 56.5q1 8 11 8q4 0 7 -2t3 -5q0 -1 -1 -3q-6 -29 -15.5 -69t-23 -83t-31.5 -84.5t-41.5 -74.5t-53 -53.5t-65.5 -20.5q-39 0 -68 23.5
t-49.5 64.5t-32.5 96t-17 118q-55 -35 -115 -59t-126 -35zM591 415q60 63 99.5 136.5t53.5 154.5q6 34 6 64q0 6 -1 27t-7.5 47.5t-17 42.5t-22.5 18h-3q-20 0 -38.5 -41t-33.5 -111.5t-24.5 -159t-11.5 -178.5zM212 305q28 33 50 77t38.5 89.5t27 87t14.5 69.5q7 40 7 73
q0 6 -1 28t-7.5 50t-15.5 43.5t-18 16.5h-1q-16 0 -30 -43t-26 -118t-22 -172t-16 -201zM207 202q-3 -81 -3.5 -130.5t-0.5 -70.5q0 -52 2 -107.5t8 -104t16 -72.5q8 -20 20.5 -30t26.5 -10q20 0 37.5 19.5t24.5 61.5q3 19 3 42q0 24 -5 65t-22.5 100.5t-44.5 121t-62 115.5
z" />
    <glyph glyph-name="f_f_i" unicode="ffi" horiz-adv-x="1071" 
d="M220 219q43 6 83.5 15t74.5 24.5t59 40t36 60.5q6 106 20 203.5t38.5 171.5t57.5 115t74 41h8q29 -2 48 -22.5t28 -53.5t9.5 -56.5t0.5 -25.5q0 -42 -8 -88q-6 -37 -18.5 -87.5t-32 -102t-45.5 -99.5t-60 -81l-2 -37l12 -18q37 5 72.5 12t66.5 19t56 29.5t41 42.5
q4 30 10.5 61t20.5 57t37.5 42.5t60.5 16.5q19 0 29.5 -6.5t10.5 -17.5q0 -3 -1 -6q-3 -15 -14 -48t-23 -74.5t-20.5 -85.5t-8.5 -82t13 -64t46 -30q6 -1 12 -1q20 0 39 12.5t36 37.5t29.5 57.5t22 66t16 65t10.5 53.5q1 7 10 7q5 0 7.5 -2t2.5 -5v-2q-5 -32 -13 -69.5
t-20 -75t-28 -72t-38.5 -61.5t-51 -43t-64.5 -17h-4q-41 0 -68.5 22t-42.5 58t-18 71.5t-3 60.5q0 20 1 39q-38 -40 -95.5 -59.5t-122.5 -30.5q32 -52 57 -111.5t41.5 -118t22.5 -103t6 -73.5q0 -16 -1 -30q-7 -63 -39 -93t-70 -30q-27 0 -52.5 15.5t-42.5 45.5
q-19 33 -33.5 96.5t-23.5 145.5t-11 153.5t-2 118.5q0 48 1 96q-17 -26 -42.5 -44.5t-56.5 -31t-66 -21.5t-71 -15q32 -52 57 -111.5t41.5 -118t22.5 -103t6 -73.5q0 -16 -1 -30q-7 -63 -39 -93t-70 -30q-27 0 -52.5 15.5t-42.5 45.5q-21 36 -36 107t-23.5 163t-9.5 156.5
t-1 89.5q0 79 5.5 171t20 187t38.5 166.5t57 111t73 39.5h8q29 -2 48 -22.5t28 -53.5t9.5 -56.5t0.5 -25.5q0 -42 -8 -88q-6 -37 -18.5 -87.5t-32 -102t-45.5 -99.5t-60 -81l-2 -37zM212 305q28 33 50 77t38.5 89.5t27 87t14.5 69.5q7 40 7 73q0 6 -1 28t-7.5 50t-15.5 43.5
t-18 16.5h-1q-16 0 -30 -43t-26 -118t-22 -172t-16 -201zM595 305q28 33 50 77t38.5 89.5t27 87t14.5 69.5q7 40 7 73q0 6 -1 28t-7.5 50t-15.5 43.5t-18 16.5h-1q-16 0 -30 -43t-26 -118t-22 -172t-16 -201zM955 658q30 0 45 -18.5t15 -40.5t-15 -40.5t-45 -18.5
t-45.5 18.5t-15.5 40.5t15.5 40.5t45.5 18.5zM207 202q-3 -81 -3.5 -130.5t-0.5 -70.5q0 -52 2 -107.5t8 -104t16 -72.5q8 -20 20.5 -30t26.5 -10q20 0 37.5 19.5t24.5 61.5q3 19 3 42q0 24 -5 65t-22.5 100.5t-44.5 121t-62 115.5zM590 202q-3 -81 -3.5 -130.5t-0.5 -70.5
q0 -52 2 -107.5t8 -104t16 -72.5q8 -20 20.5 -30t26.5 -10q20 0 37.5 19.5t24.5 61.5q3 19 3 42q0 24 -5 65t-22.5 100.5t-44.5 121t-62 115.5z" />
    <glyph glyph-name="mj" unicode="The&#x20;quick&#x20;brown&#x20;fox&#x20;jumps&#x20;over&#x20;the&#x20;lazy&#x20;dog" horiz-adv-x="9776" 
d="M6713 119q24 73 47 139.5t46 121.5q28 65 50.5 92.5t56.5 27.5h2q29 0 44.5 -17t22.5 -44.5t7.5 -50.5t0.5 -35q0 -23 -1 -53t-1.5 -50.5t-0.5 -26.5q0 -27 4 -51t15 -38.5t32 -14.5h3q31 2 56.5 30.5t45 68t32.5 83.5q4 17 8 32q0 11 -1 22q-3 51 -3 102q0 25 1.5 76.5
t5.5 118.5q-20 -3 -41.5 -5t-44.5 -2q-48 0 -90.5 13t-61.5 50q-1 2 -1 4q0 3 2.5 6t7.5 3q6 0 9 -5q17 -29 52.5 -40t78.5 -11q22 0 44.5 2t45.5 6q3 50 6.5 90t5.5 66q2 23 28 34t55 11q23 0 39.5 -7t16.5 -20v-3q-2 -21 -6.5 -58t-9.5 -85q27 6 54.5 11t56.5 5
q38 0 76.5 -13t73.5 -51q3 -3 3 -7q0 -3 -3.5 -6.5t-6.5 -3.5t-7 3q-32 32 -65 44.5t-71 12.5q-26 0 -53.5 -4.5t-58.5 -11.5q-6 -64 -11 -139t-6 -123.5t-1 -71.5q0 -51 3 -111t14 -114t32 -86t53 -32q26 0 47 21t37.5 54.5t29 75t22 82.5t15.5 78.5t10 61.5q1 5 4 6.5
t6 1.5q5 0 7.5 -2t2.5 -6v-2q-5 -30 -12 -72.5t-17.5 -88t-25.5 -90t-37.5 -80t-53 -57.5t-71.5 -22q-50 0 -84 32.5t-55.5 86.5t-32.5 125q-5 32 -9 66v-3q-18 -56 -46 -104t-67 -79.5t-89 -31.5q-36 0 -58.5 17t-35.5 45t-18 64t-5 73t3 73t5 64t2 45.5t-6 17.5
q-10 0 -38 -61q-40 -87 -74 -190.5t-65 -204.5q-1 -3 -13.5 -5.5t-29.5 -2.5q-20 0 -38.5 4.5t-24.5 18.5q-4 11 -4.5 30.5t-0.5 24.5q0 29 2.5 70t7.5 92q2 22 5 43q-5 -7 -11 -13q-25 -28 -57.5 -47t-69.5 -24q-11 -27 -26.5 -50t-34.5 -39.5t-41.5 -26t-48.5 -9.5
q-39 0 -65.5 21.5t-42.5 55.5t-22 75q-5 34 -5 68v11q-23 -28 -56 -47q-36 -20 -79.5 -32t-90.5 -20q32 -52 57 -111.5t41.5 -118t22.5 -103t6 -73.5q0 -16 -1 -30q-7 -63 -39 -93t-70 -30q-27 0 -52.5 15.5t-42.5 45.5q-21 36 -36 107t-23.5 163t-9.5 156.5t-1 89.5
q0 79 5.5 171t20 187t38.5 166.5t57 111t73 39.5h8q29 -2 48 -22.5t28 -53.5t9.5 -56.5t0.5 -25.5q0 -42 -8 -88q-6 -37 -18.5 -87.5t-32 -102t-45.5 -99.5t-60 -81l-2 -37l12 -18q45 6 88 15.5t78 27.5t59 46q11 12 19 28q2 18 6 35q8 33 20 51q8 12 20 20.5t25.5 13.5
t25 6.5t19.5 1.5h8q14 17 33 26.5t44 9.5q41 0 66 -27.5t34 -64t9 -73.5q0 -12 -2 -44t-18 -79q31 7 58 26t48 45q18 22 31 46q6 44 15 79q8 34 17 47q15 22 41 33t49 11q19 0 29.5 -6.5t10.5 -17.5q0 -3 -1 -6q-17 -85 -29.5 -171.5t-25.5 -178.5zM3879 469
q-3 -15 -10 -41.5t-15 -60.5t-15.5 -72t-12 -76t-5 -56.5t-0.5 -20.5q0 -32 7 -57.5t21.5 -41t40.5 -15.5q28 0 51 19t41 49.5t32 68.5t24.5 76.5t18 74t12.5 60.5q1 5 4 6.5t6 1.5q5 0 7.5 -2t2.5 -6v-2q-5 -31 -12.5 -71.5t-18 -83.5t-26 -84t-37.5 -73.5t-51.5 -52.5
t-68.5 -20q-38 0 -65.5 20t-46 53t-29 75.5t-13.5 87.5q-27 -66 -56.5 -96t-67.5 -30q-24 0 -46.5 11.5t-39 33t-26.5 52.5q-8 24 -9 53q-21 -20 -46 -35q-33 -19 -70 -24q-11 -27 -26.5 -50t-34.5 -39.5t-41.5 -26t-48.5 -9.5q-39 0 -65.5 21.5t-42.5 55.5t-22 75
q-2 13 -3 26l-2 -6q-14 -36 -32.5 -68.5t-41 -57.5t-51 -40t-61.5 -15q-48 0 -72.5 29.5t-34 71.5t-9.5 89q0 4 0.5 32.5t4 72.5t4.5 62t1 23q0 19 -6 19q-5 0 -16.5 -13.5t-26 -38t-30.5 -57t-30 -70.5q-10 -26 -25.5 -66.5t-30.5 -84t-26 -84t-11 -66.5q0 -25 -18.5 -36.5
t-41.5 -11.5q-24 0 -44.5 12.5t-20.5 35.5q0 29 1 87t4 133t9.5 161t18.5 171.5t29 164t41.5 138t56.5 93.5t72 34h5q34 -1 54.5 -24.5t30.5 -60t10 -81.5q0 -3 -0.5 -28t-9.5 -76t-26 -101.5t-40 -93.5t-50.5 -74t-59.5 -43q-7 -81 -11 -154.5t-6 -130.5q14 44 32 94.5
t38 100.5q18 43 36 82t39 68.5t45 47t53 17.5q28 0 43 -17t21.5 -44.5t6.5 -62t-2 -70.5t-3 -58.5t-1 -31.5q0 -23 3 -45.5t14 -37t32 -14.5h3q31 2 56 31t44 69q19 39 31 82q1 37 9 70t20 51q8 12 20 20.5t25.5 13.5t25 6.5t19.5 1.5h8q14 17 33 26.5t44 9.5q41 0 66 -27.5
t34 -64t9 -73.5q0 -12 -2 -44t-18 -79q31 7 58 26t48 45l4 4q3 26 12 52q13 36 36 63.5t54 43.5t68 16h5q31 -1 52 -11.5t32 -27.5q8 24 16 37q14 20 38.5 30t47.5 10q19 0 30 -6.5t11 -17.5q0 -3 -1 -7zM5091 460q-3 -15 -11.5 -44t-17 -63.5t-14 -68t-5.5 -58.5
q0 -6 1 -24t12 -37.5t37 -20.5h2q29 0 48 23t32 57.5t20.5 72.5t12.5 66q5 30 10 51.5t13 34.5q7 12 18 21.5t23.5 16t25.5 10t24 3.5q17 0 27 -6.5t10 -19.5v-2q-5 -88 -13.5 -173.5t-20.5 -172.5q35 30 65 55t54 52.5t41.5 62t28.5 85.5q3 9 12 9q8 0 8 -6v-3
q-10 -54 -30 -93t-48 -71t-63 -61.5t-74 -65.5q-4 -29 -13 -78.5t-22.5 -107.5t-33.5 -117t-46.5 -107t-60.5 -78.5t-76 -30.5q-19 0 -35.5 8t-28 24t-16.5 35t-5 37q0 9 1 19q4 42 21.5 81t45 76.5t62.5 73.5t73 72q4 59 6.5 118t5.5 113q-9 -27 -21 -51.5t-29.5 -43.5
t-40 -30t-52.5 -11q-41 1 -67.5 22.5t-40.5 55t-18 74.5q0 4 -1 9q-14 -29 -32 -45q-22 -20 -49 -25.5t-57 -5.5q-8 -37 -26 -68t-41.5 -53.5t-51.5 -35.5t-57 -13q-37 0 -59 19t-25 35.5t-3 23.5q0 21 13.5 47t51.5 46q20 11 41.5 16t44.5 9v3l1 2q13 56 13 95
q0 14 -4 42.5t-30 38.5q-6 2 -12 2q-16 0 -35 -18t-38.5 -55t-37 -83.5t-30.5 -90t-22 -77.5t-12 -45q0 -28 -17 -40.5t-43 -12.5q-24 0 -44.5 12.5t-20.5 35.5q0 29 1 85.5t4 128.5t9.5 155t18 165t28.5 157t41.5 132t56.5 89.5t71 32.5h5q34 -1 55 -24.5t31 -60.5t10 -82
q0 -3 -0.5 -28t-9.5 -76.5t-26 -102.5t-40 -93.5t-51 -73.5t-60 -42q-6 -72 -9.5 -136.5t-5.5 -115.5q8 33 18.5 69t24.5 70.5t31 65t38 52.5t41.5 30.5t38.5 8.5q11 0 22 -2q33 -6 55 -27t35 -51t15.5 -55.5t2.5 -41.5q0 -18 -2 -36q27 2 51.5 10t43.5 26.5t32 51.5
q3 7 5 15l2 16q3 39 12.5 72t21.5 50q15 22 41 33t49 11q19 0 29.5 -6.5t10.5 -17.5q0 -3 -1 -6zM8383 583q6 45 14.5 91.5t21.5 90.5t30 83t39 68t48.5 45t57.5 16h4q41 -1 65.5 -27t37.5 -69t14.5 -82t1.5 -61q0 -35 -3 -84.5t-12 -112.5t-19 -119q21 66 48 134t61.5 123
t74 86t81.5 31h11q45 -3 66.5 -34.5t26 -69.5t4.5 -69q0 -26 -3.5 -70.5t-12.5 -108.5t-17 -125.5t-8 -109t12.5 -77t44.5 -30.5q23 0 42 14.5t34.5 38t27.5 54t21 61t15.5 58.5t11.5 48q1 8 11 8q4 0 7 -2t3 -5q0 -1 -1 -3q-7 -32 -16.5 -69.5t-22 -74.5t-29.5 -71t-40 -60
t-52 -41t-64 -15h-5q-52 1 -79 30t-35.5 70t-8.5 83q0 15 2 53t11 101.5t19 124.5t12.5 94t2.5 48q0 29 -6 55t-31 30h-6q-17 0 -36.5 -15t-39.5 -45t-39.5 -70.5t-37.5 -84.5t-33 -89t-27.5 -84.5t-21.5 -70t-13 -45.5q-7 -23 -21 -33t-30 -10q-20 0 -34 13.5t-14 31.5
q0 5 1 10q3 19 8 57t10.5 87.5t11 106t8 108.5t2.5 96q0 9 -0.5 39.5t-7 72t-18.5 67t-33 28.5h-4q-21 0 -39.5 -26t-34 -74.5t-27.5 -113t-22 -135.5t-17.5 -143t-13 -135.5t-10 -114t-7.5 -77.5q-2 -19 -17 -27t-33 -8q-24 0 -43 11.5t-19 29.5v4q4 40 9.5 99.5t9 124.5
t3.5 131q0 9 -0.5 51.5t-7 115.5t-21.5 138.5t-41.5 115t-65.5 79t-94 30.5q-49 0 -90 -25.5t-72 -67t-50.5 -95t-24.5 -95.5t-5 -69q0 -28 5 -68t27 -81.5t60.5 -66.5t92.5 -25h4q48 0 85 18.5t60 48t28 56t5 40.5q0 24 -7 48q-1 2 -1 3q0 3 3.5 6t8.5 3q8 0 9 -6
q9 -29 9 -56q0 -17 -6.5 -47t-34 -62.5t-69.5 -52.5t-92 -20h-4q-58 0 -100.5 27.5t-67.5 73t-31 90t-6 74.5t6 75.5t30.5 104.5t64 105.5t93.5 74.5t122 28q80 0 134 -35.5t88 -95.5t51 -138.5t22 -164.5zM9561 180q15 108 23 215.5t10.5 188.5t2.5 137q0 18 -0.5 61
t-2.5 73v3q0 8 5.5 15t15 12.5t22.5 8.5t26 3q12 0 24 -3t21 -9t13.5 -15t4.5 -20v-5q-2 -33 -4 -98t-6.5 -149t-13.5 -182.5t-24 -199.5q40 14 74.5 30t60 37.5t41.5 50t19 65.5q0 4 3 6t6 2q5 0 8 -2.5t3 -6.5v-2q-3 -42 -21 -73.5t-47 -55.5t-68 -42.5t-83 -33.5
q-19 -118 -50 -229.5t-78 -198.5t-112.5 -139t-153.5 -52q-64 0 -103.5 27.5t-56 68.5t-16.5 88q0 7 1.5 37.5t22.5 85.5q27 72 74.5 121t106 83t123.5 56t129 41zM1690 615q2 -4 2 -8q0 -2 -1.5 -5t-5.5 -3h-1q-6 0 -10 6q-10 11 -23 27q-12 14 -21 24l-6 2q-20 6 -35 17
q-5 -3 -10 -11q-11 -14 -29.5 -37t-25.5 -31q-5 -6 -13 -7q-7 0 -32 5t-27 11t-2 9q0 8 7 18q3 5 12 16.5t26.5 32.5t31.5 35.5t27 25.5t21 11h1q11 0 25.5 -13.5t30.5 -33.5q13 -17 26 -36q25 -5 53 -5q22 0 44.5 2t45.5 6q3 50 6.5 90t5.5 66q2 23 28 34t55 11
q23 0 39.5 -7t16.5 -20v-3q-2 -21 -6.5 -58t-9.5 -85q27 6 54.5 11t56.5 5q38 0 76.5 -13t73.5 -51q3 -3 3 -7q0 -3 -3.5 -6.5t-6.5 -3.5t-7 3q-32 32 -65 44.5t-71 12.5q-26 0 -53.5 -4.5t-58.5 -11.5q-6 -64 -11 -139t-6 -123.5t-1 -71.5q0 -51 3 -111t14 -114t32 -86
t53 -32q26 0 47 21t37.5 54.5t29 75t22 82.5t15.5 78.5t10 61.5q1 5 4 6.5t6 1.5q5 0 7.5 -2t2.5 -6v-2q-5 -30 -12 -72.5t-17.5 -88t-25.5 -90t-37.5 -80t-53 -57.5t-71.5 -22q-50 0 -84 32.5t-55.5 86.5t-32.5 125q-6 38 -10 78q-3 -9 -6 -17q-23 -53 -56.5 -91.5
t-76.5 -58.5t-94 -20h-5q-67 1 -105 32t-52 77l-2 6q-10 -29 -23 -56q-16 -35 -38.5 -62t-51 -43t-64.5 -17h-3q-45 0 -73 25.5t-42.5 66t-16 72.5t-1.5 47q0 34 4.5 73.5t16 78t23.5 56.5q15 22 41 33t49 11q19 0 29.5 -6.5t10.5 -17.5q0 -3 -1 -6q-3 -15 -14 -48
t-23 -74.5t-20.5 -85.5t-8.5 -82t13.5 -64t45.5 -30q6 -1 12 -1q20 0 39 12.5t36 37.5t29.5 57.5t22.5 66.5q0 2 1 4v11q0 16 2 33q6 53 29 98t60 75t82 30q13 0 28 -3q35 -8 54 -29.5t22.5 -40.5t3.5 -31q0 -17 -6 -40t-25.5 -46t-47 -35t-56.5 -12q-9 0 -18 1
q2 -25 8.5 -48t19 -40t31 -27t43.5 -10q59 1 109 61q39 46 61 129q-1 8 -1 17q-3 51 -3 102q0 25 1.5 76.5t5.5 118.5q-20 -3 -41.5 -5t-44.5 -2q-22 0 -43 3q11 -18 19 -33zM401 926q74 -4 121.5 -44t76 -104t42 -144t19.5 -163t7.5 -162.5t6.5 -141.5t17 -100t39 -39h2
q21 0 37.5 26.5t32 72.5t30 108.5t31.5 132.5t38 144.5t49.5 145.5t65.5 134.5t86 112.5t111 79t140 33h3q15 0 23 -11t8 -25t-7.5 -25.5t-22.5 -11.5q-93 0 -160 -42.5t-115 -112t-81 -158.5t-59.5 -182t-49.5 -181.5t-51 -158t-65 -112t-91 -42.5q-51 0 -80 38t-44.5 100
t-22 141.5t-11.5 163t-12 164t-25 145t-50 106.5t-87 47q-7 1 -14 1q-33 0 -64.5 -17.5t-58 -51.5t-44.5 -80t-26 -92.5t-8 -90.5q0 -7 1 -36.5t14 -73.5q10 -37 28 -64t41.5 -44.5t49.5 -26t53 -8.5q37 0 71 15.5t57 46t29 60.5t6 48q0 31 -10 67v3q0 5 4.5 6.5t6.5 1.5
q6 0 7 -5q12 -44 12 -81q0 -16 -5 -48t-31 -66.5t-64.5 -52.5t-80.5 -18q-31 0 -61.5 10t-57 30.5t-47.5 52.5t-33 76q-14 51 -15 83.5t-1 39.5q0 50 10 103.5t33 105.5t58 91t79 60t95 21h14zM9149 -131q-16 -45 -17 -70t-1 -30q0 -40 12.5 -74.5t41 -58t73.5 -24.5h3
q61 0 109.5 44t84.5 119t61 173.5t41 205.5q-63 -19 -126 -41.5t-118.5 -54.5t-98 -77.5t-65.5 -111.5zM5923 202q-3 -81 -3.5 -130.5t-0.5 -70.5q0 -52 2 -107.5t8 -104t16 -72.5q8 -20 20.5 -30t26.5 -10q20 0 37.5 19.5t24.5 61.5q3 19 3 42q0 24 -5 65t-22.5 100.5
t-44.5 121t-62 115.5zM4491 397q40 21 70 66.5t50 102t30 117t10 110.5t-10 83t-29 34h-2q-23 0 -41.5 -44.5t-33.5 -118t-25.5 -166t-18.5 -184.5zM2603 398q40 22 69.5 67.5t49 102t29.5 116.5t10 110t-9.5 82.5t-28.5 33.5h-1q-15 0 -28 -19.5t-25 -55.5t-21.5 -85.5
t-17.5 -106.5t-15 -120t-12 -125zM5928 305q28 33 50 77t38.5 89.5t27 87t14.5 69.5q7 40 7 73q0 6 -1 28t-7.5 50t-15.5 43.5t-18 16.5h-1q-16 0 -30 -43t-26 -118t-22 -172t-16 -201zM3205 301q17 -46 53 -69t84 -23q15 41 18.5 75t3.5 54q0 25 -5 57.5t-24.5 60
t-53.5 28.5h-4q-16 0 -29.5 -7t-24.5 -20q10 -6 10 -17q0 -3 -1 -6q-4 -17 -12.5 -53.5t-14.5 -79.5zM6307 301q17 -46 53 -69t84 -23q15 41 18.5 75t3.5 54q0 25 -5 57.5t-24.5 60t-53.5 28.5h-4q-16 0 -29.5 -7t-24.5 -20q10 -6 10 -17q0 -3 -1 -6q-4 -17 -12.5 -53.5
t-14.5 -79.5zM5182 -38q-35 -33 -66.5 -66.5t-55.5 -67t-38.5 -67.5t-16.5 -70v-9q0 -30 13.5 -49t34.5 -19q15 0 31 10t30 31q15 23 26 56t19 72.5t13.5 85t9.5 93.5zM3719 276q0 62 9 110q-4 20 -18.5 33t-33.5 13q-14 0 -28 -8.5t-26 -27.5t-20 -50.5t-10 -76.5v-19
q0 -45 9 -72.5t27 -27.5t41.5 30.5t49.5 95.5zM3326 715q14 18 40 18q18 0 36 -9q18 -7 16 -18.5t-16 -25.5q-16 -16 -31 -30t-30.5 -26.5t-33 -25t-39.5 -26.5q-6 -3 -11 -3q-11 0 -16.5 8.5t2.5 18.5q13 21 23.5 37.5t20.5 30t19.5 26t19.5 25.5zM1524 291q25 1 43.5 13
t31.5 29.5t19.5 38.5t7 31t0.5 12q0 16 -5.5 30t-18.5 19q-5 2 -10 2q-10 0 -22.5 -11.5t-23 -37t-16.5 -57t-6 -60.5v-9zM1212 658q30 0 45 -18.5t15 -40.5t-15 -40.5t-45 -18.5t-45.5 18.5t-15.5 40.5t15.5 40.5t45.5 18.5zM1574 -10q30 0 45 -18.5t15 -40.5t-15 -40.5
t-45 -18.5t-45.5 18.5t-15.5 40.5t15.5 40.5t45.5 18.5zM6420 189q-42 4 -71 23.5t-47 48.5q-2 -21 -2 -41q0 -6 0.5 -22.5t6 -36.5t17 -32t30.5 -13h2q25 0 45 20t35 52h-4l-8 1h-4zM3318 189q-42 4 -71 23.5t-47 48.5q-2 -21 -2 -41q0 -6 0.5 -22.5t6 -36.5t17 -32
t30.5 -13h2q25 0 45 20t35 52h-4l-8 1h-4zM4629 157q-27 -12 -41 -27.5t-16.5 -25t-2.5 -13.5q0 -7 4.5 -14.5t16.5 -7.5q16 0 29 11.5t23 27t17 33t10 29.5q-10 -2 -20 -5t-20 -8z" />
    <glyph glyph-name=".notdef" horiz-adv-x="250" 
 />
    <glyph glyph-name=".null" horiz-adv-x="0" 
 />
    <glyph glyph-name=".null" horiz-adv-x="0" 
 />
    <glyph glyph-name="uni000D" unicode="&#xd;" horiz-adv-x="250" 
 />
    <glyph glyph-name="space" unicode=" " horiz-adv-x="297" 
 />
    <glyph glyph-name="exclam" unicode="!" horiz-adv-x="292" 
d="M188 859q2 20 20 30t38 10t35.5 -9t15.5 -28v-2q-4 -73 -8.5 -156.5t-9 -170.5t-9.5 -173.5t-10 -164.5q-2 -31 -13.5 -47t-25.5 -16t-25 15.5t-11 47.5q-1 71 -2.5 158.5t-2 144t-0.5 78.5q0 66 1.5 141t6.5 142zM222 107q30 0 45 -18.5t15 -40.5t-15 -40.5t-45 -18.5
t-45.5 18.5t-15.5 40.5t15.5 40.5t45.5 18.5z" />
    <glyph glyph-name="quotedbl" unicode="&#x22;" horiz-adv-x="413" 
d="M274 778v-12q0 -32 -9.5 -53.5t-14.5 -29.5q-9 -14 -17.5 -19.5t-15.5 -5.5q-8 0 -11 4.5t-3 8.5q0 3 2 7q8 15 8 27q0 2 -1 10t-7 19t-26 31q-19 18 -21 29.5t-2 16.5q0 12 6 24.5t20.5 21t30.5 8.5q22 0 40.5 -19.5t20.5 -67.5zM407 778v-12q0 -32 -9.5 -53.5
t-14.5 -29.5q-9 -14 -17.5 -19.5t-15.5 -5.5q-8 0 -11 4.5t-3 8.5q0 3 2 7q8 15 8 27q0 2 -1 10t-7 19t-26 31q-19 18 -21 29.5t-2 16.5q0 12 6 24.5t20.5 21t30.5 8.5q22 0 40.5 -19.5t20.5 -67.5z" />
    <glyph glyph-name="numbersign" unicode="#" horiz-adv-x="996" 
d="M524 393q9 -1 17.5 -1.5t17.5 -2.5l69 -6q9 -2 18 -2.5t17 -1.5q6 24 12.5 48.5t13.5 48.5q-32 5 -65.5 10.5t-65.5 11.5q-8 -26 -16.5 -52.5t-17.5 -52.5zM538 792q5 14 18 20.5t28 6.5q12 0 24.5 -4t21.5 -11t12.5 -14.5t3.5 -13.5q0 -5 -2 -11q-13 -41 -27 -84
t-29 -90q32 -3 64 -6.5t64 -7.5q16 59 32 111.5t31 97.5q5 14 18 20.5t28 6.5q12 0 24.5 -4t21.5 -11t12.5 -14.5t3.5 -13.5q0 -5 -2 -11q-14 -45 -29.5 -94t-32.5 -101q38 -5 73.5 -10.5t66.5 -11.5q20 -4 27 -20.5t7 -32.5q0 -4 -1 -16t-11.5 -26t-26.5 -14h-6
q-38 6 -79 12t-85 14q-8 -23 -15 -45.5t-15 -45.5q47 -6 89.5 -12.5t79.5 -13.5q20 -4 27 -20.5t7 -32.5q0 -4 -1 -16t-11.5 -26t-26.5 -14h-6q-45 7 -93 14.5t-99 15.5q-12 -35 -46 -137q-9 -26 -22 -38.5t-26 -12.5q-16 0 -22.5 13.5t-6.5 27.5q0 13 4 29q8 30 16 63
t17 70l-144 25q-15 -45 -29 -87.5t-28 -83.5q-9 -26 -22 -38.5t-26 -12.5q-16 0 -22.5 13.5t-6.5 27.5q0 13 4 29q18 75 41 167q-38 6 -74.5 12.5t-71.5 11.5q-30 5 -44 18t-14 26q0 1 0.5 8t15.5 15.5t36 8.5q7 0 14 -1q36 -3 76.5 -6.5t83.5 -7.5q8 29 14.5 56.5
t14.5 55.5q-42 7 -82.5 14t-78.5 13q-30 5 -44 18t-14 26q0 1 0.5 8t15.5 15.5t36 8.5q7 0 14 -1q40 -4 84.5 -7.5t92.5 -8.5q15 54 29.5 102t28.5 89z" />
    <glyph glyph-name="dollar" unicode="$" horiz-adv-x="682" 
d="M416 0q27 16 48 39.5t36 51.5t24 58.5t10 59.5v14q0 28 -7.5 57.5t-22.5 60t-35.5 59.5t-43.5 57q-2 -113 -4.5 -225.5t-4.5 -231.5zM409 643l2 124q1 62 2 126q-17 -6 -28.5 -18.5t-18 -28t-9 -31.5t-2.5 -30q0 -38 15 -73t39 -69zM291 469q-51 0 -86.5 -21.5t-56.5 -57
t-27 -71t-6 -63.5q0 -18 3.5 -51t20 -77.5t44 -79t63.5 -54t77 -19.5h8q37 2 65 17q3 128 5.5 247.5t4.5 240.5q-29 35 -56.5 70t-47.5 71t-26.5 64.5t-6.5 48.5t4 40q5 25 17 49.5t30 45t41.5 34.5t51.5 18q0 16 0.5 31.5t0.5 32.5q0 8 10 8q3 0 6 -1.5t3 -6.5v-16l-1 -31
v-16q38 0 71 -18.5t52.5 -49.5t21 -53t1.5 -26q0 -37 -21 -77q-2 -4 -6 -4q-2 0 -6.5 2t-4.5 6q0 2 1 5q17 36 17 68q0 4 -1.5 23.5t-17 45t-42 40t-55.5 14.5h-2l-6 -1h-2q-1 -72 -1.5 -140.5t-2.5 -137.5q36 -45 80 -90t80 -94.5t54.5 -99t18.5 -96.5q0 -18 -2 -36
q-5 -47 -25 -90.5t-51.5 -79t-74 -60t-93.5 -32.5q0 -12 -0.5 -24t-0.5 -25q0 -10 -10 -10t-10 10q0 12 0.5 23t0.5 22q-6 -1 -24 -1h-5q-61 0 -109 22.5t-82.5 61t-54 88t-23 84t-3.5 52.5q0 34 8.5 76t33 81t63.5 63t93 24q8 0 8 -8q0 -1 -0.5 -6t-8.5 -5z" />
    <glyph glyph-name="percent" unicode="%" horiz-adv-x="671" 
d="M600 866q-40 -92 -88.5 -201t-98.5 -221t-98.5 -220.5t-89.5 -200.5q-10 -22 -25.5 -31.5t-31.5 -9.5q-13 0 -25 6t-19.5 16t-8.5 18t-1 11q0 12 6 25q21 46 43.5 95.5t46.5 103.5l199 437q24 54 46.5 103.5t43.5 95.5q8 17 21 23.5t28 6.5q12 0 24 -4.5t20 -12
t9.5 -14.5t1.5 -11q0 -7 -3 -15zM273 905q37 -19 58.5 -51.5t27 -61t5.5 -47.5t-5.5 -48.5t-26 -61.5t-54 -52t-78.5 -20q-47 0 -78.5 22t-48 56t-17.5 57.5t-1 28.5q0 36 12.5 72t40 67.5t69.5 45.5q20 7 41 7q28 0 55 -14zM188 888q-13 -11 -25 -37.5t-19.5 -59
t-8.5 -54.5t-1 -30q0 -25 5 -50.5t20 -44t42 -18.5t44 18t26.5 46t11.5 52t2 38q0 20 -3 45.5t-10.5 51.5t-18.5 39q-7 8 -16 12t-18 4q-19 0 -31 -12zM573 323q37 -19 58.5 -51.5t27 -60.5t5.5 -47t-5.5 -48.5t-26 -61t-54 -51.5t-78.5 -20q-47 0 -78.5 22t-48 55.5
t-17.5 57t-1 28.5q0 36 12.5 72t40 67t69.5 45q20 7 41 7q28 0 55 -14zM488 308q-13 -11 -25 -37.5t-19.5 -59t-8.5 -54.5t-1 -30q0 -25 5 -50.5t20 -44t42 -18.5t44 18t26.5 46t11.5 52t2 38q0 20 -3 45.5t-10.5 51.5t-18.5 39q-7 8 -16 12t-18 4q-19 0 -31 -12z" />
    <glyph glyph-name="ampersand" unicode="&#x26;" horiz-adv-x="887" 
d="M717 754q-1 -27 -10 -55t-24.5 -52t-38 -41.5t-51.5 -22.5q-4 -1 -8 -1q-10 0 -17.5 6t-9 12t-1.5 9q0 6 4 13.5t16 9.5q24 4 46.5 15.5t39 29t26 39t9.5 43.5v5q0 27 -12.5 48.5t-32.5 36t-46 22.5t-54 8q-31 0 -62.5 -10.5t-58 -33t-44 -57.5t-22.5 -84q-1 -13 -1 -26
q0 -71 41.5 -120.5t132.5 -54.5q13 -1 13 -11q0 -1 -0.5 -6.5t-12.5 -5.5q-64 0 -112 -22.5t-80.5 -59t-50 -83t-20.5 -95.5q-1 -10 -1 -20q0 -38 11 -80.5t37.5 -80.5t67 -61t95.5 -24h4q61 0 107.5 30.5t76 77t38 90t8.5 72.5q0 21 -5.5 54t-33 64.5t-75.5 31.5
q-25 0 -56 -10.5t-68 -33.5q-21 -13 -34.5 -32.5t-17.5 -38t-4 -34.5q0 -8 1.5 -23.5t11.5 -38.5q4 -8 4 -14q0 -8 -7.5 -17.5t-20.5 -9.5q-8 0 -16 6.5t-10 21.5q-4 22 -4 41q0 12 3 32.5t13.5 44.5t27 43t36.5 36q27 23 65 36.5t80 23.5t84.5 18.5t78 22t61 34t32.5 52.5
q2 10 2 18q0 7 -2 16.5t-9 18.5t-18 13.5t-23 4.5q-23 0 -45 -17.5t-30 -53.5q-3 -17 -17 -17q-11 0 -19.5 10.5t-8.5 22.5q0 5 2 12q8 37 37 55.5t61 18.5q35 0 62.5 -22t29.5 -69v-4q0 -37 -20 -62.5t-52 -42.5t-69.5 -27t-71.5 -16q28 -17 45 -56.5t18.5 -68t1.5 -37.5
q0 -42 -12 -91t-44.5 -95.5t-85.5 -80t-130 -42.5q-22 -2 -42 -2q-49 0 -99.5 16t-91.5 53.5t-61 86.5t-20 98v14q3 58 29 115t69.5 101t95.5 67t104 23q12 0 24 -1q-44 5 -84.5 18t-70.5 38t-47.5 61t-17.5 84v5q1 59 24.5 102.5t61 72.5t84 43.5t92.5 14.5q40 0 77 -10.5
t65 -31.5t42.5 -50.5t14.5 -66.5v-9z" />
    <glyph glyph-name="quotesingle" unicode="'" horiz-adv-x="224" 
d="M139 853v3q0 18 12 26.5t28 8.5q17 0 31 -10t14 -26v-5q-1 -29 -2.5 -49t-3 -34t-3 -25t-4.5 -22q-12 -54 -27 -54t-29 50q-3 11 -5.5 22.5t-4 27t-3 36.5t-3.5 51z" />
    <glyph glyph-name="parenleft" unicode="(" horiz-adv-x="403" 
d="M471 944q-38 -22 -69.5 -74t-55 -123.5t-38.5 -156.5t-20 -158t-5 -130q0 -28 2 -84t15.5 -126t38 -119.5t59.5 -68.5q3 -2 3 -5t-9 -9t-33 -6q-19 0 -39 7q-49 18 -82 70.5t-51 127.5t-20 131t-2 77q0 69 8.5 151t30 172t54.5 163.5t75.5 125t94.5 67.5q20 6 35 6
q24 0 27 -6.5t3 -8.5q0 -11 -22 -23z" />
    <glyph glyph-name="parenright" unicode=")" horiz-adv-x="394" 
d="M147 940q-20 15 -20 24q0 2 2 7.5t21 5.5q20 0 43 -10q50 -22 87.5 -77.5t62 -132.5t35.5 -165t11 -174q0 -7 -0.5 -58t-13.5 -140t-39 -161t-64.5 -120.5t-89.5 -60.5q-15 -3 -28 -3q-29 0 -40.5 8t-11.5 12q0 2 4 4q38 15 67.5 61.5t50.5 114.5t33.5 151.5t15 143
t2.5 91.5q0 55 -5 125.5t-20.5 144t-41 128.5t-61.5 81z" />
    <glyph glyph-name="asterisk" unicode="*" horiz-adv-x="473" 
d="M404 617q-20 -24 -36.5 -45.5t-32.5 -41.5h119q10 0 15 -5t5 -10l-0.5 -3t-6 -7.5t-16.5 -4.5q-34 1 -65 1t-59 -1q16 -26 33.5 -52.5t38.5 -57.5q5 -7 5 -12q0 -3 -3 -8t-11 -5q-10 0 -18 12q-20 31 -71 109q-20 -26 -41 -52.5t-47 -57.5q-4 -5 -10 -5q-8 0 -12.5 5.5
t-4.5 9.5q0 5 5 10q23 29 43.5 54.5t39.5 48.5q-30 -1 -62 -1t-69 2q-7 0 -10.5 5t-3.5 10.5t4 10t12 4.5q36 -1 128 -1q-15 25 -30 51t-32 58q-2 4 -2 7q0 4 4 9.5t12 5.5q7 0 12 -8q19 -33 35 -61t32 -54q19 23 38 47t41 53q9 10 16 10q8 0 10 -6t2 -8q0 -8 -7 -16z" />
    <glyph glyph-name="plus" unicode="+" horiz-adv-x="676" 
d="M396 761v-53q0 -32 -0.5 -71t-1 -84t-0.5 -92h266q7 0 11 -6t4 -13.5t-3.5 -14t-11.5 -6.5q-42 0 -114 -0.5t-153 -1.5q-1 -86 -2 -163.5t-1 -124.5q0 -9 -6 -13.5t-14 -4.5t-14 4.5t-6 13.5q1 47 1.5 124t1.5 165h-153q-73 0 -121 1q-9 0 -13.5 6.5t-4.5 14t4.5 13.5
t13.5 6h123q35 0 73.5 0.5t77.5 1.5q0 46 0.5 90t1 83t1 71.5t0.5 53.5q0 8 6.5 11.5t14.5 3.5q7 0 13 -3.5t6 -11.5z" />
    <glyph glyph-name="comma" unicode="," horiz-adv-x="260" 
d="M259 26v-13q0 -30 -9 -52t-15 -30q-17 -25 -32 -25q-9 0 -12 5t-3 8q0 4 2 8q8 14 8 26q0 2 -1 10.5t-7 19.5t-26 31q-19 18 -21.5 30t-2.5 18q0 11 6 23t20.5 20.5t30.5 8.5q23 0 41.5 -20t20.5 -68z" />
    <glyph glyph-name="hyphen" unicode="-" horiz-adv-x="504" 
d="M462 337q23 0 34 -8t11 -17t-12 -17t-37 -8h-388q-21 0 -31 8t-10 17t10.5 17t31.5 8h391z" />
    <glyph glyph-name="period" unicode="." horiz-adv-x="257" 
d="M196 107q30 0 45 -18.5t15 -40.5t-15 -40.5t-45 -18.5t-45.5 18.5t-15.5 40.5t15.5 40.5t45.5 18.5z" />
    <glyph glyph-name="slash" unicode="/" horiz-adv-x="442" 
d="M600 866q-40 -92 -88.5 -201t-98.5 -221t-98.5 -220.5t-89.5 -200.5q-10 -22 -25.5 -31.5t-31.5 -9.5q-13 0 -25 6t-19.5 16t-8.5 18t-1 11q0 12 6 25q21 46 43.5 95.5t46.5 103.5l199 437q24 54 46.5 103.5t43.5 95.5q8 17 21 23.5t28 6.5q12 0 24 -4.5t20 -12
t9.5 -14.5t1.5 -11q0 -7 -3 -15z" />
    <glyph glyph-name="zero" unicode="0" horiz-adv-x="700" 
d="M386 -12q-82 0 -141 40.5t-96.5 107t-52.5 145t-15 152.5q0 14 1.5 65t24 135.5t62.5 151t97.5 107t131.5 40.5t130.5 -40.5t95 -107t58.5 -151t20.5 -131t0.5 -50.5q0 -84 -18.5 -167t-57.5 -149.5t-99 -107t-142 -40.5zM387 21q53 0 92 38t64.5 100.5t38 140.5
t12.5 158q0 3 -0.5 46.5t-13.5 123t-38 142t-61 100.5t-83 38t-84 -38t-63.5 -100.5t-41.5 -142t-16.5 -129.5t-1.5 -65q0 -67 9.5 -139t33.5 -134.5t62 -100.5t91 -38z" />
    <glyph glyph-name="one" unicode="1" horiz-adv-x="400" 
d="M398 907q-2 -94 -4.5 -174t-5 -152.5t-5 -140t-5 -136t-5 -141.5t-5.5 -156q-1 -12 -9.5 -17t-22.5 -5t-30.5 4.5t-30.5 11.5t-23 15.5t-9 16.5q6 108 11 212.5t9 207.5t8 205t8 207q-14 -22 -28 -54.5t-29 -68.5t-32.5 -72.5t-37.5 -66.5t-44 -50.5t-53 -24.5h-2
q-9 0 -15 6.5t-7.5 13t-1.5 9.5q0 5 2.5 12t9.5 8q22 3 43.5 22t41.5 47.5t39 63t36.5 67.5t33.5 61.5t30 44.5q21 24 48 35t49 11q16 0 26 -5.5t10 -16.5z" />
    <glyph glyph-name="two" unicode="2" horiz-adv-x="588" 
d="M93 566q-9 36 -9 71q0 30 10 77t48 100t96.5 86t128.5 33q62 0 105 -26t68.5 -69.5t33.5 -89.5t8 -83q0 -22 -4 -63t-23 -100t-50 -108q-28 -45 -71.5 -91t-92.5 -88.5t-100 -80.5t-95 -67q28 4 57 4q20 0 50 -2.5t70 -2.5q10 0 40 0.5t78.5 14.5t91.5 56q9 9 17 9
t13.5 -7.5t8 -17t2.5 -19.5q0 -2 -0.5 -8.5t-4.5 -14.5q-13 -30 -32.5 -49.5t-42.5 -31.5t-49 -16.5t-53 -4.5q-30 0 -61 4t-61 9.5t-57 10.5t-50 7q-20 2 -38 2q-12 0 -31.5 -1.5t-41.5 -14.5q-7 -4 -14 -4q-9 0 -14.5 6.5t-6.5 12.5t-1 9q0 6 2.5 14t11.5 14
q47 33 102.5 76t109.5 91.5t101 100t75 102.5q22 39 38 88t23 96t7 88q0 8 -1 36.5t-15.5 67t-43 62.5t-73.5 25h-5q-31 0 -62.5 -11t-61.5 -32.5t-54.5 -50.5t-40.5 -63.5t-20 -61t-4 -41.5q0 -24 6 -48q1 -3 1 -5q0 -3 -2.5 -6t-6.5 -3q-7 0 -10 9z" />
    <glyph glyph-name="three" unicode="3" horiz-adv-x="629" 
d="M456 463q64 -29 99.5 -75.5t41.5 -82.5t6 -55q0 -34 -13.5 -78.5t-53.5 -87.5t-101 -69.5t-139 -26.5h-6q-79 1 -127.5 26.5t-72.5 64t-25 63.5t-1 31q0 39 13.5 76.5t41.5 66t64 33.5h2q4 0 5.5 -2.5t2 -4.5t0.5 -3q0 -3 -2 -6t-6 -4q-34 -7 -57 -33.5t-32 -57t-9 -57.5
q0 -11 2.5 -35.5t23 -56t55.5 -48t78 -16.5q11 0 24 1q70 6 116 40.5t68.5 82.5t23 75.5t0.5 29.5q0 52 -20.5 95.5t-58.5 69.5t-86 26q-9 0 -18 -1h-3q-13 0 -21 7t-9 12.5t-1 7.5q0 7 4 12t12 5q3 0 7 -1q8 -2 16 -3t16 -1q45 0 82 26.5t62 67t33 78t8 63.5q0 20 -6 52
t-35 65.5t-82 44.5q-17 4 -40 4q-46 0 -92.5 -19.5t-81 -57.5t-48.5 -82.5t-14 -84.5q0 -25 4 -52v-3q0 -4 -2.5 -6.5t-6.5 -2.5q-9 0 -11 9q-7 36 -7 68q0 46 18.5 97.5t63.5 95t104 65.5t116 22q70 0 120.5 -30t80 -77t34.5 -84.5t5 -56.5q0 -36 -12.5 -79.5t-51 -85
t-101.5 -57.5z" />
    <glyph glyph-name="four" unicode="4" horiz-adv-x="573" 
d="M493 740v-372q27 -11 45 -31.5t23 -52.5v-2q0 -5 -3.5 -7.5t-8.5 -2.5q-4 0 -7.5 2.5t-4.5 7.5q-4 20 -15.5 34.5t-28.5 24.5q0 -76 -0.5 -155.5t-1.5 -172.5q0 -13 -9.5 -18t-23.5 -5t-30.5 4t-30 10.5t-22.5 14.5t-9 16q4 83 8 164.5t9 162.5q-49 0 -102.5 -9
t-102.5 -22t-87 -26t-55 -22q-2 -1 -4 -1t-6 1.5t-7 6t-3 10.5t5 10q57 52 109 122t91 149t58.5 154.5t19.5 139.5q0 15 -1 30v2q0 13 10 19.5t24 6.5q13 0 23.5 -7t11.5 -21q1 -11 1 -22q0 -64 -22.5 -138.5t-64.5 -151.5t-96.5 -146t-110.5 -122q21 6 56 15.5t77 19
t88 16.5t89 8q5 91 8 180.5t3 180.5q0 29 13.5 43t30.5 14q20 0 37 -16.5t17 -45.5z" />
    <glyph glyph-name="five" unicode="5" horiz-adv-x="559" 
d="M97 595q1 24 3 59t3.5 74.5t3.5 80t3 73.5q1 19 3.5 26.5t19.5 7.5q14 0 42 -4.5t79 -12.5q4 -1 21.5 -3t44.5 -2q36 0 84 7.5t98 31.5q6 3 12 3q5 0 13 -4.5t12 -14.5t4 -20q0 -3 -1 -11t-13 -17q-35 -26 -73 -37.5t-76 -11.5q-57 0 -114.5 18.5t-115.5 43.5
q-2 -48 -5 -89t-5.5 -81.5t-5.5 -84t-5 -96.5q60 15 115 15q64 0 118.5 -19t94.5 -54.5t63.5 -85t25.5 -111.5v-11q0 -54 -19 -106.5t-59.5 -93t-92.5 -59t-105 -18.5q-20 0 -41 2q-66 6 -107.5 34t-62 66t-21.5 62t-1 28q0 39 12.5 74.5t38.5 62.5t61 32h2q4 0 5.5 -2.5
t2 -4.5t0.5 -3q0 -3 -2 -6t-6 -4q-32 -6 -53 -29.5t-29.5 -52t-8.5 -55.5q0 -8 2 -30.5t17 -54.5t43.5 -54.5t70.5 -26.5q11 -1 21 -1q44 0 84 19t70.5 56.5t48 88t20.5 103.5q1 11 1 22q0 42 -11 80t-36 65.5t-61 41.5t-80 14q-58 0 -126 -24q-11 -4 -18 -4q-6 0 -8.5 5
t-3 13t-0.5 13q0 10 1 27.5t2 49.5z" />
    <glyph glyph-name="six" unicode="6" horiz-adv-x="573" 
d="M383 913q-8 2 -16 2q-26 0 -54 -20.5t-54.5 -64t-47.5 -103t-35 -126.5t-21 -132.5t-7 -122.5v-15q0 41 16.5 77.5t45 65t66 45.5t79.5 17q50 0 88.5 -22.5t65.5 -59.5t41 -84t14 -95q-1 -63 -24.5 -114.5t-61 -89t-84 -59t-94.5 -23.5h-10q-38 0 -79.5 13.5t-79 45
t-65 79.5t-38.5 114q-9 55 -9 115q0 17 2 65.5t18.5 126t45.5 148t68.5 124t89 84.5t105.5 31h4q50 0 83 -23.5t51.5 -60t22.5 -71t4 -56.5q0 -24 -3 -49q-1 -10 -11 -10q-9 0 -9 9v2q2 17 2 33q0 25 -5 57.5t-19 65t-35.5 54.5t-49.5 27zM154 247v-14q0 -35 9.5 -72.5
t29.5 -68.5t47.5 -49t57.5 -18q38 1 65.5 28.5t45 70.5t24 89t6.5 85v20q-2 37 -9.5 70.5t-21 59t-33 40.5t-44.5 15q-24 0 -53.5 -15t-55.5 -46t-45.5 -79.5t-22.5 -115.5z" />
    <glyph glyph-name="seven" unicode="7" horiz-adv-x="477" 
d="M441 842q-15 -1 -32 -1q-23 0 -57 3t-81 3q-28 0 -56.5 -3t-56.5 -11t-54 -23t-50 -38q-9 -9 -17 -9t-13.5 7.5t-8 17t-2.5 19.5q0 2 0.5 8.5t4.5 14.5q14 30 32.5 50t41 32t48 16.5t52.5 4.5q29 0 59 -4t59 -9.5t55.5 -10.5t49.5 -7q17 -1 23.5 -1.5t9.5 -0.5q5 0 11 1
t14 4.5t22 9.5q8 3 14 3q17 0 17.5 -10t0.5 -12q0 -17 -10 -33q-50 -87 -87 -158.5t-65.5 -136t-50.5 -125.5t-43.5 -127.5t-44.5 -142.5t-52 -169q-4 -14 -17 -14q-11 0 -26 10.5t-27.5 25t-19.5 27.5t-7 21q0 3 1 5q28 81 52.5 149.5t49 129.5t50.5 117.5t57 114.5
t68.5 119.5t85.5 132.5z" />
    <glyph glyph-name="eight" unicode="8" horiz-adv-x="605" 
d="M228 483q-35 20 -67 44t-55 59q-35 52 -35 107q0 6 2.5 40t38 84.5t95 83t131.5 32.5q61 0 103.5 -23.5t66.5 -60.5t26.5 -65t2.5 -37q0 -37 -15 -79t-52.5 -83.5t-97.5 -68.5q39 -21 77.5 -46t68 -56.5t46 -70t16.5 -84.5v-11q-2 -51 -23 -98t-58.5 -82.5t-90.5 -56.5
t-118 -21q-74 0 -124.5 27t-77 70.5t-28.5 75.5t-2 41q0 45 16 95.5t55.5 100t98.5 83.5zM345 900q-35 0 -65.5 -14.5t-53.5 -38t-37 -54t-14.5 -48t-0.5 -19.5q0 -30 12.5 -62t43.5 -60q22 -20 52 -38t64 -36q60 23 95 59.5t47.5 72.5t12.5 67q0 11 -3 37t-22.5 59.5
t-52.5 54t-74 20.5h-4zM254 469q-56 -31 -92 -75t-54 -92t-18 -94q0 -1 0.5 -25.5t18 -62t51.5 -60.5t82 -23h4q47 0 85.5 20.5t66 53.5t41 71.5t13.5 75.5v10q-2 42 -20 71.5t-45.5 52t-62 40.5t-70.5 37z" />
    <glyph glyph-name="nine" unicode="9" horiz-adv-x="604" 
d="M226 10q8 -1 15 -1q28 0 55.5 20t54 63.5t47.5 103t35 126.5t21 132.5t7 122.5v15q0 -40 -16.5 -77t-45 -65.5t-66 -45.5t-79.5 -17q-49 0 -88 22.5t-66 59.5t-41 84t-14 95q1 63 24.5 114.5t61 89t84 59t94.5 23.5h10q38 0 79.5 -13.5t79 -45t65 -79.5t38.5 -114
q9 -55 9 -115q0 -17 -2 -65.5t-18.5 -126t-45.5 -148t-68.5 -124t-88.5 -84.5t-106 -31h-4q-50 0 -83 23.5t-51.5 60t-22.5 71t-4 56.5q0 24 3 49q1 10 11 10q9 0 9 -9v-2q-2 -17 -2 -33q0 -25 5 -57.5t19 -65t35.5 -54.5t49.5 -27zM455 676v14q0 36 -9.5 73t-29.5 68
t-47.5 49t-57.5 18q-37 -1 -65 -28.5t-45.5 -70.5t-24 -89t-6.5 -85v-20q2 -37 9.5 -70.5t21 -59t33 -40.5t44.5 -15q24 0 53.5 15t55.5 46t45.5 79.5t22.5 115.5z" />
    <glyph glyph-name="colon" unicode=":" horiz-adv-x="279" 
d="M220 422q30 0 45 -18.5t15 -40.5t-15 -40.5t-45 -18.5t-45.5 18.5t-15.5 40.5t15.5 40.5t45.5 18.5zM222 107q30 0 45 -18.5t15 -40.5t-15 -40.5t-45 -18.5t-45.5 18.5t-15.5 40.5t15.5 40.5t45.5 18.5z" />
    <glyph glyph-name="semicolon" unicode=";" horiz-adv-x="280" 
d="M207 107q30 0 45 -18.5t15 -40.5t-15 -40.5t-45 -18.5t-45.5 18.5t-15.5 40.5t15.5 40.5t45.5 18.5zM279 341v-12q0 -32 -9.5 -53.5t-14.5 -29.5q-9 -14 -17.5 -19.5t-15.5 -5.5q-8 0 -11 4.5t-3 8.5q0 3 2 7q8 15 8 27q0 2 -1 10t-7 19t-26 31q-19 18 -21 29.5t-2 16.5
q0 12 6 24.5t20.5 21t30.5 8.5q22 0 40.5 -19.5t20.5 -67.5z" />
    <glyph glyph-name="less" unicode="&#x3c;" horiz-adv-x="482" 
d="M449 77q-25 15 -57 34.5t-65 40.5t-64.5 42.5t-56.5 41t-40 35.5t-15 27q0 12 17 36t43.5 54.5t58.5 64t62 63t54 52t34 30.5q13 10 28 10q14 0 26.5 -7.5t18.5 -18t6 -20.5q0 -2 -0.5 -9t-14.5 -18q-12 -9 -31.5 -27t-42 -40.5t-45.5 -47t-41.5 -47t-31 -41.5t-12.5 -29
v-1q0 -15 21.5 -40t52 -52t63 -52.5t52.5 -41.5q14 -11 14 -22q0 -3 -3 -12t-17 -9q-7 0 -14 4z" />
    <glyph glyph-name="equal" unicode="=" horiz-adv-x="454" 
d="M408 471q23 0 34 -8t11 -17t-12 -17t-37 -8h-325q-21 0 -31 8t-10 17t10.5 17t31.5 8h328zM408 331q23 0 34 -8t11 -17t-12 -17t-37 -8h-325q-21 0 -31 8t-10 17t10.5 17t31.5 8h328z" />
    <glyph glyph-name="greater" unicode="&#x3e;" horiz-adv-x="499" 
d="M201 616q25 -15 57 -34.5t65 -40.5t64.5 -42.5t56.5 -41t40 -35.5t15 -27t-17 -35.5t-43.5 -55t-58.5 -64t-62 -63t-54 -52t-34 -30.5q-13 -10 -28 -10q-14 0 -26.5 7.5t-18.5 17.5t-6 20q0 2 1 9.5t14 18.5q12 10 31.5 27.5t42 40t45.5 47t41.5 47t31 41t12.5 29.5v1
q0 15 -21.5 40t-52 52t-63 52.5t-52.5 41.5q-14 11 -14 22q0 3 3 12t17 9q7 0 14 -4z" />
    <glyph glyph-name="question" unicode="?" horiz-adv-x="634" 
d="M187 622v15q0 55 20.5 103t57.5 84t84 55.5t94 19.5q41 0 79 -16t66 -49.5t41.5 -79t13.5 -97.5q0 -16 -1 -34q-3 -56 -16.5 -94.5t-33 -65.5t-44 -45.5t-50 -35.5t-51 -35t-47 -43.5t-37.5 -62t-23 -90.5q-1 -10 -11 -10q-9 0 -9 9q4 71 20 120t38 86t48 66.5t48.5 59.5
t39 66t21.5 87q2 16 2 32q0 31 -9 63t-30 56.5t-50 37t-60 12.5q-33 0 -65.5 -13.5t-58.5 -40.5t-42 -67t-16 -92q0 -11 -10 -11q-3 0 -6 2.5t-3 7.5zM337 107q30 0 45 -18.5t15 -40.5t-15 -40.5t-45 -18.5t-45.5 18.5t-15.5 40.5t15.5 40.5t45.5 18.5z" />
    <glyph glyph-name="at" unicode="@" horiz-adv-x="975" 
d="M745 -11q-39 0 -67 20t-46.5 53t-29 75.5t-13.5 87.5q-27 -66 -56.5 -96t-67.5 -30q-24 0 -46.5 11.5t-39 33t-26 50.5t-9.5 62v7q1 39 14 75.5t36 64t54 43.5t68 16h5q31 -1 52 -11.5t32 -27.5q8 24 16 37q14 20 38.5 30t47.5 10q19 0 30 -6.5t11 -17.5q0 -3 -1 -7
q-3 -15 -10 -41.5t-15 -60.5t-15 -72t-11.5 -74t-4.5 -68q0 -3 0.5 -22t8 -45.5t23.5 -42t43 -15.5q36 0 68.5 28t57 73t37 99t12.5 106q0 7 -1 41t-20.5 91.5t-61 102.5t-107.5 72.5t-161 27.5q-86 0 -152 -30t-112 -79t-71 -111.5t-28 -103t-3 -56.5q0 -49 14 -104
t50 -104t93 -79t134 -30q46 0 100 12h3q3 0 6 -2t3.5 -4.5t0.5 -3.5q0 -3 -2 -6t-7 -4q-55 -12 -102 -12q-83 0 -143.5 31.5t-99.5 83.5t-54.5 110.5t-15.5 112.5q0 15 3 57.5t29 108.5t74 118t118 83.5t161 31.5q100 0 170.5 -30t115 -79.5t65.5 -112t22 -98.5t1 -41
q0 -60 -15.5 -120t-44.5 -109.5t-69.5 -79.5t-88.5 -30zM567 276q0 62 9 110q-4 20 -18.5 33t-33.5 13q-14 0 -28 -8.5t-26 -27.5t-20 -50.5t-10 -76.5v-19q0 -45 9 -72.5t27 -27.5t41.5 30.5t49.5 95.5z" />
    <glyph glyph-name="A" unicode="A" horiz-adv-x="1007" 
d="M439 483q69 -9 136.5 -25t129.5 -26q0 98 1.5 159.5t1.5 90.5q0 57 -3.5 117.5t-17.5 104.5t-46 44q-29 0 -56.5 -38.5t-53 -102.5t-49 -148t-43.5 -176zM382 488q24 104 54.5 199.5t68.5 169t84 117.5t102 44q41 0 68 -24.5t43 -66.5t23.5 -99.5t8.5 -102.5t1 -70
q0 -43 -2 -101t-5 -129q40 5 71.5 24t52.5 61q3 7 10 7q5 0 7.5 -3t2.5 -6q0 -2 -1 -5q-26 -52 -62.5 -77.5t-81.5 -33.5q-1 -22 -3.5 -61.5t-3 -66.5t-0.5 -33q0 -41 3 -86.5t14 -85.5t31 -66t54 -26q31 0 54.5 21.5t42 56t31.5 79t22.5 90t16.5 88t12 74.5q1 5 4 6.5
t6 1.5q5 0 7.5 -2t2.5 -6v-2q-7 -37 -15 -87.5t-19.5 -104.5t-28.5 -107t-42 -94.5t-58.5 -66.5t-76.5 -25h-3q-47 1 -78 29t-50 72.5t-28 100t-13 110.5t-4 188q-65 8 -134 24.5t-141 25.5q-18 -87 -34 -174t-28 -163.5t-21 -138t-14 -98.5q-2 -16 -11.5 -23t-20.5 -7
q-13 0 -22 8t-9 18v4q8 42 18 105t22 139.5t27.5 162t34.5 171.5q-14 1 -27 1q-30 0 -67 -4t-78.5 -19.5t-80 -43.5t-73.5 -72q-4 -5 -10 -5q-5 0 -7.5 3.5t-2.5 5.5q0 3 2 6q36 55 77.5 90t86.5 54.5t85 24.5t72 5q17 0 33 -1z" />
    <glyph glyph-name="B" unicode="B" horiz-adv-x="1223" 
d="M646 385q-3 -61 -12.5 -140t-18.5 -162q-2 -19 -17 -27t-34 -8q-24 0 -42.5 11t-18.5 29v5q7 40 13.5 99t9 117t2.5 107q0 24 -1 74.5t-9.5 123.5t-25 138.5t-43.5 115.5t-65.5 79.5t-91.5 30.5q-49 0 -90 -25.5t-72 -67t-50.5 -95t-24.5 -95.5t-5 -69q0 -28 5 -68
t27 -81.5t60.5 -66.5t92.5 -25h4q48 0 85 18.5t60 48t28 56t5 40.5q0 24 -7 48q-1 2 -1 3q0 3 4 5.5t9 2.5q6 0 8 -5q8 -28 8 -55q0 -18 -6.5 -48t-33.5 -62.5t-69 -52.5t-92 -20h-4q-58 0 -100.5 27.5t-67.5 73t-31 90t-6 74.5t6 75.5t30.5 104.5t64 105.5t93.5 74.5
t122 28q69 0 122 -30t90 -84t59.5 -128t30.5 -161q10 62 28.5 126t49 116t75 83.5t104.5 31.5h4q60 -1 104.5 -32t71 -79t31.5 -87t5 -58q0 -39 -12.5 -87t-51 -97.5t-102.5 -78.5q39 -8 73.5 -25.5t59.5 -44.5t37.5 -60t12.5 -69q0 -8 -1 -16v-4l-1 -6v-4q33 5 62.5 14.5
t53.5 27t41 45t26 67.5q1 8 11 8q4 0 7 -2t3 -5q0 -1 -1 -3q-12 -50 -32 -82.5t-47 -51.5t-59 -28t-68 -12q-10 -54 -40 -104.5t-73 -90.5t-94 -65.5t-104 -29.5q-10 -1 -18 -1q-53 0 -85 27.5t-35 71.5v6q0 35 21 74.5t72 70.5q26 16 54 25.5t58 15.5t61 8.5t61 4.5v5
l-1 10v5q-3 64 -23.5 101.5t-54.5 56.5t-74 23.5t-77 4.5q-15 0 -31 -1q-5 0 -7.5 4t-2.5 8.5t2.5 8.5t7.5 4h11q64 0 111.5 33t76.5 87t36.5 103t7.5 80q0 29 -6.5 70.5t-32.5 80t-69 41.5h-8q-32 0 -61.5 -24.5t-55 -68.5t-45.5 -102.5t-34 -121t-22.5 -124t-10.5 -113.5z
M1008 196q-56 -2 -112 -11.5t-109 -41.5q-51 -31 -68 -63.5t-17 -57.5v-5q2 -37 28.5 -56t66.5 -19q10 0 20 1q48 4 83.5 27.5t58.5 58.5t35 78.5t14 88.5z" />
    <glyph glyph-name="C" unicode="C" horiz-adv-x="758" 
d="M513 1017q63 0 108 -25.5t73 -68t38.5 -92t10.5 -96.5q0 -11 -1.5 -45t-18.5 -91.5t-46 -105.5t-70 -82.5t-93 -46.5h-2q-3 0 -5.5 2t-3 4.5t-0.5 3.5q0 3 2 6.5t7 4.5q67 16 109.5 62.5t62 106.5t19.5 124q0 3 -0.5 38.5t-21 94t-60.5 99.5t-97 49q-12 2 -23 2
q-38 0 -76 -21t-73 -66t-60.5 -107.5t-41.5 -134.5t-19.5 -127t-3.5 -87q0 -43 5 -100.5t24 -123.5t51.5 -115.5t79 -79.5t107.5 -31h5q46 0 88 16.5t79.5 47t68 71t54.5 86.5t39.5 94t23.5 94q2 9 11 9q4 0 6.5 -2t2.5 -6v-2q-13 -88 -50 -171.5t-95 -149t-134.5 -105
t-169.5 -39.5q-102 0 -171 47.5t-109 125.5t-49 152.5t-9 125.5t9 129t44.5 177t89.5 177t126.5 125t158.5 47z" />
    <glyph glyph-name="D" unicode="D" horiz-adv-x="1189" 
d="M461 93q7 41 14 100.5t11.5 129t5 110t0.5 45.5q0 70 -6.5 140t-22 135.5t-42 115.5t-66 79t-95.5 30q-49 0 -90 -25.5t-72 -67t-50.5 -95t-24.5 -95.5t-5 -69q0 -28 5 -68t27 -81.5t60.5 -66.5t92.5 -25h4q48 0 85 18.5t60 48t28 56t5 40.5q0 24 -7 48q-1 2 -1 3
q0 3 3.5 6t8.5 3q8 0 9 -6q9 -29 9 -56q0 -17 -6.5 -47t-34 -62.5t-69.5 -52.5t-92 -20h-4q-58 0 -100.5 27.5t-67.5 73t-31 90t-6 74.5t6 75.5t30.5 104.5t64 105.5t93.5 74.5t122 28q70 0 123 -30.5t90 -84.5t59 -128.5t30 -162.5q15 91 43.5 159.5t66 114t80 68.5
t85.5 23q49 0 94 -29.5t78 -89t47.5 -136t14.5 -154.5q0 -32 -2 -67q-5 -79 -19 -150t-36 -133q39 7 74 18.5t63.5 30t49.5 45.5t30 65q1 8 11 8q4 0 7 -2t3 -5q0 -1 -1 -3q-10 -46 -34 -77.5t-56.5 -52t-72.5 -32t-83 -18.5q-26 -67 -60 -120t-73 -90t-79.5 -54.5
t-79.5 -17.5h-8q-50 3 -77 30.5t-30 50t-3 31.5q0 28 14 62t48 59q20 14 46.5 23.5t57.5 15.5t64.5 10t68.5 8q20 69 32 152t14 181v32q0 75 -8.5 138t-25.5 107.5t-41 66t-51 21.5q-37 0 -77.5 -38t-77.5 -110t-66 -174.5t-43 -231.5q0 -3 -2.5 -25t-6.5 -58t-9 -82.5
t-11 -97.5q-2 -19 -17 -27t-34 -8q-12 0 -23.5 3t-20.5 9t-13.5 13.5t-4.5 13.5q0 3 1 6zM939 181q-66 -6 -124.5 -15.5t-93.5 -35.5q-28 -20 -41 -49.5t-13 -56.5q0 -3 1 -19t18 -37.5t51 -22.5h4q55 0 107.5 60.5t90.5 175.5z" />
    <glyph glyph-name="E" unicode="E" horiz-adv-x="824" 
d="M765 756q-21 -31 -55 -43t-76 -12q-37 0 -77.5 6.5t-82.5 15.5q1 -46 10.5 -87t31 -71.5t56.5 -50t87 -24.5q6 -1 6.5 -4.5t0.5 -4.5q0 -6 -7 -8q-40 -11 -81.5 -25.5t-73.5 -34.5q-47 -29 -73.5 -73t-33 -80.5t-6.5 -60.5q0 -25 7 -62.5t31 -77t62.5 -65t89.5 -26.5h5
q40 0 79 16.5t74 47t64.5 71t52.5 86.5t38.5 94t23.5 94q2 9 11 9q4 0 6.5 -2t2.5 -6v-2q-13 -88 -50 -171.5t-92 -149t-127 -105t-156 -39.5q-76 0 -128 32.5t-80 83t-30.5 87.5t-2.5 47q0 52 18.5 108t62 108.5t111.5 82.5q20 9 41.5 15t42.5 11q-38 14 -73 38.5t-62 59
t-43.5 76.5t-18.5 90q-54 11 -100 12h-5q-63 0 -107 -22.5t-70 -58t-31 -64.5t-5 -45q0 -23 8.5 -51.5t36 -52t68.5 -23.5h3q44 1 67 24t26.5 42t3.5 28q0 19 -9.5 41.5t-33.5 30.5q-4 2 -5 5t-1 5q0 1 0.5 3.5t2.5 4.5t5 2h2q25 -6 39 -24t17 -35t3 -27q0 -14 -4.5 -34.5
t-20 -42t-40.5 -36t-60 -15.5h-3q-48 0 -80 27t-43.5 62t-11.5 67q0 15 4.5 47.5t32 74t75.5 67.5t113 26h10q25 -1 53.5 -5t59.5 -10q3 61 29 107t65 76.5t85 46t88 15.5q62 0 100.5 -29t54.5 -67t16 -76q0 -6 -1.5 -32t-22.5 -58zM475 747q42 -8 81 -14t74 -6
q40 0 70.5 10t47.5 35q16 24 16 56q0 2 -0.5 20.5t-16.5 49.5t-44 50.5t-64 19.5h-10q-41 -3 -70.5 -24.5t-48 -53.5t-27 -70t-8.5 -73z" />
    <glyph glyph-name="F" unicode="F" horiz-adv-x="695" 
d="M835 878q-63 3 -129 19.5t-133.5 35t-135.5 34t-134 15.5q-79 0 -134 -23.5t-87 -58.5t-42.5 -75.5t-1.5 -75.5t36.5 -57.5t70.5 -22.5q44 1 67 24t28.5 51.5t-5.5 55.5t-35 35q-10 4 -7 13t11 7q25 -6 39 -24t18.5 -41.5t-1.5 -49t-21.5 -47.5t-41 -36.5t-60.5 -15.5
q-50 -1 -82.5 26.5t-45 69t-3 91t43.5 91.5t95 70t152 28q68 0 138 -15t139 -33.5t134.5 -35t124.5 -18.5q75 -3 126.5 18.5t81 55.5t39 74t-0.5 74.5t-37.5 58t-70.5 22.5t-66.5 -23.5t-28.5 -51.5t6 -55.5t35 -35.5q8 -3 6.5 -12.5t-10.5 -7.5q-24 6 -38.5 24t-19 41.5
t1.5 49t21.5 47.5t40.5 36.5t60 15.5q50 1 83 -27t46 -69.5t4.5 -90.5t-41 -90.5t-91 -67.5t-145.5 -23zM459 -29q-1 42 -0.5 97t3 116.5t6 127.5t7.5 131q-42 0 -80 0.5t-75 1.5q-5 0 -8 4.5t-3 10.5t2.5 10.5t8.5 4.5h78.5t79.5 -1q6 80 11.5 152.5t11 128.5t9 91t4.5 39
q6 20 26.5 29.5t42.5 9.5q23 0 40.5 -9.5t14.5 -26.5q-4 -28 -9 -72.5t-9.5 -99t-9 -117t-8.5 -127.5h112q6 0 9.5 -4.5t3.5 -10.5t-3 -10.5t-9 -4.5h-115q-4 -70 -7.5 -139t-6.5 -131t-5.5 -114.5t-3.5 -88.5q0 -15 -17 -22t-37 -7q-23 0 -43 8t-21 23z" />
    <glyph glyph-name="G" unicode="G" horiz-adv-x="829" 
d="M662 410q-20 -63 -46 -126.5t-63 -114.5t-86 -81.5t-116 -30.5h-4q-58 2 -105 27.5t-74 75.5q-17 32 -24 67.5t-7 71.5q0 5 0.5 28.5t10 69t25.5 91.5q-12 5 -23 10.5t-22 11.5q-59 34 -89 77.5t-35 74.5t-5 47q0 28 10.5 63.5t35.5 67.5q23 29 55 47t68 18q37 0 72 -22
q28 -18 41.5 -41.5t16 -40.5t2.5 -25q0 -16 -5.5 -36t-18.5 -39.5t-31.5 -31t-39.5 -11.5q-13 0 -24 4q-6 2 -6 9q0 1 1 5.5t9 4.5h4q5 -1 11 -1q19 0 40.5 16t29.5 37.5t8 37.5q0 14 -6.5 37t-47.5 45q-29 16 -60 16q-28 0 -53 -13.5t-43 -38.5q-21 -28 -28 -57.5t-7 -51.5
q0 -17 5 -46t31 -67.5t76 -68.5q8 -5 17.5 -9.5t18.5 -8.5q24 64 59.5 126t79 116t93.5 96.5t102 67.5q29 14 56 20.5t51 6.5q61 0 99 -36.5t44 -72t6 -52.5q0 -40 -19 -94t-79 -109q-35 -32 -80 -56.5t-95 -40t-89 -19.5t-64 -4q-28 0 -55 3q-19 -75 -22.5 -119.5
t-3.5 -64.5q0 -43 8 -78q10 -48 37.5 -77.5t78.5 -29.5q36 0 69 20.5t61 54t51.5 76t41 86t29.5 84.5t17 72q3 20 22.5 30t42.5 10q13 0 26 -3.5t23 -9.5t15 -15t5 -18v-4q-3 -34 -6.5 -84.5t-10.5 -111t-16.5 -127t-24.5 -132.5q27 -25 43.5 -59.5t18.5 -58t2 -31.5
q0 -31 -10.5 -68t-38.5 -75q-2 -2 -4 -2q-1 0 -3 0.5t-5 3.5t-3.5 5t-0.5 3q0 3 2 6q24 34 34 67.5t10 62.5q0 4 -1 23t-14 48.5t-35 52.5q-17 -74 -42 -141t-58.5 -118t-77.5 -80.5t-97 -29.5h-4q-45 1 -72.5 20t-38.5 48t-11 63q0 5 1 28t15 64t39.5 80.5t59.5 70
t74.5 48.5t85.5 18h5q25 0 51 -8q4 48 5.5 96.5t1.5 93.5t-1 86t-2 74zM295 479q24 -2 48 -2q25 0 61.5 3.5t82.5 17t86.5 34.5t70.5 48q48 43 65.5 89t17.5 82q0 9 -3 36t-30 56.5t-72 29.5q-37 0 -82 -23q-44 -23 -82 -62.5t-69 -89t-54.5 -106t-39.5 -113.5zM656 40
q-11 3 -23 5t-25 2h-8q-53 0 -100 -27t-81.5 -70t-52.5 -92t-18 -90q0 -3 1 -26.5t24.5 -53.5t73.5 -31h3q49 0 85 31.5t60.5 84.5t39 122.5t21.5 144.5z" />
    <glyph glyph-name="H" unicode="H" horiz-adv-x="1277" 
d="M745 407q-5 -83 -14.5 -166t-18.5 -158q-2 -19 -17 -27t-33 -8q-24 0 -43 11.5t-19 29.5v4q5 52 10.5 120t7.5 151q-72 -24 -143 -46t-138 -38.5t-128 -26.5t-112 -10q-84 0 -137.5 32t-62.5 108v2q0 4 3.5 6t7.5 2q7 0 9 -6q4 -31 20 -52t41 -34t57.5 -18.5t69.5 -5.5
q68 0 146 15t150.5 34.5t131 39t87.5 28.5q2 48 2 96q0 57 -4.5 137.5t-29 163.5t-71.5 134.5t-125 52.5q-49 0 -90 -25.5t-72 -67t-50.5 -95t-24.5 -95.5t-5 -69q0 -28 5 -68t27 -81.5t60.5 -66.5t92.5 -25h4q48 0 85 18.5t60 48t28 56t5 40.5q0 24 -7 48q-1 2 -1 3
q0 3 3.5 6t8.5 3q8 0 9 -6q9 -29 9 -56q0 -17 -6.5 -47t-34 -62.5t-69.5 -52.5t-92 -20h-4q-58 0 -100.5 27.5t-67.5 73t-31 90t-6 74.5t6 75.5t30.5 104.5t64 105.5t93.5 74.5t122 28q63 0 110.5 -23t82 -63.5t57 -95.5t35.5 -119.5t16 -120.5t3 -97q0 -31 -1 -62
q60 20 116 38t109 34q0 92 4 176.5t9.5 150t10.5 106.5t8 44q14 18 37.5 26.5t45.5 8.5q21 0 33 -6.5t12 -17.5q0 -4 -1 -8q-7 -26 -14 -72.5t-12.5 -105.5t-9.5 -128.5t-5 -141.5q41 10 75.5 15.5t61.5 5.5q10 0 10 -9q0 -1 -0.5 -6t-8.5 -6q-29 -2 -64 -8t-75 -16v-34
q0 -83 4.5 -173t18.5 -168t37 -126.5t58 -50.5h4q22 0 41 21t35.5 56.5t30 81t23.5 91.5t17.5 89t12.5 73q1 5 4 6.5t6 1.5q5 0 7.5 -2t2.5 -6v-2q-7 -35 -16 -86t-22 -105.5t-30.5 -108.5t-41 -96.5t-53.5 -66.5t-65 -24h-6q-36 2 -64 27.5t-48 67.5t-34 99t-22.5 122
t-12.5 136.5t-4 142.5q-54 -17 -110.5 -36t-116.5 -39z" />
    <glyph glyph-name="I" unicode="I" horiz-adv-x="659" 
d="M574 -89q24 -1 50 -2t55 -2q6 0 8.5 -4.5t2.5 -9t-3 -8.5t-8 -4q-48 1 -88.5 3t-80 3.5t-83 3.5t-98.5 4q-6 0 -8 4t-2 8q0 1 0.5 4t3.5 6.5t8 3.5q42 -2 76 -3.5t66 -3.5q7 43 16.5 111t18 151t13.5 162t5 144q0 24 -1.5 80.5t-13 137.5t-36.5 142.5t-65.5 98
t-101.5 37.5q-51 0 -93.5 -25.5t-74.5 -67t-52.5 -95t-26.5 -96.5t-6 -72q0 -26 5 -65t27 -80.5t60.5 -66.5t92.5 -25h4q48 0 85 18.5t60 48t28 56t5 40.5q0 24 -7 48q-1 3 -1 5q0 4 2.5 7t7.5 3q8 0 11 -9q9 -29 9 -56q0 -17 -6.5 -47t-34 -62.5t-69.5 -52.5t-92 -20h-4
q-58 0 -100.5 27.5t-67.5 73t-31 89.5t-6 73q0 31 6.5 77t31 105t64 105.5t94 74.5t122.5 28q77 0 130.5 -36t88.5 -97.5t53 -143t22 -150.5t4 -117q0 -44 -3.5 -114t-14.5 -157.5t-26.5 -163t-30.5 -127.5z" />
    <glyph glyph-name="J" unicode="J" horiz-adv-x="646" 
d="M431 180q15 108 23 215.5t10.5 188.5t2.5 137q0 18 -0.5 61t-2.5 73v3q0 8 5.5 15t15 12.5t22.5 8.5t26 3q12 0 24 -3t21 -9t13.5 -15t4.5 -20v-5q-2 -33 -4 -98t-6.5 -149t-13.5 -182.5t-24 -199.5q40 14 74.5 30t60 37.5t41.5 50t19 65.5q0 4 3 6t6 2q5 0 8 -2.5
t3 -6.5v-2q-3 -42 -21 -73.5t-47 -55.5t-68 -42.5t-83 -33.5q-19 -118 -50 -229.5t-78 -198.5t-112.5 -139t-153.5 -52q-64 0 -103.5 27.5t-56 68.5t-16.5 88q0 7 1.5 37.5t22.5 85.5q27 72 74.5 121t106 83t123.5 56t129 41zM19 -131q-16 -45 -17 -70t-1 -30
q0 -40 12.5 -74.5t41 -58t73.5 -24.5h3q61 0 109.5 44t84.5 119t61 173.5t41 205.5q-63 -19 -126 -41.5t-118.5 -54.5t-98 -77.5t-65.5 -111.5z" />
    <glyph glyph-name="K" unicode="K" horiz-adv-x="1062" 
d="M618 381q-3 -61 -14 -138t-20 -160q-2 -19 -17 -27.5t-34 -8.5q-12 0 -23 3.5t-20 9.5t-13.5 14t-4.5 16v3q4 41 9 98t7 113.5t2 106.5q0 20 -0.5 65.5t-8 113.5t-23 128.5t-41.5 106.5t-64 73t-91 28q-49 0 -90 -25.5t-72 -67t-50.5 -95t-24.5 -95.5t-5 -69q0 -28 5 -68
t27 -81.5t60.5 -66.5t92.5 -25h4q48 0 85 18.5t60 48t28 56t5 40.5q0 24 -7 48q-1 2 -1 3q0 3 3.5 6.5t8.5 3.5q6 0 9 -7q9 -29 9 -56q0 -17 -6.5 -47t-34 -62.5t-69.5 -52.5t-92 -20h-4q-58 0 -100.5 27.5t-67.5 73t-31 90t-6 74.5t6 75.5t30.5 104.5t64 105.5t93.5 74.5
t122 28q84 0 143.5 -43.5t97 -118.5t52 -166t14.5 -181q0 -22 -1 -45h2q13 56 28 115.5t34.5 116.5t43.5 108t53.5 90.5t66 64t79.5 29.5q8 1 15 1q23 0 40.5 -9t27.5 -26t12 -33t2 -27q0 -8 -1.5 -21t-6 -25t-8.5 -12q-3 0 -6.5 10t-12.5 21t-22.5 17t-28.5 6q-11 0 -23 -2
q-53 -8 -94.5 -48.5t-73.5 -100t-56 -131.5t-42 -143q66 0 106.5 -19.5t64 -51.5t33.5 -73t13.5 -84t5 -84t7.5 -72.5t20 -50.5t43 -19h3q34 0 62 24t51 62t40.5 84.5t29.5 93t19 87.5t9 67q0 8 10 8q4 0 7 -2t3 -6v-2q-3 -36 -12.5 -85t-25 -101.5t-37.5 -103t-52.5 -90.5
t-69 -64.5t-85.5 -24.5q-54 0 -83 32.5t-45 81.5t-24.5 108t-21 111.5t-35.5 92t-67 50.5z" />
    <glyph glyph-name="L" unicode="L" horiz-adv-x="917" 
d="M524 64q54 -2 100 -15.5t88 -28.5t81.5 -28t80.5 -13h5q39 0 76.5 15t56.5 48q4 7 10 7q5 0 7.5 -3.5t2.5 -6.5t-3 -8q-9 -16 -21 -34.5t-30 -35.5t-43 -30t-61 -18q-15 -2 -31 -2q-19 0 -45.5 4.5t-60.5 16.5t-67.5 27.5t-65.5 29t-62.5 22.5t-58.5 9q-34 0 -63.5 -16.5
t-54.5 -58.5q-2 -5 -8 -5q-5 0 -8 4t-3 6q0 4 3 7q19 30 41 48t39 42t28 60.5t18 81.5t11 97.5t7 108.5q-15 -2 -30 -3t-32 -1q-88 0 -147.5 26t-95 66t-48.5 83t-13 79q0 7 1 15q3 36 17 72.5t37.5 66t56 48t71.5 18.5q8 0 8 -10.5t-8 -10.5q-33 -1 -61 -16.5t-49.5 -40.5
t-35 -57.5t-15.5 -67.5q-1 -7 -1 -15q0 -33 12.5 -73t45.5 -77t89 -61.5t139 -24.5q16 0 31 1t29 3q4 70 7.5 142t10.5 138.5t19.5 125.5t33.5 102.5t52.5 68.5t76.5 25q54 0 89.5 -34t49 -81.5t13.5 -95.5q0 -15 -3 -56.5t-29.5 -106.5t-75.5 -122t-122 -91
q-5 -57 -12 -111.5t-17.5 -102.5t-26 -87t-36.5 -65zM618 452q63 32 105 81.5t66.5 106t30 99.5t5.5 70q0 25 -5 59t-25.5 63.5t-51.5 30.5h-2q-25 0 -42.5 -19.5t-29.5 -55.5t-20 -85t-13 -106t-9 -119.5t-9 -124.5z" />
    <glyph glyph-name="M" unicode="M" horiz-adv-x="1361" 
d="M614 583q6 45 14.5 91.5t21.5 90.5t30 83t39 68t48.5 45t57.5 16h4q41 -1 65.5 -27t37.5 -69t14.5 -82t1.5 -61q0 -35 -3 -84.5t-12 -112.5t-19 -119q21 66 48 134t61.5 123t74 86t81.5 31h11q45 -3 66.5 -34.5t26 -69.5t4.5 -69q0 -26 -3.5 -70.5t-12.5 -108.5
t-17 -125.5t-8 -109t12.5 -77t44.5 -30.5q23 0 42 14.5t34.5 38t27.5 54t21 61t15.5 58.5t11.5 48q1 8 11 8q4 0 7 -2t3 -5q0 -1 -1 -3q-7 -32 -16.5 -69.5t-22 -74.5t-29.5 -71t-40 -60t-52 -41t-64 -15h-5q-52 1 -79 30t-35.5 70t-8.5 83q0 15 2 53t11 101.5t19 124.5
t12.5 94t2.5 48q0 29 -6 55t-31 30h-6q-17 0 -36.5 -15t-39.5 -45t-39.5 -70.5t-37.5 -84.5t-33 -89t-27.5 -84.5t-21.5 -70t-13 -45.5q-7 -23 -21 -33t-30 -10q-20 0 -34 13.5t-14 31.5q0 5 1 10q3 19 8 57t10.5 87.5t11 106t8 108.5t2.5 96q0 9 -0.5 39.5t-7 72t-18.5 67
t-33 28.5h-4q-21 0 -39.5 -26t-34 -74.5t-27.5 -113t-22 -135.5t-17.5 -143t-13 -135.5t-10 -114t-7.5 -77.5q-2 -19 -17 -27t-33 -8q-24 0 -43 11.5t-19 29.5v4q4 40 9.5 99.5t9 124.5t3.5 131q0 9 -0.5 51.5t-7 115.5t-21.5 138.5t-41.5 115t-65.5 79t-94 30.5
q-49 0 -90 -25.5t-72 -67t-50.5 -95t-24.5 -95.5t-5 -69q0 -28 5 -68t27 -81.5t60.5 -66.5t92.5 -25h4q48 0 85 18.5t60 48t28 56t5 40.5q0 24 -7 48q-1 2 -1 3q0 3 3.5 6t8.5 3q8 0 9 -6q9 -29 9 -56q0 -17 -6.5 -47t-34 -62.5t-69.5 -52.5t-92 -20h-4q-58 0 -100.5 27.5
t-67.5 73t-31 90t-6 74.5t6 75.5t30.5 104.5t64 105.5t93.5 74.5t122 28q80 0 134 -35.5t88 -95.5t51 -138.5t22 -164.5z" />
    <glyph glyph-name="N" unicode="N" horiz-adv-x="1213" 
d="M689 447q12 112 39.5 209t66 168.5t85.5 111.5t97 40h5q42 -1 65.5 -27.5t32.5 -69t9 -93.5q0 -6 -0.5 -38t-8 -98t-18.5 -135t-20 -134.5t-13 -111t-4 -73.5q0 -22 3 -53.5t19 -57t49 -25.5q37 0 70.5 31t61.5 78t48.5 102.5t30.5 104.5q1 8 11 8q4 0 6.5 -2t2.5 -6v-2
q-12 -61 -36.5 -125t-59.5 -116.5t-79.5 -86t-98.5 -33.5q-56 0 -84 37.5t-36 88.5t-8 101q0 23 3 75t12.5 134t19.5 160.5t11 113t1 41.5q0 52 -11 88t-45 37h-2q-28 0 -53 -27t-47 -73.5t-40.5 -108t-34.5 -129.5t-28.5 -137.5t-22.5 -132.5t-17 -114.5t-12 -83.5
q-3 -19 -18 -27t-33 -8q-12 0 -23 3t-20 9t-13.5 14t-4.5 16v3q4 40 9.5 99.5t9 124.5t3.5 131q0 9 -0.5 51.5t-7 115.5t-21.5 138.5t-41.5 115t-65.5 79t-94 30.5q-49 0 -90 -25.5t-72 -67t-50.5 -95t-24.5 -95.5t-5 -69q0 -28 5 -68t27 -81.5t60.5 -66.5t92.5 -25h4
q48 0 85 18.5t60 48t28 56t5 40.5q0 24 -7 48q-1 2 -1 3q0 3 3.5 6t8.5 3q8 0 9 -6q9 -29 9 -56q0 -17 -6.5 -47t-34 -62.5t-69.5 -52.5t-92 -20h-4q-58 0 -100.5 27.5t-67.5 73t-31 90t-6 74.5t6 75.5t30.5 104.5t64 105.5t93.5 74.5t122 28q64 0 111 -23t80.5 -63.5
t54.5 -95.5t33 -118t15.5 -125t3.5 -117v-28z" />
    <glyph glyph-name="O" unicode="O" horiz-adv-x="1034" 
d="M285 129q-50 19 -83 67.5t-48.5 111.5t-15.5 134q0 6 1 48.5t19 121.5t54 152.5t88.5 130.5t122.5 92t158 36h5q80 0 142 -29.5t106 -82t70.5 -122.5t34 -133t7.5 -111q0 -34 -4.5 -92.5t-25.5 -137.5t-56 -149.5t-83 -123t-108 -83.5t-130 -31q-49 0 -89 15t-71 42
t-54.5 64t-39.5 80zM485 711q-15 -22 -32.5 -60t-33 -85t-29 -101.5t-22 -110.5t-9.5 -87.5t-1 -39.5q0 -44 7 -84q20 2 45.5 10.5t51 28.5t48 54t37.5 87q3 10 14 10q7 0 12 -4.5t5 -9.5q0 -2 -1 -4q-16 -57 -42 -93.5t-55 -58.5t-58.5 -31.5t-52.5 -12.5
q15 -63 52.5 -102.5t106.5 -41.5h3q70 0 124.5 42t92.5 112.5t58 160.5t20.5 140t0.5 55q0 89 -17 176.5t-55 157.5t-94.5 111t-132.5 41h-7q-65 -1 -118 -31.5t-94 -80t-70 -113.5t-45.5 -133.5t-18.5 -113.5t-2 -62q0 -50 8.5 -102.5t32 -100t60.5 -71.5q-23 79 -25.5 134
t-2.5 77q0 64 10.5 134t35.5 132.5t59 90.5q17 14 36.5 20t37.5 6q16 0 29.5 -4t22.5 -10t10.5 -11.5t1.5 -8.5q0 -6 -4 -12z" />
    <glyph glyph-name="P" unicode="P" horiz-adv-x="847" 
d="M550 -35q-2 -19 -17 -27t-34 -8q-12 0 -23.5 3t-20.5 9t-13.5 13t-4.5 14q0 3 1 6q7 41 13.5 102t10.5 129.5t4 138.5q0 9 -0.5 53t-8 121t-23 146t-42.5 122t-66 84t-93 32q-49 0 -90 -25.5t-72 -67t-50.5 -95t-25 -95.5t-5.5 -69q0 -28 5.5 -68t27.5 -81.5t60.5 -66.5
t92.5 -25h4q48 0 85 18.5t60.5 48t28.5 55.5t5 40q0 24 -8 49q-1 2 -1 4q0 3 3 6t8 3q7 0 10 -7q8 -28 8 -55q0 -18 -6.5 -48t-33.5 -62.5t-69 -52.5t-92 -20h-4q-58 0 -100.5 27.5t-67.5 73t-31 90t-6 74.5t6 75.5t30.5 104.5t64 105.5t93.5 74.5t122 28q67 0 118 -28
t87.5 -78.5t59 -119.5t32.5 -152q6 45 16.5 92.5t27 93t38.5 86t52 70.5t65.5 45t76.5 15h10q55 -3 93 -30t60 -69t25 -75.5t3 -49.5q0 -38 -10.5 -84.5t-40.5 -98.5t-77.5 -92.5t-113.5 -65t-150 -24.5q-17 0 -33.5 1t-34.5 3q-3 -105 -15.5 -208.5t-23.5 -207.5zM590 401
q22 -3 42 -3q40 0 83 14.5t82.5 49.5t67.5 83t43.5 100t17.5 83.5t2 42.5q0 37 -8.5 73t-30.5 62.5t-57 28.5h-7q-37 0 -69.5 -28.5t-59.5 -77.5t-46.5 -110t-33 -121.5t-20 -113t-6.5 -83.5z" />
    <glyph glyph-name="Q" unicode="Q" horiz-adv-x="1082" 
d="M314 129q-50 19 -83 67.5t-48.5 111.5t-15.5 134q0 6 1 48.5t19 121.5t54 152.5t88.5 130.5t122.5 92t158 36h5q82 0 145.5 -31.5t108 -86t70 -128t31 -133.5t5.5 -100q0 -44 -6.5 -109.5t-31 -145.5t-63 -149.5t-90.5 -119.5q25 -18 47.5 -36t43 -34t39.5 -28.5
t37 -18.5q21 -7 43 -7q19 0 36.5 4.5t32 10.5t25.5 12.5t16 11.5q2 2 5 2t6.5 -4.5t3.5 -7.5t-2 -5q-7 -8 -23 -19t-38.5 -21.5t-49.5 -17.5t-57 -7q-36 0 -66 10.5t-57 27.5t-51.5 38.5t-47.5 43.5q-35 -23 -74.5 -35t-84.5 -12q-49 0 -89 15t-71 42t-54.5 64t-39.5 80z
M440 28q41 45 78.5 59t65.5 14q35 0 74.5 -14t68.5 -31q40 45 67.5 108.5t43 136.5t17.5 121t2 65q0 61 -9.5 127.5t-32.5 133.5t-60.5 117t-87 78t-109.5 28h-8q-65 -1 -118 -31.5t-94 -80t-70 -113.5t-45.5 -133.5t-18.5 -113.5t-2 -62q0 -50 8.5 -102.5t32 -100
t60.5 -71.5q-23 79 -25.5 134t-2.5 77q0 64 10.5 134t35.5 132.5t59 90.5q17 14 36.5 20t37.5 6q16 0 29.5 -4t22.5 -10t10.5 -11.5t1.5 -8.5q0 -6 -4 -12q-15 -22 -32.5 -59.5t-33 -85t-29 -102t-22 -110t-9.5 -87t-1 -40.5q0 -44 7 -84q20 2 45.5 10.5t51 28.5t48 54
t37.5 87q3 10 14 10q7 0 12 -4.5t5 -9.5q0 -2 -1 -4q-16 -57 -42 -93.5t-55 -58.5t-58.5 -31.5t-52.5 -12.5q12 -55 42 -91zM454 14q39 -38 103 -39h6q32 0 62 10t57 30q-29 23 -59 38t-68 15q-26 0 -52 -11t-49 -43z" />
    <glyph glyph-name="R" unicode="R" horiz-adv-x="1090" 
d="M606 373q-6 -66 -15 -136.5t-18 -153.5q-2 -19 -17 -27t-34 -8q-12 0 -23.5 3t-20.5 9t-13.5 13.5t-4.5 13.5q0 3 1 6q6 37 13 91.5t11 118t4.5 100.5t0.5 43q0 63 -6 127t-20.5 124t-39.5 105.5t-62 72.5t-89 28q-52 0 -95.5 -25.5t-76 -67t-53 -95t-26.5 -97t-6 -73.5
q0 -25 4.5 -63.5t26.5 -80t60.5 -66.5t92.5 -25h4q48 0 85 18.5t60 48t28 56t5 40.5q0 24 -7 48q-1 2 -1 3q0 3 3.5 6t8.5 3q8 0 9 -6q8 -28 8 -55q0 -18 -6.5 -48t-33.5 -62.5t-69 -52.5t-92 -20h-4q-58 0 -100.5 27.5t-67.5 73t-31 89t-6 71.5q0 32 7 78.5t31.5 105.5
t65 105.5t95.5 74.5t125 28t120.5 -29t85 -79t54 -117t28.5 -144q7 44 17.5 91t27 91.5t38.5 84t51.5 68.5t64.5 43.5t75 14.5h10q52 -3 89 -27t59.5 -62t28 -74.5t5.5 -61.5t-5.5 -63.5t-28.5 -89t-62 -92.5t-94.5 -72.5t-126.5 -41.5q52 -20 78.5 -59.5t39 -87t16 -97
t10.5 -90t22 -65.5t49 -25h3q34 0 61.5 24t49.5 61.5t38.5 84t28.5 93t20.5 87.5t13.5 68q1 5 4 6.5t6 1.5q5 0 7.5 -2t2.5 -6v-2q-7 -37 -17 -86t-26 -101t-37.5 -103t-50.5 -90.5t-67 -64t-86 -24.5q-42 0 -69.5 19.5t-45 51t-27.5 72.5t-19 84t-19 85t-26 75.5t-42 55.5
t-66 25zM608 401q21 -3 41 -3q40 0 83 15t83.5 50t68.5 83t44 99.5t18 84t2 46.5q0 34 -7.5 69t-29.5 61.5t-57 28.5h-7q-36 0 -68.5 -28.5t-59.5 -77.5t-48 -110.5t-35 -121.5t-21 -112.5t-7 -83.5z" />
    <glyph glyph-name="S" unicode="S" horiz-adv-x="822" 
d="M798 164q-7 -60 -31.5 -116.5t-64 -100t-94 -69.5t-122.5 -26q-70 0 -124 28t-92.5 73.5t-61 103.5t-27 100.5t-4.5 66.5q0 36 7.5 82t33 91.5t67.5 73.5t100 28q51 0 89.5 -21t63 -55.5t32 -69t7.5 -59.5q0 -21 -4 -42q-1 -7 -10 -7q-4 0 -7 2t-3 6v2q1 11 1 23
q0 28 -6.5 62.5t-26.5 66t-54 51t-83 19.5q-55 0 -92.5 -25t-59.5 -66t-27 -80t-5 -65q0 -27 5 -67.5t24.5 -92.5t49.5 -92.5t71 -65t90 -24.5q50 0 91 25.5t71 66t47.5 90.5t19.5 99v17q0 49 -15.5 97.5t-42.5 97.5t-59.5 96t-61.5 94q-60 -20 -120.5 -30.5t-113.5 -10.5
q-64 0 -115 14.5t-87 39.5t-55.5 58t-19.5 69q0 12 10 12t10 -12q0 -31 17.5 -60.5t50 -52t79.5 -36t106 -13.5q51 0 109.5 10t118.5 30q-33 57 -47 103.5t-14 83.5q0 26 5 53q7 33 22.5 65t39 56.5t55 40t70.5 15.5q45 0 83 -20.5t61 -54t26 -59t3 -33.5q0 -36 -19 -74
q-23 -46 -68 -84t-103 -67q36 -48 75.5 -97.5t71 -105.5t46 -108.5t14.5 -99.5q0 -25 -3 -50zM582 642q54 26 95.5 60t64.5 74q20 37 20 72q0 4 -1.5 25.5t-21.5 51.5t-51.5 47.5t-66.5 17.5q-30 0 -52.5 -14t-37 -36t-22 -49.5t-7.5 -54.5q0 -52 22.5 -99t57.5 -95z" />
    <glyph glyph-name="T" unicode="T" horiz-adv-x="1075" 
d="M846 878q-63 3 -129 19.5t-133.5 35t-135.5 34t-134 15.5q-79 0 -134 -23.5t-87 -58.5t-40 -66t-8 -52q0 -17 6.5 -42.5t34 -48t70.5 -22.5q44 1 67 24t26.5 42t3.5 28q0 19 -9 41.5t-33 30.5q-4 1 -5 4t-1 5t0.5 4.5t2.5 4.5t5 2h2q25 -6 39 -24t17 -35t3 -27
q0 -14 -4.5 -34.5t-20 -42t-41 -36t-60.5 -15.5h-3q-48 0 -80 27t-42 59.5t-10 58.5q0 20 7 55.5t41 77.5t95 70t152 28q68 0 138 -15t139 -33.5t134.5 -35t124.5 -18.5h18q63 0 111.5 20t78 54t36.5 63.5t7 48.5t-7.5 45t-34 49t-67.5 23h-4q-43 -1 -66.5 -24t-27 -41.5
t-3.5 -27.5q0 -19 9.5 -42t33.5 -31q3 -1 4 -4t1 -5q0 -1 -0.5 -4t-2.5 -5t-4 -2h-2q-24 6 -38.5 24t-17.5 35t-3 27q0 14 4.5 34t20 42t40.5 36.5t60 15.5h3q48 0 80.5 -27.5t43 -61t10.5 -60.5q0 -19 -6 -53t-38.5 -75.5t-88 -66t-130.5 -24.5h-18zM470 -29q-1 28 -1 61
q0 25 1 70.5t4 117.5t8 148.5t10 149t10.5 137.5t10 115t8 80.5t4.5 34.5q6 20 26.5 29.5t42.5 9.5q23 0 39 -9t16 -22v-5q-6 -40 -12.5 -110.5t-13 -156.5t-12 -180.5t-10.5 -183.5t-8.5 -164.5t-4.5 -123.5q0 -15 -17 -22t-37 -7q-23 0 -43 8t-21 23z" />
    <glyph glyph-name="U" unicode="U" horiz-adv-x="1222" 
d="M962 948q11 16 32 24t41 8q19 0 29.5 -6t10.5 -17q0 -4 -1 -8q-6 -28 -16 -81.5t-20.5 -121t-20 -145t-13.5 -142t-4 -114.5q0 -22 1.5 -68t13 -99.5t35 -85.5t61.5 -32q35 0 65.5 26.5t57 70t47 101t35.5 118.5q1 8 11 8q5 0 7.5 -2t2.5 -4t-1 -4q-18 -73 -41.5 -139
t-55 -115t-71.5 -78t-91 -29q-47 0 -80.5 25t-56.5 68t-35.5 100t-17 115t-4.5 111q0 15 1 58t7 110q-7 -23 -18.5 -62t-27 -87.5t-34.5 -102t-41 -105.5t-48 -98t-54 -80q-35 -42 -75 -64t-77 -22q-38 0 -69 24.5t-47 76.5q-15 46 -15 108q0 2 0.5 35t8.5 105t20.5 148
t22 148t11.5 112.5t2 55.5q0 45 -8.5 87t-35 70t-77.5 29q-49 0 -92.5 -25.5t-78.5 -67t-60 -95t-37 -106.5t-12 -101q0 -6 1 -35.5t19.5 -71t54 -66.5t89.5 -25h4q48 0 85 18.5t60 48t28 56t5 40.5q0 24 -7 48q-1 2 -1 3q0 3 4 6t9 3q7 0 8 -6q9 -29 9 -56q0 -17 -6.5 -47
t-34 -62.5t-69.5 -52.5t-92 -20h-4q-58 0 -98 27.5t-61 73t-23 80.5t-2 46q0 48 12 103.5t40.5 114.5t70.5 105.5t96 74.5t119 28t105 -29t61 -78.5t25 -100.5t4 -90q0 -31 -3 -83.5t-13.5 -128t-20.5 -144.5t-15.5 -118.5t-5.5 -81.5q0 -14 1 -27q4 -43 20 -62.5t38 -19.5
q31 0 67 33q31 28 59 76t53 108.5t48 129t43 137.5t38.5 135t34.5 121t30.5 95.5t27.5 58.5z" />
    <glyph glyph-name="V" unicode="V" horiz-adv-x="1023" 
d="M401 926q74 -4 121.5 -44t76 -104t42 -144t19.5 -163t7.5 -162.5t6.5 -141.5t17 -100t39 -39h2q21 0 37.5 26.5t32 72.5t30 108.5t31.5 132.5t38 144.5t49.5 145.5t65.5 134.5t86 112.5t111 79t140 33h3q15 0 23 -11t8 -25t-7.5 -25.5t-22.5 -11.5q-93 0 -160 -42.5
t-115 -112t-81 -158.5t-59.5 -182t-49.5 -181.5t-51 -158t-65 -112t-91 -42.5q-51 0 -80 38t-44.5 100t-22 141.5t-11.5 163t-12 164t-25 145t-50 106.5t-87 47q-7 1 -14 1q-33 0 -64.5 -17.5t-58 -51.5t-44.5 -80t-26 -92.5t-8 -90.5q0 -7 1 -36.5t14 -73.5q10 -37 28 -64
t41.5 -44.5t49.5 -26t53 -8.5q37 0 71 15.5t57 46t29 60.5t6 48q0 31 -10 67v3q0 5 4.5 6.5t6.5 1.5q6 0 7 -5q12 -44 12 -81q0 -16 -5 -48t-31 -66.5t-64.5 -52.5t-80.5 -18q-31 0 -61.5 10t-57 30.5t-47.5 52.5t-33 76q-14 51 -15 83.5t-1 39.5q0 50 10 103.5t33 105.5
t58 91t79 60t95 21h14z" />
    <glyph glyph-name="W" unicode="W" horiz-adv-x="1320" 
d="M898 650q8 32 30.5 48t45.5 16q26 0 40.5 -15.5t14.5 -35.5q0 -10 -3 -23q-4 -18 -11 -55.5t-14 -87t-12.5 -106.5t-7 -95.5t-1.5 -58.5q0 -35 3 -77.5t14 -82.5q13 -45 34 -67t44 -22q28 0 54.5 29t43.5 84q13 44 21 106t16 133.5t18 148.5t27 151t44 140.5t68.5 118
t100.5 83t140 35.5h3q15 0 23 -11t8 -25t-7.5 -25.5t-22.5 -11.5q-77 0 -131 -27t-91 -73t-60 -107.5t-37 -130.5t-21.5 -142t-14 -142t-15 -130t-24.5 -107q-27 -79 -78 -118.5t-106 -39.5q-41 0 -77.5 22.5t-61.5 67.5q-16 29 -26 66.5t-14.5 79.5t-4.5 88t3 92
q-45 -189 -101 -272t-121 -83h-9q-46 4 -73.5 42.5t-43 98.5t-22.5 136.5t-12.5 156t-13 156t-24.5 137.5t-46 100t-78 43q-6 1 -12 1q-35 0 -69 -22t-63.5 -62.5t-50.5 -94t-30 -105.5t-9 -98q0 -9 1 -41t18 -75.5t50 -71t85 -29.5h4q45 0 89 19.5t74 54.5t34 63t4 37
q0 38 -23 79q-1 2 -1 4q0 3 3.5 7t9.5 4q4 0 6 -4q28 -46 28 -89q0 -10 -5 -41t-38 -70.5t-81.5 -61.5t-96.5 -22h-8q-58 2 -96 33t-58.5 80.5t-23 89t-2.5 56.5q0 46 9.5 102t35 117.5t64 108.5t86 73t100.5 26h12q67 -3 110.5 -43t69.5 -102.5t38.5 -141.5t18 -161t8 -161
t8.5 -141t19 -100.5t40 -40.5h3q26 0 52 37t50 97t44.5 133.5t37 142.5t28 124.5t16.5 80.5z" />
    <glyph glyph-name="X" unicode="X" horiz-adv-x="1000" 
d="M785 -49q-47 13 -80.5 50t-58 89t-42 116t-32.5 133l-1 -1q-49 -81 -94.5 -154t-86.5 -127.5t-76 -84t-63 -29.5h-5q-6 1 -8.5 4.5t-2.5 7.5q0 1 0.5 3.5t3.5 6t9 3.5h3q25 0 58 32t72.5 90t85 135.5t94.5 163.5q-17 85 -35 167t-43.5 147t-63 107t-94.5 47q-7 1 -14 1
q-39 0 -75.5 -21.5t-67 -63t-50.5 -95.5t-27 -101t-7 -84q0 -19 3 -56t21.5 -80.5t51.5 -70t83 -26.5q23 0 48 6q49 12 82.5 39t49.5 60.5t16 69.5q0 2 -0.5 22.5t-20.5 55.5q-1 2 -1 4q0 3 3.5 7t9.5 4q4 0 6 -4q25 -42 25.5 -65t0.5 -24q0 -43 -19.5 -80.5t-57 -67
t-88.5 -41.5q-27 -6 -51 -6q-55 0 -93.5 30t-60.5 79.5t-26.5 94t-4.5 70.5q0 37 7 88.5t31 113.5t63 109.5t89.5 73.5t109.5 26h13q65 -3 111.5 -34t79.5 -81t56 -115t39 -136q57 96 117 185.5t121.5 159.5t123 113t121.5 46h3q15 0 23 -10.5t8 -24.5t-7.5 -25.5
t-22.5 -12.5q-60 -3 -120 -45t-120 -109.5t-119 -153.5t-116 -178q17 -84 31 -166.5t32 -151.5t43.5 -118t65.5 -64q15 -6 29 -6q30 0 58 21.5t52 56t43.5 77t34 84.5t23 79.5t10.5 60.5q0 9 10 9q4 0 7 -2t3 -6v-2q-3 -33 -14 -78t-29 -92.5t-42.5 -94.5t-55.5 -83.5
t-67.5 -59.5t-78.5 -23q-21 0 -42 6z" />
    <glyph glyph-name="Y" unicode="Y" horiz-adv-x="1193" 
d="M1051 838q7 20 10.5 28t7.5 13q14 22 38 32.5t44 10.5q17 0 25.5 -6.5t8.5 -15.5q0 -4 -1 -8q-11 -46 -20.5 -121t-19.5 -166.5t-21.5 -193.5t-28.5 -202q36 14 67.5 29.5t57 35t43.5 44.5t25 58q1 5 4 6.5t6 1.5q10 0 10 -8v-2q-7 -40 -27 -70t-49 -52.5t-65.5 -40
t-76.5 -31.5q-18 -107 -44 -203t-62 -166.5t-78.5 -103.5t-88.5 -33q-14 0 -28 3q-43 7 -73 33.5t-45 63.5t-15 81t16 88q18 49 50 84.5t74 61.5t90 45.5t97 35.5q7 68 12 137.5t9.5 137.5t9.5 131t11 117q-15 -48 -33.5 -101.5t-38.5 -107t-41 -105t-43 -94.5
q-112 -222 -246 -222q-51 0 -77.5 29.5t-35.5 72t-9 87.5q0 13 2 50.5t10.5 101.5t19 125t15.5 108q3 34 3 64q0 83 -31.5 135t-102.5 53h-4q-48 0 -91 -25t-78 -67t-60.5 -95.5t-37.5 -107t-12 -103.5q0 -4 0.5 -32.5t19 -70t54 -66.5t89.5 -25h4q48 0 85 18.5t60 48t28 56
t5 40.5q0 24 -7 48q-1 2 -1 3q0 3 4 6t9 3q7 0 8 -6q9 -29 9 -56q0 -17 -6.5 -47t-34 -62.5t-69.5 -52.5t-92 -20h-4q-58 0 -98 27.5t-61.5 73t-23.5 81.5t-2 49q0 46 11 100.5t37.5 113.5t66 105.5t91 74.5t112.5 28q54 0 100 -23.5t78.5 -67.5t44.5 -96.5t12 -99.5
q0 -28 -3 -58q-3 -34 -11 -80.5t-16 -96t-12.5 -91.5t-4.5 -72q0 -12 1.5 -37.5t12.5 -52t37 -30.5q4 -1 8 -1q17 0 38.5 10.5t47 35.5t51 61.5t48.5 82.5q18 36 37 83t38 98.5t37 104t33.5 98.5t27.5 83t19 58zM979 144q-48 -15 -94 -32.5t-84 -40.5t-66.5 -54.5
t-41.5 -75.5q-8 -30 -8 -58q0 -12 3 -37.5t20.5 -56t43 -48t53.5 -17.5h3q39 1 67 34.5t48.5 91t33.5 133.5t22 161z" />
    <glyph glyph-name="Z" unicode="Z" horiz-adv-x="819" 
d="M456 276h-2q-6 0 -7.5 4.5t-1.5 5.5q0 6 7 8q24 7 55 38t62.5 77.5t61 104t49 116t24 95.5t4.5 54q0 35 -11 71.5t-47 63.5t-102 28h-10q-61 0 -119.5 -25t-107 -68.5t-82.5 -99.5t-49 -114q-9 -34 -10 -54.5t-1 -25.5q0 -30 8.5 -59.5t29.5 -55t57 -39.5q31 -11 59 -11
q35 0 67 13t57.5 35.5t41.5 52t19 63.5q0 4 3.5 6t7.5 2t7 -2t3 -5v-2q-3 -40 -21.5 -73.5t-47 -57.5t-64.5 -37.5t-74 -13.5q-35 0 -68 12q-39 15 -62 42t-33 60.5t-10 69.5q0 5 1 28.5t11 66.5q16 68 52 134t91.5 118t131 83.5t169.5 31.5q85 0 132.5 -26t64 -63.5
t16.5 -77.5q0 -13 -4 -48.5t-27 -97.5t-58.5 -124t-75.5 -117t-81 -98.5t-74 -66.5q33 0 66.5 -4t64.5 -14.5t58.5 -28.5t49.5 -45q63 28 110 67.5t66 102.5q3 8 11 8q5 0 7.5 -2t2.5 -4t-1 -4q-18 -70 -67 -115.5t-114 -74.5q27 -44 28 -72.5t1 -32.5q0 -50 -19 -101
t-56.5 -100.5t-88.5 -86t-106.5 -53t-106.5 -16.5q-16 0 -33 1q-63 6 -104 30t-60 57t-19 69q0 3 1 24t22 59q27 47 76 78.5t110 54t129.5 41t132.5 40.5q-12 26 -36 47q-29 26 -69.5 40t-77.5 14q-10 0 -20 -1zM668 152q-66 -22 -135 -39t-128.5 -38.5t-103.5 -51.5
t-62 -77q-8 -20 -8.5 -30.5t-0.5 -11.5q0 -19 8.5 -36t26.5 -31t48 -21q24 -6 49 -6q64 0 125.5 33.5t107 84t62.5 98t17 81.5q0 23 -6 45z" />
    <glyph glyph-name="bracketleft" unicode="[" horiz-adv-x="441" 
d="M486 952q-3 0 -15.5 0.5t-29 1t-68.5 0.5q-16 0 -26.5 -1t-10.5 -3q-7 -132 -11.5 -261.5t-7 -258.5t-4 -259.5t-4.5 -265.5q0 -10 7 -16.5t19 -10t28 -5t34 -1.5q24 0 48.5 1.5t43.5 2.5q9 0 12.5 -6.5t3.5 -14.5t-4 -15t-11 -7q-37 -2 -88 -3.5t-99 -1.5
q-25 0 -46.5 0.5t-38 2t-26 4t-9.5 6.5q0 141 2.5 287.5t7 293.5t9.5 290t10 276q0 14 25 18.5t62 4.5q24 0 50.5 -1.5t52 -3.5t47.5 -3.5t37 -2.5q10 0 14.5 -7t4.5 -15q0 -1 -0.5 -6t-5 -12.5t-13.5 -7.5z" />
    <glyph glyph-name="backslash" unicode="\" horiz-adv-x="563" 
d="M70 866q-3 8 -3 15q0 4 1.5 11t9.5 14.5t20 12t24 4.5q15 0 28 -6.5t21 -23.5q21 -46 43.5 -95.5t46.5 -103.5l199 -437q24 -54 46.5 -103.5t43.5 -95.5q7 -13 7 -26q0 -2 -1 -10t-8.5 -18t-19.5 -16t-26 -6q-16 0 -31.5 9.5t-25.5 31.5q-41 92 -89.5 200.5t-98.5 220.5
t-98.5 221t-88.5 201z" />
    <glyph glyph-name="bracketright" unicode="]" horiz-adv-x="366" 
d="M84 1029q-9 1 -13 8.5t-4 16.5t4.5 16t14.5 7q18 0 45 0.5t50 1t38 0.5t38 -0.5t47.5 -3.5t39.5 -9t15 -16q-3 -133 -6 -281t-7 -300.5t-9 -304t-13 -291.5q0 -5 -15 -7t-40 -2q-26 0 -59 2t-67.5 4.5t-67 5.5t-58.5 6q-7 1 -10.5 8t-3.5 15t3.5 14t11.5 6h2
q23 -2 54.5 -6t60.5 -4q28 0 47 6t20 23q9 272 20 540t11 535q0 3 -21.5 5t-48.5 3t-50.5 1.5t-28.5 0.5z" />
    <glyph glyph-name="asciicircum" unicode="^" horiz-adv-x="378" 
d="M392 576q2 -4 2 -7q0 -2 -2 -5.5t-7 -3.5q-6 0 -10 7q-9 12 -21 28.5t-24.5 31t-23.5 24t-18 9.5q-8 0 -23.5 -14.5t-32 -33t-31 -36.5t-21.5 -26q-6 -6 -14 -6q-7 0 -14 4t-12 9.5t-6 9.5t-1 6q0 4 3 8q4 5 14.5 17t24.5 27.5t30 32t31 30.5t28.5 23.5t21.5 9.5
q11 0 25 -14.5t28.5 -36t28.5 -47t24 -47.5z" />
    <glyph glyph-name="underscore" unicode="_" horiz-adv-x="594" 
d="M165 -46h411q22 0 33.5 -8t11.5 -17t-12 -17t-37 -8h-408q-21 0 -31.5 8t-10.5 17t11 17t32 8z" />
    <glyph glyph-name="grave" unicode="`" horiz-adv-x="266" 
d="M112 859q11 -13 20 -25.5t19 -26t20.5 -30t23.5 -37.5q8 -10 2.5 -18.5t-16.5 -8.5q-5 0 -11 3q-43 27 -72.5 51.5t-61.5 56.5q-14 14 -16 25.5t16 18.5q18 9 36 9q12 0 22.5 -4.5t17.5 -13.5z" />
    <glyph glyph-name="a" unicode="a" horiz-adv-x="546" 
d="M450 469q-3 -15 -10 -41.5t-15 -60.5t-15.5 -72t-12 -76t-5 -56.5t-0.5 -20.5q0 -32 7 -57.5t21.5 -41t40.5 -15.5q28 0 51 19t41 49.5t32 68.5t24.5 76.5t18 74t12.5 60.5q1 5 4 6.5t6 1.5q5 0 7.5 -2t2.5 -6v-2q-5 -31 -12.5 -71.5t-18 -83.5t-26 -84t-37.5 -73.5
t-51.5 -52.5t-68.5 -20q-38 0 -65.5 20t-46 53t-29 75.5t-13.5 87.5q-27 -66 -56.5 -96t-67.5 -30q-24 0 -46.5 11.5t-39 33t-26 50.5t-9.5 62v7q1 39 14 75.5t36 64t54 43.5t68 16h5q31 -1 52 -11.5t32 -27.5q8 24 16 37q14 20 38.5 30t47.5 10q19 0 30 -6.5t11 -17.5
q0 -3 -1 -7zM290 276q0 62 9 110q-4 20 -18.5 33t-33.5 13q-14 0 -28 -8.5t-26 -27.5t-20 -50.5t-10 -76.5v-19q0 -45 9 -72.5t27 -27.5t41.5 30.5t49.5 95.5z" />
    <glyph glyph-name="b" unicode="b" horiz-adv-x="573" 
d="M357 157q-27 -12 -41 -27.5t-16.5 -25t-2.5 -13.5q0 -7 4.5 -14.5t16.5 -7.5q16 0 29 11.5t23 27t17 33t10 29.5q-10 -2 -20 -5t-20 -8zM219 397q40 21 70 66.5t50 102t30 117t10 110.5t-10 83t-29 34h-2q-23 0 -41.5 -44.5t-33.5 -118t-25.5 -166t-18.5 -184.5zM198 17
q0 -28 -17 -40.5t-43 -12.5q-24 0 -44.5 12.5t-20.5 35.5q0 29 1 85.5t4 128.5t9.5 155t18 165t28.5 157t41.5 132t56.5 89.5t71 32.5h5q34 -1 55 -24.5t31 -60.5t10 -82q0 -3 -0.5 -28t-9.5 -76.5t-26 -102.5t-40 -93.5t-51 -73.5t-60 -42q-6 -72 -9.5 -136.5t-5.5 -115.5
q8 33 18.5 69t24.5 70.5t31 65t38 52.5t41.5 30.5t38.5 8.5q11 0 22 -2q33 -6 55 -27t35 -51t15.5 -55.5t2.5 -41.5q0 -18 -2 -36q27 2 51.5 10t43.5 26.5t32 51t18 84.5q0 5 3.5 7t6.5 2q5 0 7.5 -2t2.5 -6v-2q-9 -69 -25.5 -108.5t-38.5 -59.5t-49 -25.5t-57 -5.5
q-8 -37 -26 -68t-41.5 -53.5t-51.5 -35.5t-57 -13q-37 0 -59 19t-25 35.5t-3 23.5q0 21 13.5 47t51.5 46q20 11 41.5 16t44.5 9v3l1 2q13 56 13 95q0 14 -4 42.5t-30 38.5q-6 2 -12 2q-16 0 -35 -18t-38.5 -55t-37 -83.5t-30.5 -90t-22 -77.5t-12 -45z" />
    <glyph glyph-name="c" unicode="c" horiz-adv-x="417" 
d="M291 81q42 1 79 30t66.5 72.5t49 94.5t25.5 97q2 9 11 9q4 0 6.5 -2t2.5 -6v-2q-10 -60 -33.5 -120.5t-61 -109.5t-87.5 -80.5t-113 -31.5q-53 0 -88.5 22t-56 58t-25.5 70.5t-5 57.5q0 24 5 59.5t23.5 80t46.5 77.5t61 49t64 16q11 0 22 -2q41 -6 63 -27.5t27.5 -41.5
t5.5 -33t-5.5 -32.5t-22.5 -33.5q-15 -12 -32 -12q-15 0 -21 7t-6 12q0 6 6 14q7 9 11.5 24.5t5 24t0.5 9.5q0 14 -6 27t-20 17q-5 1 -9 1q-13 0 -27.5 -12t-28 -39t-23 -63t-12 -65.5t-2.5 -50.5q0 -17 2 -44t14 -56.5t33.5 -47t54.5 -17.5z" />
    <glyph glyph-name="d" unicode="d" horiz-adv-x="575" 
d="M498 28q22 0 42.5 21t39 54t34.5 73.5t28 79.5t19 71.5t8 49.5q0 9 10 9q4 0 7 -2t3 -6v-2q-3 -27 -11 -66.5t-21.5 -82.5t-32.5 -85.5t-44 -76.5t-55.5 -55t-67.5 -21q-34 0 -60.5 18.5t-46 51.5t-32.5 78t-20 97q-29 -70 -58.5 -102.5t-69.5 -32.5q-24 0 -46.5 11.5
t-39 33t-26 50.5t-9.5 62v7q1 39 14 75.5t36 64t54 43.5t68 16h5q39 -1 65 -19q3 64 12 127t23 121t33 107t42 84.5t48 53.5t51 18h8q29 -2 47 -22t27 -51.5t9.5 -53.5t0.5 -27q0 -35 -6 -72q-7 -45 -23.5 -92.5t-39.5 -92t-52.5 -83t-62.5 -65.5v-26q0 -58 4 -118.5
t14.5 -111.5t28.5 -81t43 -30zM408 421q29 26 54.5 61.5t46 75t35 80.5t20.5 78q5 29 5 54q0 9 -1.5 30t-8 46.5t-17.5 41t-23 17.5h-3q-12 0 -25 -17.5t-25 -51.5t-21.5 -81t-17.5 -101.5t-12.5 -114t-6.5 -118.5zM293 278q-3 32 -3.5 57t-0.5 42v34q-8 9 -18.5 14.5
t-22.5 5.5q-13 0 -27 -8.5t-26 -27.5t-20 -50t-10 -76v-19q0 -44 9 -72t27 -28t42 31t50 97z" />
    <glyph glyph-name="e" unicode="e" horiz-adv-x="384" 
d="M235 99q-67 1 -105 32t-50 69.5t-12 72.5q0 16 4.5 51t27.5 80t60 75t82 30q13 0 28 -3q35 -8 54 -29.5t22.5 -40.5t3.5 -31q0 -17 -6 -40t-25.5 -46t-47 -35t-56.5 -12q-9 0 -18 1q2 -25 8.5 -48t19 -40t31 -27t43.5 -10q59 1 109 60.5t72 179.5q2 6 9 6q5 0 8 -2t3 -5
v-2q-11 -63 -33.5 -116t-56 -91.5t-76.5 -58.5t-94 -20h-5zM196 291q25 1 43.5 13t31.5 29.5t19.5 38.5t7 31t0.5 12q0 16 -5.5 30t-18.5 19q-5 2 -10 2q-10 0 -22.5 -11.5t-23 -37t-16.5 -57t-6 -60.5v-9z" />
    <glyph glyph-name="f" unicode="f" horiz-adv-x="383" 
d="M220 219q45 6 88 15.5t78 27.5t59 45.5t32 69.5q2 9 11 9q4 0 6.5 -2t2.5 -6v-2q-9 -45 -33.5 -76t-60 -51t-79 -32t-90.5 -20q32 -52 57 -111.5t41.5 -118t22.5 -103t6 -73.5q0 -16 -1 -30q-7 -63 -39 -93t-70 -30q-27 0 -52.5 15.5t-42.5 45.5q-21 36 -36 107
t-23.5 163t-9.5 156.5t-1 89.5q0 79 5.5 171t20 187t38.5 166.5t57 111t73 39.5h8q29 -2 48 -22.5t28 -53.5t9.5 -56.5t0.5 -25.5q0 -42 -8 -88q-6 -37 -18.5 -87.5t-32 -102t-45.5 -99.5t-60 -81l-2 -37zM212 305q28 33 50 77t38.5 89.5t27 87t14.5 69.5q7 40 7 73
q0 6 -1 28t-7.5 50t-15.5 43.5t-18 16.5h-1q-16 0 -30 -43t-26 -118t-22 -172t-16 -201zM207 202q-3 -81 -3.5 -130.5t-0.5 -70.5q0 -52 2 -107.5t8 -104t16 -72.5q8 -20 20.5 -30t26.5 -10q20 0 37.5 19.5t24.5 61.5q3 19 3 42q0 24 -5 65t-22.5 100.5t-44.5 121t-62 115.5
z" />
    <glyph glyph-name="g" unicode="g" horiz-adv-x="519" 
d="M320 422q9 35 38 56.5t64 21.5q17 0 27 -6.5t10 -19.5v-2q-5 -89 -13 -178t-22 -177q35 31 67 62.5t57.5 64.5t42.5 67.5t23 70.5q2 9 11 9q4 0 6.5 -2t2.5 -6v-2q-5 -42 -24.5 -80.5t-49 -75.5t-66 -72.5t-76.5 -70.5q-4 -29 -13 -78t-23 -105.5t-33.5 -115t-46 -105.5
t-60 -77t-75.5 -30q-19 0 -35.5 8t-28 24t-16.5 35t-5 37q0 9 1 19q4 43 22 83t45 77.5t62 73t73 69.5q4 54 6.5 108t4.5 105q-26 -57 -53.5 -84t-63.5 -27q-24 0 -46.5 11.5t-39 33t-26 50.5t-9.5 62v7q1 39 14 75.5t36 64t54 43.5t68 16h5q32 -1 53 -12t32 -28zM311 383
q-3 20 -18 34t-35 14q-14 0 -28 -8.5t-26 -27.5t-20 -50t-10 -76v-19q0 -45 9 -72.5t27 -27.5t41 30t49 93zM282 -36q-36 -32 -67 -65t-55 -66.5t-38.5 -69t-16.5 -72.5v-9q0 -30 13.5 -49t34.5 -19q15 0 31 10t30 31q15 23 26 56t19 73t13.5 86t9.5 94z" />
    <glyph glyph-name="h" unicode="h" horiz-adv-x="614" 
d="M708 376q1 5 4 6.5t6 1.5q5 0 8 -2.5t2 -7.5q-5 -31 -14.5 -66.5t-23 -71t-32 -68t-41 -57.5t-51 -40t-61.5 -15q-48 0 -72.5 29.5t-34.5 73.5t-9 96t4.5 96t5.5 74t-6 30q-5 0 -16.5 -13.5t-26 -38t-30.5 -57t-30 -70.5q-10 -26 -25.5 -66.5t-30.5 -84t-26 -84
t-11 -66.5q0 -25 -18.5 -36.5t-41.5 -11.5q-24 0 -44.5 12.5t-20.5 35.5q0 29 1 87t4 133t9.5 161t18.5 171.5t29 164t41.5 138t57.5 94.5t76 33q34 -1 54.5 -24.5t30.5 -61t9.5 -85.5t-9.5 -99t-26 -101.5t-40 -93.5t-50.5 -74t-59.5 -43q-7 -81 -11 -154.5t-6 -130.5
q14 44 32 94.5t38 100.5q18 43 36 82t39 68.5t45 47t53 17.5q28 0 43 -17t21.5 -44.5t6.5 -62t-2 -70.5t-3.5 -70.5t2 -61t15 -41.5t34.5 -14q31 2 56 31t44 69t31 83t16 74zM220 398q40 22 69.5 67.5t49 102t29.5 116.5t10 110t-9.5 82.5t-28.5 33.5q-15 1 -28.5 -19
t-25.5 -56t-21.5 -85.5t-17.5 -106.5t-15 -120t-12 -125z" />
    <glyph glyph-name="i" unicode="i" horiz-adv-x="305" 
d="M189 658q30 0 45 -18.5t15 -40.5t-15 -40.5t-45 -18.5t-45.5 18.5t-15.5 40.5t15.5 40.5t45.5 18.5zM204 36q-47 -1 -75.5 25t-43 66.5t-17 89.5t3 96t17 85.5t23.5 56.5q15 22 41 33t49 11q19 0 30.5 -7.5t8.5 -22.5t-14 -48t-23 -74.5t-20.5 -85.5t-8.5 -82t13.5 -64
t45.5 -30q27 -4 48.5 10t38.5 39t29.5 57.5t22 66t15.5 65t11 53.5q1 7 10 7q5 0 8 -2.5t2 -6.5q-5 -32 -13 -69.5t-20 -75t-28 -72t-38.5 -61.5t-51 -43t-64.5 -17z" />
    <glyph glyph-name="j" unicode="j" horiz-adv-x="290" 
d="M180 658q30 0 45 -18.5t15 -40.5t-15 -40.5t-45 -18.5t-45.5 18.5t-15.5 40.5t15.5 40.5t45.5 18.5zM405 380q-7 -51 -25.5 -88.5t-45.5 -70t-61 -63.5t-73 -68q-4 -29 -13 -78.5t-22.5 -107.5t-33.5 -117t-46.5 -107t-60.5 -78.5t-76 -30.5q-19 0 -35.5 8t-28 24
t-16.5 35t-5 37q0 9 1 19q4 42 21.5 81t45 76.5t62.5 73.5t73 72q5 81 8.5 160.5t8.5 146.5q4 54 11 90t18 55q7 12 18 21.5t23.5 16t25.5 10t24 3.5q17 0 27 -6.5t10 -19.5v-2q-5 -88 -13.5 -173.5t-20.5 -172.5q35 32 65 61.5t53 59.5t39 63.5t22 73.5q1 7 9 7q5 0 8 -2.5
t3 -6.5v-2zM63 -38q-35 -33 -66.5 -66.5t-55.5 -67t-38.5 -67.5t-16.5 -70v-9q0 -30 13.5 -49t34.5 -19q15 0 31 10t30 31q15 23 26 56t19 72.5t13.5 85t9.5 93.5z" />
    <glyph glyph-name="k" unicode="k" horiz-adv-x="514" 
d="M282 263h4q20 0 36.5 -10t30.5 -26t25.5 -34.5t23.5 -34.5t25 -25.5t29 -9.5h3q25 2 49.5 25.5t44.5 60t34.5 81t20.5 87.5q2 9 11 9q4 0 6.5 -2t2.5 -6v-2q-6 -53 -24.5 -111t-47.5 -106t-66.5 -79.5t-81.5 -31.5q-28 0 -48.5 13t-35 32.5t-24 42t-16.5 41.5t-11.5 29.5
t-9.5 10.5h-1q-13 -33 -24.5 -65t-20.5 -60t-15.5 -51t-8.5 -38q-2 -8 -2 -14q0 -2 0.5 -6t0.5 -8q0 -25 -18.5 -36.5t-41.5 -11.5q-24 0 -44.5 12.5t-20.5 35.5q0 29 1 87t4 133t9.5 161t18.5 171.5t29 164t41.5 138t56.5 93.5t72 34h5q34 -1 54.5 -24.5t30.5 -60t10 -81.5
q0 -3 -0.5 -28t-9.5 -76t-26 -101.5t-40 -93.5t-50.5 -74t-59.5 -43q-6 -75 -10.5 -144.5t-6.5 -124.5q11 41 26.5 88.5t34 95t40.5 91.5t46 77.5t49 51.5t50 18h5q20 -1 31 -13.5t15 -28.5t4 -32q0 -3 -0.5 -15t-4 -29t-8.5 -28t-8 -11t-5.5 9t-8 19.5t-14 20t-23.5 10.5
h-5q-16 0 -33.5 -12t-35.5 -35.5t-35.5 -54t-33.5 -65.5zM215 398q40 22 69.5 67.5t49 102t29.5 116.5t10 110t-9.5 82.5t-28.5 33.5h-1q-15 0 -28 -19.5t-25 -55.5t-21.5 -85.5t-17.5 -106.5t-15 -120t-12 -125z" />
    <glyph glyph-name="l" unicode="l" horiz-adv-x="375" 
d="M297 28q22 0 42.5 20t39 52t34 71t27.5 78t19.5 73t9.5 55q0 8 10 8q4 0 7 -2t3 -6v-2q-4 -28 -13 -68t-22.5 -83t-32 -85t-43 -75.5t-54.5 -54t-67 -20.5q-52 0 -86.5 42t-54 111t-23.5 132.5t-4 102.5q0 50 5.5 121.5t23.5 158.5t46 154t63 105t73 38h8q29 -2 47 -22
t27 -51.5t9.5 -53.5t0.5 -27q0 -35 -6 -72q-7 -45 -23.5 -93t-40 -93t-53 -84t-62.5 -66v-26q0 -58 4 -118t14.5 -110t28.5 -80t43 -30zM208 419q29 26 54.5 62t46 76t35 81.5t20.5 77.5q5 29 5 54q0 9 -1.5 30t-8 46.5t-17.5 41t-23 17.5h-3q-20 0 -38.5 -40.5t-33 -110
t-24 -158t-12.5 -177.5z" />
    <glyph glyph-name="m" unicode="m" horiz-adv-x="871" 
d="M187 127q17 57 40 122t51.5 121t61 93t69.5 37q35 0 54 -33.5t27 -82.5t9.5 -104t2.5 -98q19 55 37 105t37 94q27 64 50 92t58 27q29 0 44.5 -17t22.5 -44.5t7.5 -62t-0.5 -70.5t-2 -70.5t3 -61t15.5 -41.5t34.5 -14q31 2 57 31.5t46.5 70t33.5 83.5t19 72q1 5 4 6.5
t6 1.5q5 0 8 -2.5t2 -7.5q-5 -29 -15 -64t-24.5 -70t-34 -68.5t-43.5 -59t-52.5 -41t-62.5 -15.5q-47 0 -72 29.5t-34.5 73.5t-8.5 96t4.5 96t5.5 74t-6 30q-5 0 -15 -16t-28 -57q-32 -74 -60.5 -157.5t-49.5 -170.5q-2 -11 -19 -17.5t-36 -6.5t-34 7t-13 24q2 16 5 51.5
t6 79.5t5 91.5t1 87.5t-6 66.5t-16 28.5q-12 3 -35.5 -26.5t-53 -89t-62 -148t-62.5 -203.5q-1 -3 -13.5 -5.5t-29.5 -2.5q-20 0 -38.5 4.5t-24.5 18.5q-4 11 -5 44.5t1.5 78.5t8 95.5t12.5 95.5t15 79.5t17 47.5q15 22 41 33t49 11q19 0 30.5 -7.5t8.5 -22.5
q-17 -82 -29.5 -167t-24.5 -175z" />
    <glyph glyph-name="n" unicode="n" horiz-adv-x="567" 
d="M182 119q24 73 47 139.5t46 121.5q28 65 51 93t58 27q29 0 44.5 -17t22.5 -44.5t7.5 -62t-0.5 -70.5t-2 -70.5t3.5 -61t16 -41.5t34.5 -14q31 2 56.5 30.5t45 68t32 83t17.5 76.5q1 5 4 6.5t6 1.5q5 0 8 -2.5t2 -7.5q-7 -48 -24.5 -104t-45.5 -104t-67 -79.5t-89 -31.5
q-36 0 -58.5 17t-35.5 45t-18 64t-5 73t3 73t5 64t2 45.5t-6 17.5q-10 0 -38 -61q-40 -87 -74 -190.5t-65 -204.5q-1 -3 -13.5 -5.5t-29.5 -2.5q-20 0 -38.5 4.5t-24.5 18.5q-4 11 -4.5 44t2 77.5t7.5 95.5t11.5 96.5t15 80t17.5 47.5q15 22 41 33t49 11q19 0 30.5 -7.5
t8.5 -22.5q-17 -85 -29.5 -171.5t-25.5 -178.5z" />
    <glyph glyph-name="o" unicode="o" 
d="M363 190q-11 -27 -26.5 -50t-34.5 -39.5t-41.5 -26t-48.5 -9.5q-39 0 -65.5 21.5t-42.5 55.5t-22 75t-4.5 80.5t9.5 73t20 51.5q8 12 20 20.5t25.5 13.5t27 7t25.5 1q14 17 33 26.5t44 9.5q41 0 66 -27.5t35.5 -69.5t7 -93t-19.5 -98q31 7 58 26t48 44.5t34.5 54
t17.5 54.5q1 4 4 5.5t7 1t6.5 -2.5t2.5 -5q-3 -34 -18.5 -67.5t-40.5 -61.5t-57.5 -47t-69.5 -24zM208 301q17 -46 53 -69t84 -23q15 41 20 88.5t-1.5 89t-26 69t-53.5 28.5q-18 1 -32.5 -6.5t-25.5 -20.5q12 -7 9 -23q-4 -17 -12.5 -53.5t-14.5 -79.5zM321 189
q-42 4 -71 23.5t-47 48.5q-3 -28 -2 -54t6.5 -46t17 -32t30.5 -13q26 -1 46.5 19.5t35.5 52.5h-4l-8 1h-4z" />
    <glyph glyph-name="p" unicode="p" horiz-adv-x="572" 
d="M219 261q13 42 29 81.5t37 69.5t46.5 47.5t56.5 17.5h3q41 -1 66.5 -29t38.5 -69.5t14.5 -72.5t1.5 -46q0 -29 -3 -55q29 2 55 9t47 26t35 51.5t20 85.5q0 5 3.5 7t6.5 2q5 0 7.5 -2t2.5 -6v-2q-10 -69 -28 -109t-41.5 -60.5t-52 -26t-60.5 -5.5q-8 -36 -26 -66.5
t-41.5 -53t-51.5 -35.5t-57 -13q-37 0 -59 19t-25 35.5t-3 23.5q0 21 13.5 46.5t51.5 45.5q20 11 41 16t44 7l3 13q8 36 13.5 74.5t5.5 69.5q0 3 -0.5 21t-8.5 40t-27 23h-2q-19 0 -39.5 -24.5t-40.5 -64.5t-37.5 -88.5t-32 -94.5t-24 -84.5t-13.5 -57.5q-13 -62 -27 -122
t-31.5 -112.5t-38 -95.5t-46.5 -72q-23 -26 -48 -39t-48 -13q-20 0 -37 9.5t-29 27.5t-16.5 40t-4.5 43q0 12 1 24q3 34 16 75.5t37 82t60.5 75.5t87.5 56q4 69 7.5 137t8.5 127t12 105.5t17 73.5q10 26 36.5 39t50.5 13q17 0 29 -7t12 -20v-2q-2 -44 -7 -97t-11 -114z
M384 170q-11 -2 -21 -5t-20 -8q-27 -12 -41 -27.5t-16 -24.5t-2 -13q0 -8 4.5 -15.5t16.5 -7.5q16 0 29 11.5t23 27t17 33t10 29.5zM62 -19q-46 -23 -79 -57t-54.5 -71.5t-32.5 -75.5t-12 -69v-11q0 -37 13.5 -59.5t35.5 -22.5q14 0 30.5 11t30.5 33q17 25 28.5 60t19.5 77
t12.5 89t7.5 96z" />
    <glyph glyph-name="q" unicode="q" horiz-adv-x="558" 
d="M425 198q42 13 80.5 28.5t69 36.5t51 49t26.5 65q2 9 11 9q4 0 6.5 -2t2.5 -6v-2q-5 -40 -24.5 -71t-49 -55t-67 -42.5t-78.5 -33.5q36 -52 56 -117.5t28 -127t8 -113.5q0 -3 -0.5 -32t-3.5 -59q-9 -79 -39 -116t-66 -37q-25 0 -49.5 17t-43.5 51q-24 42 -37 105
t-18 129.5t-5 128.5q0 17 1 66t6 126q-24 -50 -50.5 -73t-60.5 -23q-24 0 -46.5 11.5t-39 33t-26 50.5t-9.5 62v7q1 39 14 75.5t36 64t54 43.5t68 16h5q32 -1 53.5 -12.5t32.5 -28.5q4 11 7 19.5t8 14.5q15 22 40.5 33.5t48.5 11.5q18 0 29 -7t11 -20v-4q-3 -25 -10 -71.5
t-15 -103.5q-3 -22 -6.5 -44t-8.5 -52zM295 261l16 121q-2 21 -17.5 35t-35.5 14q-14 0 -28 -8.5t-26 -27.5t-20 -50t-10 -76v-19q0 -44 9 -72t27 -28q17 0 39 27t46 84zM421 163q-11 -73 -21.5 -146t-14.5 -127t-4 -91q0 -23 2 -61t17 -76q21 -52 55 -52q20 0 37.5 23.5
t25.5 72.5q5 34 5 89.5t-9.5 118.5t-31.5 128.5t-61 120.5z" />
    <glyph glyph-name="r" unicode="r" horiz-adv-x="438" 
d="M98 432q-48 26 -69 52.5t-19 51.5q1 14 8 27t18.5 23t25 15.5t26.5 4.5q26 -2 35 -28t9 -63q0 -21 -3 -44q24 -11 53 -19.5t54.5 -18t42 -21.5t14.5 -29q-1 -9 -8.5 -36.5t-15 -63.5t-12.5 -75.5t-2 -72t17.5 -54t46.5 -21.5q28 0 53 16t47 42.5t40.5 60t33 69t24.5 69
t15 59.5q1 5 4 6.5t6 1.5q5 0 8 -2.5t2 -7.5q-7 -34 -18.5 -74t-28.5 -80.5t-39 -77.5t-49.5 -66t-60.5 -46t-71 -17q-39 0 -65 18t-41.5 47t-22.5 66t-8 74.5t2 72.5t7 61q4 25 6.5 35t-0.5 13.5t-12 6t-29 12.5q-2 -14 -4 -25.5t-4 -19.5q-1 -5 -4 -6.5t-6 -1.5
q-5 0 -8 2.5t-2 7.5q2 9 4.5 23t4.5 30zM109 481q1 11 1.5 21.5t-0.5 18.5q-1 14 -4.5 19t-8.5 5q-7 0 -12.5 -11.5t-0.5 -25.5q6 -14 25 -27z" />
    <glyph glyph-name="s" unicode="s" horiz-adv-x="354" 
d="M90 94q16 32 42 56t58 43q-11 17 -23.5 33.5t-25 34.5t-24 37.5t-20.5 43.5q-16 43 -16 81q0 2 0.5 22.5t14 48t37.5 43t52 15.5q15 0 31.5 -5.5t29 -18t18 -30t5.5 -36.5q0 -10 -1 -22t-11 -12q-4 0 -6.5 2t-2.5 6v2q1 5 1 10q0 10 -4 21t-12 20.5t-19.5 14t-22.5 4.5
q-9 0 -22.5 -5t-23.5 -17t-11.5 -24.5t-1.5 -16.5q0 -19 10 -45q9 -24 24 -46t32 -42t35.5 -39t36.5 -39q32 14 61.5 28t54 30.5t41 36.5t21.5 47q1 5 4 6.5t6 1.5q5 0 7.5 -2t2.5 -6v-2q-4 -30 -21 -53t-42 -41.5t-55 -34.5t-62 -32q26 -31 43 -64t17 -74
q0 -37 -14.5 -65.5t-38 -48t-53.5 -30t-60 -10.5q-40 0 -64.5 16t-34 39.5t-9.5 48.5q0 5 1 22.5t15 46.5zM205 166q-29 -20 -51 -44t-34 -56q-9 -24 -9 -42t6.5 -31t17.5 -19.5t24 -6.5q12 0 24.5 6.5t22.5 20.5t15.5 33.5t5.5 43.5v8q-1 26 -7 47t-15 40z" />
    <glyph glyph-name="t" unicode="t" horiz-adv-x="374" 
d="M240 844q-2 -21 -6.5 -58t-9.5 -85q27 6 54.5 11t56.5 5q38 0 76.5 -13t73.5 -51q6 -7 -0.5 -14t-13.5 0q-32 32 -65 44.5t-71 12.5q-26 0 -53.5 -4.5t-58.5 -11.5q-6 -64 -11 -139t-6.5 -150t2 -145.5t14.5 -124.5t32 -86t53 -32q26 0 47 21t37.5 54.5t29 75t22 82.5
t15.5 78.5t10 61.5q1 5 4 6.5t6 1.5q5 0 8 -2.5t2 -7.5q-5 -30 -12 -72.5t-17.5 -88t-25.5 -90t-37.5 -80t-53 -57.5t-71.5 -22q-50 0 -84 32.5t-55.5 86.5t-32.5 124.5t-15 147t-2 153.5t6 144q-20 -3 -41.5 -5t-44.5 -2q-48 0 -90.5 13t-61.5 50q-2 5 1 9t8 4q6 0 9 -5
q17 -29 52.5 -40t78.5 -11q22 0 44.5 2t45.5 6q3 50 6.5 90t5.5 66q2 23 28 34t55 11q23 0 40.5 -7.5t15.5 -22.5z" />
    <glyph glyph-name="u" unicode="u" horiz-adv-x="612" 
d="M390 460q14 20 38.5 30t47.5 10q19 0 30 -6.5t11 -17.5q0 -3 -1 -7q-4 -19 -14 -59.5t-19 -89.5t-13.5 -90t-4.5 -68q0 -20 3 -50t19.5 -57t50.5 -27q28 0 50 18t39 47.5t29.5 67t22 76t16 75.5t11.5 65q2 9 11 9q4 0 6.5 -2t2.5 -6v-2q-5 -34 -11.5 -76.5t-16.5 -85.5
t-24.5 -83.5t-35 -72t-49 -50.5t-65.5 -19q-42 0 -72 23.5t-49.5 61.5t-29.5 85.5t-13 95.5q-8 -30 -19 -59.5t-28.5 -52.5t-42 -37t-59.5 -14q-43 1 -70 22.5t-41.5 55t-17 63t-2.5 48.5q0 21 3 51.5t12.5 63.5t21.5 50q15 22 41 33t49 11q19 0 29.5 -6.5t10.5 -17.5
q0 -3 -1 -6q-3 -15 -12 -44t-18 -63.5t-15.5 -69t-6.5 -61.5q0 -4 0.5 -21t11 -36.5t36.5 -20.5h3q24 0 41.5 18.5t30.5 48t22 66.5t17 72.5t16 65t18 45.5z" />
    <glyph glyph-name="v" unicode="v" horiz-adv-x="471" 
d="M376 500q20 0 30.5 -22t13 -58t-3 -82t-17.5 -94q22 -8 41 -8q28 0 50 14t37.5 36.5t25.5 50t14 54.5q1 4 4 5.5t7 1t6.5 -2.5t2.5 -5q-3 -34 -15 -66.5t-32 -57.5t-47.5 -40.5t-62.5 -15.5q-16 0 -39 5q-13 -44 -31.5 -85t-41 -72.5t-49 -50.5t-56.5 -19q-38 0 -63.5 30
t-40.5 76t-20.5 102t-3.5 108.5t10.5 95t21.5 61.5t37.5 29t47.5 10q19 0 31.5 -7.5t8.5 -23.5q-3 -15 -10 -52t-13.5 -84.5t-11 -99t-2.5 -94t12 -70.5t32 -28q16 0 31.5 15.5t29 41.5t25.5 60.5t21 71.5q-23 16 -35.5 42.5t-15.5 56.5t1 60.5t14 55t24.5 40t31.5 15.5z
M366 271q9 40 14.5 77.5t7 67t-0.5 47t-8 17.5q-7 0 -16.5 -23t-14.5 -56t-2 -69t20 -61z" />
    <glyph glyph-name="w" unicode="w" horiz-adv-x="770" 
d="M386 234q-7 -44 -21 -87.5t-35 -78.5t-48.5 -57t-62.5 -22q-41 0 -68 29.5t-42.5 75t-20.5 93t-5 84.5q0 16 1.5 49.5t10.5 76t22 62.5q14 20 38.5 30.5t47.5 10.5q19 0 30 -6.5t11 -17.5q0 -3 -1 -7q-3 -15 -12.5 -53.5t-18.5 -87t-15.5 -98.5t-6.5 -89q0 -6 0.5 -30.5
t12 -53t38.5 -28.5q21 0 39 17.5t33.5 46t27.5 64.5t21 73t15.5 72t10.5 61q5 34 10 53t16 34q14 20 39 30.5t48 10.5q19 0 30 -6.5t11 -17.5q0 -3 -1 -7q-3 -15 -10 -47t-13.5 -72t-10 -75.5t-3.5 -60.5q0 -12 1.5 -35.5t11.5 -46t31 -23.5q15 0 28.5 10.5t26 29t24 43.5
t20.5 53q-21 18 -31.5 44t-12 45t-1.5 27q0 21 4.5 46.5t15 49t25 38t31.5 14.5q21 0 31 -22.5t11 -43.5t1 -27q0 -31 -7.5 -73t-22.5 -87q15 -8 35 -9h7q48 0 85.5 37.5t47.5 114.5q0 4 3 5.5t6 1.5q1 0 3.5 -0.5t5 -2.5t2.5 -5q-9 -84 -53 -131t-109 -47h-8q-10 1 -19 2
t-17 4q-14 -34 -32 -65t-39 -54.5t-46 -36.5t-52 -13q-29 0 -51 16t-37 41.5t-24 59t-13 69.5zM660 279q10 37 17 73t9 59t2 37q0 8 -1 20t-8 12t-16.5 -21.5t-14 -49.5t-4.5 -54q0 -8 1 -29t15 -47z" />
    <glyph glyph-name="x" unicode="x" horiz-adv-x="521" 
d="M416 91q43 4 77.5 33.5t59.5 72t40.5 91t21.5 89.5q2 9 11 9q4 0 6.5 -2t2.5 -6v-2q-6 -54 -26 -112t-53.5 -106.5t-80.5 -79.5t-107 -31q-51 0 -93.5 24.5t-76.5 62.5q-19 -31 -38 -59.5t-38 -52.5q-32 -42 -58.5 -64.5t-51.5 -22.5q-5 0 -10 1q-8 1 -14.5 5.5t-10 8.5
t-3.5 8l0.5 2.5t6.5 4.5q29 8 58.5 28.5t56 47.5t49 56.5t37.5 54.5q-24 30 -41.5 63t-29 64.5t-15.5 55t-4 37.5q0 6 1 12q2 19 12 35.5t22.5 29t27 19.5t25.5 7q17 0 21 -16q7 -26 17.5 -78t28.5 -109q21 43 41.5 84t41.5 73t43 51t46 19q8 0 15 -3t11.5 -7t4.5 -8t-6 -7
q-22 -10 -42 -28.5t-37.5 -41.5t-33 -48t-29.5 -48q-11 -17 -21 -35t-21 -36q12 -31 27 -58.5t34.5 -48t40.5 -30.5t42 -10q6 0 12 1z" />
    <glyph glyph-name="y" unicode="y" horiz-adv-x="574" 
d="M246 460q-3 -15 -11.5 -44t-17 -63.5t-14 -68t-5.5 -58.5q0 -6 1 -24t12 -37.5t37 -20.5h2q29 0 48 23t32 57.5t20.5 72.5t12.5 66q5 30 10 51.5t13 34.5q7 12 18 21.5t23.5 16t25.5 10t24 3.5q17 0 27 -6.5t10 -19.5v-2q-5 -88 -13.5 -173.5t-20.5 -172.5q35 30 65 55
t54 52.5t41.5 62t28.5 85.5q3 9 12 9q8 0 8 -6v-3q-10 -54 -30 -93t-48 -71t-63 -61.5t-74 -65.5q-4 -29 -13 -78.5t-22.5 -107.5t-33.5 -117t-46.5 -107t-60.5 -78.5t-76 -30.5q-19 0 -35.5 8t-28 24t-16.5 35t-5 37q0 9 1 19q4 42 21.5 81t45 76.5t62.5 73.5t73 72
q4 59 6.5 118t5.5 113q-9 -27 -21 -51.5t-29.5 -43.5t-40 -30t-52.5 -11q-41 1 -67.5 22.5t-40.5 55t-17 64.5t-3 52q0 19 2.5 48t12 62t21.5 50q15 22 41 33t49 11q19 0 29.5 -6.5t10.5 -17.5q0 -3 -1 -6zM337 -38q-35 -33 -66.5 -66.5t-55.5 -67t-38.5 -67.5t-16.5 -70v-9
q0 -30 13.5 -49t34.5 -19q15 0 31 10t30 31q15 23 26 56t19 72.5t13.5 85t9.5 93.5z" />
    <glyph glyph-name="z" unicode="z" horiz-adv-x="472" 
d="M181 161q16 11 39.5 35t45.5 54.5t38 64t17 63.5q0 21 -7.5 37t-20.5 27.5t-30 17t-36 5.5t-38.5 -6.5t-36 -20.5t-28 -34.5t-14.5 -49.5q0 -3 -3 -4t-5 -1q-1 0 -3.5 0.5t-5 3t-2.5 5.5q6 38 21 64.5t36.5 43.5t47 25t51.5 8q30 0 58 -9.5t49.5 -27t32.5 -40t11 -48.5
v-8q-4 -48 -49 -102t-123 -112q33 -9 62 -24t54 -34q3 2 5.5 5t5.5 5l21 19q3 3 6 5.5t5 4.5q27 26 57 53t56 57.5t44.5 66t24.5 77.5q2 10 13 10q8 0 8 -6v-3q-6 -46 -26 -84.5t-48 -72t-59 -63t-60 -56.5q-2 -2 -4.5 -4t-4.5 -4l-17 -17q-3 -2 -9 -8q30 -27 53 -59t38 -65
t22 -66t7 -62q0 -59 -29 -106.5t-73.5 -80.5t-97.5 -50.5t-102 -17.5q-13 0 -24.5 1.5t-22.5 3.5q-33 7 -57.5 25.5t-33 42t-8.5 45.5q0 14 4.5 42t32.5 79q38 69 94.5 124.5t120.5 109.5q-22 27 -50.5 46.5t-66.5 30.5q-11 3 -11 10q0 3 5.5 11t19.5 18zM298 25
q-61 -54 -114.5 -105.5t-86.5 -111.5q-24 -44 -27 -66t-3 -31q0 -22 9 -42t31 -32.5t49 -12.5h4q26 0 55.5 11.5t56 36t46 62t25.5 88.5q2 18 2 36q0 34 -9 78t-38 89z" />
    <glyph glyph-name="braceleft" unicode="{" horiz-adv-x="430" 
d="M494 951q-20 -1 -42.5 -2.5t-43 -7t-37.5 -18t-26 -36.5q-9 -25 -11 -59t-2 -68q0 -8 0.5 -23t0.5 -37t-0.5 -56t-7 -75t-22.5 -73.5t-47 -50.5q31 -18 46.5 -50.5t22.5 -73t7 -86t-0.5 -72.5t-0.5 -37q0 -31 1.5 -64t11.5 -58q9 -25 26 -37.5t38 -18t43.5 -7t42.5 -2.5
q9 0 13.5 -7.5t5 -12t0.5 -5.5q0 -8 -4.5 -15t-14.5 -8q-29 -3 -55 -3q-5 0 -22 0.5t-44 8t-51 23t-44 41.5q-31 40 -44.5 89t-18 99.5t-4.5 98.5t-3.5 86.5t-15 63.5t-40.5 29q-8 1 -11.5 6t-3.5 11q0 1 0.5 4.5t4 8.5t10.5 6q29 4 40.5 29t15 63.5t3.5 86.5t4.5 98.5
t18 99.5t44.5 89q20 26 44 41.5t51 23t44 8t22 0.5q26 0 55 -3q10 -1 14.5 -8t4.5 -15q0 -1 -0.5 -5.5t-5 -12t-13.5 -7.5z" />
    <glyph glyph-name="bar" unicode="|" horiz-adv-x="363" 
d="M296 928q-1 -100 -4 -219.5t-6 -242t-6 -241.5t-6 -219q-1 -32 -9.5 -48t-18.5 -16t-16.5 13t-6.5 36v7q2 51 3.5 105t3.5 113l15 480q2 59 3.5 113t3.5 105q1 26 9 39t17 13q8 0 13 -9t5 -29z" />
    <glyph glyph-name="braceright" unicode="}" horiz-adv-x="520" 
d="M113 945q-9 0 -13.5 7.5t-5 12t-0.5 5.5q0 8 4.5 15t14.5 8q29 3 56 3q4 0 21.5 -0.5t44.5 -8t50.5 -23t43.5 -41.5q31 -40 44.5 -89t18 -99.5t4.5 -98.5t3.5 -86.5t15.5 -63.5t40 -29q7 -1 10.5 -6t4 -8.5t0.5 -4.5q0 -6 -3.5 -11t-11.5 -6q-28 -4 -40 -29t-15.5 -63.5
t-3.5 -86.5t-4.5 -98.5t-18 -99.5t-44.5 -89q-20 -26 -43.5 -41.5t-50.5 -23t-44.5 -8t-21.5 -0.5q-27 0 -56 3q-10 1 -14.5 8t-4.5 15q0 1 0.5 5.5t5 12t13.5 7.5q20 1 42.5 2.5t43.5 7t38 18t26 37.5q10 25 11.5 58t1.5 64q0 10 -0.5 37t-0.5 72.5t7 86t22.5 73t46.5 50.5
q-31 18 -47 50.5t-22.5 73.5t-7 75t-0.5 56t0.5 38t0.5 26q0 31 -1.5 64t-11.5 59q-9 24 -26 36.5t-37.5 18t-43 7t-42.5 2.5z" />
    <glyph glyph-name="asciitilde" unicode="~" horiz-adv-x="655" 
d="M146 296q28 64 65.5 87t79.5 23q32 0 65.5 -9t66.5 -19.5t65 -19.5t60 -9q26 0 48.5 10t40.5 35q4 5 10 5q5 0 7.5 -2.5t2.5 -4.5q0 -3 -2 -6q-31 -56 -68.5 -76t-79.5 -20q-31 0 -64 8t-65 18t-62.5 18t-57.5 8q-29 0 -52.5 -12t-41.5 -44q-3 -6 -9 -6q-5 0 -7.5 3.5
t-2.5 6.5t1 6z" />
    <glyph glyph-name="exclamdown" unicode="&#xa1;" horiz-adv-x="203" 
d="M101 795q-30 0 -45.5 18.5t-15.5 40.5t15.5 40.5t45.5 18.5t45 -18.5t15 -40.5t-15 -40.5t-45 -18.5zM67 43q-5 68 -6.5 142.5t-1.5 140.5q0 23 0.5 79t2 143.5t2.5 158.5q0 32 11 47.5t25 15.5t25.5 -16t13.5 -47q5 -78 10 -164.5t9.5 -173.5t9 -170.5t8.5 -156.5v-2
q0 -19 -15.5 -28t-35.5 -9t-38 10t-20 30z" />
    <glyph glyph-name="cent" unicode="&#xa2;" horiz-adv-x="414" 
d="M289 81q41 0 75.5 27.5t62.5 70t48 95t33 102.5q1 8 11 8q5 0 7.5 -2t2.5 -4t-1 -4q-15 -58 -36.5 -114.5t-52.5 -103t-71.5 -78.5t-93.5 -42v-7l-1 -15q0 -6 -1 -18t-4 -24t-8.5 -21t-14.5 -9q-10 0 -16.5 13t-6.5 36v7q0 9 0.5 17.5t0.5 16.5q-64 3 -101.5 39
t-50.5 80.5t-13 86.5q0 17 4 56t27.5 92t62.5 90.5t90 43.5q5 113 9 234q1 26 9 39t17 13q8 0 13 -9t5 -29q-1 -66 -2.5 -127.5t-3.5 -122.5q38 -7 58 -29t24.5 -40.5t4.5 -30.5q0 -14 -5.5 -33t-22.5 -33q-15 -12 -32 -12q-15 0 -21 7t-6 12q0 6 6 14q7 9 11.5 24t5 23.5
t0.5 9.5q0 14 -5 26.5t-19 17.5q-3 -98 -6.5 -193.5t-6.5 -198.5q4 -1 14 -1zM226 106q3 91 6.5 175.5t7.5 171.5q-14 -17 -25 -44.5t-18.5 -60t-9.5 -59t-2 -43.5t2 -41.5t11.5 -52.5t27.5 -46z" />
    <glyph glyph-name="sterling" unicode="&#xa3;" horiz-adv-x="577" 
d="M379 684q21 42 22 59.5t1 21.5q0 27 -10 46.5t-27.5 30.5t-33.5 11h-2q-29 0 -46 -35.5t-25 -94.5t-11 -133.5t-7 -151.5h14q22 0 46.5 5.5t62.5 35.5q5 3 9 3q8 0 11 -5.5t3 -7.5q0 -6 -8 -12q-22 -17 -41 -27t-35.5 -15.5t-26.5 -6t-15 -0.5q-10 0 -21 1
q-3 -46 -7.5 -90t-12.5 -83t-19.5 -70.5t-28.5 -53.5q45 -1 83 -11t72.5 -21.5t67.5 -21t67 -9.5q35 1 66 13.5t46 41.5q3 5 7 5q5 0 7 -3t2 -5q0 -3 -2 -7q-7 -13 -16.5 -33.5t-23.5 -40t-34.5 -35.5t-49.5 -21q-15 -3 -30 -3q-27 0 -61.5 10t-75.5 26.5t-80 31.5t-74 15
q-23 0 -43 -8.5t-38 -29.5q-4 -4 -9 -4q-9 0 -13 8t-4 12q0 8 6 15q12 14 26 27.5t26 31.5q15 22 23.5 57t13 78.5t7 93.5t3.5 102q-10 2 -19.5 3t-19.5 1q-20 0 -39.5 -10.5t-41.5 -42.5q-4 -6 -9 -6t-7.5 4t-2.5 7t2 6q13 22 25.5 35.5t24.5 21t24.5 10.5t24.5 3
q10 0 19.5 -1t19.5 -3q2 81 7.5 160t22 141.5t47.5 102t85 40.5h4q30 0 57.5 -13.5t43 -41.5t15.5 -69q0 -1 -0.5 -23t-26.5 -78q-2 -5 -8 -5q-5 0 -7.5 3.5t-2.5 6.5q0 2 1 5z" />
    <glyph glyph-name="currency" unicode="&#xa4;" horiz-adv-x="532" 
d="M237 158q-14 -16 -35.5 -37t-42.5 -39q-7 -7 -15 -7l-4.5 0.5t-7.5 5t-3 9.5q0 3 1.5 10t14.5 18q21 18 41 36t32 32q-17 30 -24.5 66.5t-7.5 73.5q0 2 0.5 23t10 60t25.5 70q-12 14 -32 32.5t-41 36.5q-13 11 -14.5 18t-1.5 10q0 5 3 9.5t7.5 5l4.5 0.5q8 0 15 -7
q21 -18 42.5 -39t35.5 -37q18 23 42 37t53 14q30 0 53.5 -13.5t41.5 -37.5q14 16 35.5 37t42.5 39q7 7 15 7l4.5 -0.5t7.5 -5t3 -9.5q0 -3 -1.5 -10t-14.5 -18q-21 -18 -41.5 -37t-32.5 -33q16 -31 23.5 -68.5t7.5 -74.5q0 -2 -0.5 -23t-9 -59t-26.5 -68q12 -14 31.5 -31.5
t40.5 -35.5q13 -11 14.5 -18t1.5 -10q0 -5 -3 -9.5t-7.5 -5l-4.5 -0.5q-8 0 -15 7q-21 18 -42.5 39t-35.5 37q-17 -20 -41 -31.5t-53 -11.5q-30 0 -53 11.5t-40 31.5zM331 130q33 0 54.5 31t32 76t10.5 97q0 2 -0.5 30.5t-11 74.5t-31 77t-49.5 31q-30 0 -51 -31t-33 -77
t-13 -78t-1 -41q0 -44 8.5 -86t29.5 -73t55 -31z" />
    <glyph glyph-name="yen" unicode="&#xa5;" horiz-adv-x="628" 
d="M485 259q12 -1 25 -1q16 0 38.5 2t54.5 10l-4 -40q-32 -8 -50 -8.5t-24 -0.5q-24 0 -47 2q-2 -9 -4 -17.5t-4 -16.5q21 -2 43 -2q11 0 32.5 1t57.5 10l-4 -40q-19 -5 -37.5 -7t-36.5 -2q-17 0 -32.5 1t-31.5 3q-12 -43 -28.5 -78.5t-37.5 -60.5t-43.5 -35.5t-44.5 -10.5
q-8 0 -16 1q-17 2 -28.5 8.5t-14.5 11.5t-3 8t4 7.5t19 5.5q37 3 59.5 45t36.5 110q-15 2 -30 2t-36 -2.5t-49 -15.5l-2 40q31 13 50 13.5t26 0.5q23 0 47 -2q2 8 2.5 16t2.5 17q-24 3 -47 3q-9 0 -29 -1t-50 -15l-2 40q20 8 41 11.5t42 3.5q25 0 50 -3q6 57 8.5 118.5
t5 122.5t4.5 117.5t6 103.5q-7 -27 -15.5 -71.5t-20.5 -95.5t-28.5 -103.5t-39.5 -94.5t-53.5 -68.5t-70.5 -26.5q-36 0 -54.5 21.5t-24.5 52t-6 61.5q0 11 1.5 39t7.5 74.5t14 91t11 78.5q3 27 3 49q0 60 -23 97.5t-74 37.5q-7 0 -10 4.5t-3 8.5q0 1 0.5 4.5t4.5 8.5t11 5
q40 0 74.5 -17.5t58.5 -50.5t33 -72t9 -75q0 -20 -2 -41q-2 -24 -8 -58t-11.5 -71t-9 -68.5t-3.5 -54.5q0 -8 1 -26.5t9.5 -36t26.5 -17.5q19 0 36.5 19.5t33.5 52t30 74t26 87t21.5 90.5t16.5 84t11.5 69t5.5 44q2 16 10 28.5t20 21t26.5 13t27.5 4.5q20 0 33 -9.5
t13 -28.5v-3q-2 -43 -3 -113t-4 -153t-10 -171.5t-21 -169.5z" />
    <glyph glyph-name="brokenbar" unicode="&#xa6;" horiz-adv-x="383" 
d="M217 530q2 62 3.5 110.5t2.5 92.5t2.5 87t3.5 94q1 26 20 39t40 13q17 0 30.5 -9t13.5 -29q-1 -53 -2.5 -98t-3.5 -91t-4.5 -96.5t-5.5 -115.5q-1 -25 -16 -37t-33 -12q-20 0 -35.5 12.5t-15.5 36.5v3zM315 394q-2 -58 -3 -108.5t-1.5 -97t-0.5 -91t1 -91.5v-3
q0 -30 -18.5 -45.5t-40.5 -15.5q-20 0 -36 13.5t-16 39.5v3q2 50 3.5 95.5t3.5 93t5 98.5t6 112q1 16 16 24t32 8q19 0 34 -8.5t15 -24.5v-2z" />
    <glyph glyph-name="section" unicode="&#xa7;" horiz-adv-x="875" 
d="M794 749q-3 -7 -10 -7q-5 0 -8 3.5t-3 5.5t1 4q14 34 14 66q0 9 -3 33t-23.5 53t-50 44t-60.5 15h-8q-30 -1 -51.5 -16t-35 -38t-19 -49t-5.5 -49v-8q3 -53 29.5 -100.5t64.5 -95t81.5 -96t79 -104t55 -113.5t19.5 -119q0 -14 -1 -29q-4 -63 -25 -118.5t-57.5 -98.5
t-87 -71.5t-114.5 -37.5q-38 -57 -96.5 -93.5t-136.5 -40.5h-15q-61 0 -113 23.5t-92.5 67t-66 100.5t-33 105t-7.5 83q0 24 4.5 65t28 88t64 76.5t98.5 32.5h14q42 0 79 -17.5t63.5 -51t36 -70t9.5 -66.5q0 -16 -2 -32q0 -4 -3 -6t-6 -2q-11 0 -11 10v13q0 34 -9 70
t-30.5 66.5t-54 47t-72.5 16.5h-14q-55 -3 -91 -30t-56 -68.5t-22.5 -76t-2.5 -50.5q0 -36 7.5 -81.5t29.5 -96.5t54 -90t71.5 -60t82.5 -21h11q50 3 89.5 30t67.5 68.5t43 92t15 100.5q0 64 -23 120.5t-57.5 108.5t-73.5 101t-70.5 99t-46.5 94.5t-15 83.5q0 17 2 35
q7 51 32.5 92.5t61.5 70t74 42t71 13.5q7 0 14 -1q22 44 60.5 75t92.5 33h9q40 0 77 -17.5t61.5 -51t28 -61t3.5 -37.5q0 -36 -17 -76zM461 839q-57 -14 -92.5 -59t-38.5 -105v-8q0 -49 22.5 -95.5t58.5 -93.5t78 -96.5t77.5 -104.5t55 -113.5t19.5 -118.5q0 -14 -1 -29
q-2 -29 -8 -56t-14 -53q27 21 47.5 49.5t35 62t22 69.5t7.5 71q0 64 -23 120t-57 108t-72.5 102t-69.5 100.5t-45 93.5t-14 80q0 21 4 43q2 9 3.5 17t4.5 16z" />
    <glyph glyph-name="dieresis" unicode="&#xa8;" horiz-adv-x="426" 
d="M363 821q30 0 45 -18.5t15 -40.5t-15 -40.5t-45 -18.5t-45.5 18.5t-15.5 40.5t15.5 40.5t45.5 18.5zM231 821q30 0 45 -18.5t15 -40.5t-15 -40.5t-45 -18.5t-45.5 18.5t-15.5 40.5t15.5 40.5t45.5 18.5z" />
    <glyph glyph-name="copyright" unicode="&#xa9;" horiz-adv-x="848" 
d="M483 84q-83 0 -145 33t-102.5 87t-58 118t-17.5 124q0 10 1.5 50t25.5 107t69.5 118.5t108 78t134.5 26.5q13 0 26 -1q86 -5 147 -40t99 -88t52 -110.5t14 -107.5q0 -18 -3.5 -60.5t-29 -107.5t-70 -115.5t-108 -81t-143.5 -30.5zM473 103h15q68 0 126 26t102 73.5
t69.5 110t29.5 105t4 61.5q0 47 -12.5 101.5t-48.5 106t-94.5 84.5t-140.5 37q-10 1 -21 1q-69 0 -128 -26t-102 -73.5t-66 -110t-25 -101.5t-2 -51q0 -54 15 -112.5t51.5 -110t93.5 -84.5t134 -37zM655 312q-35 -51 -80 -79.5t-104 -28.5q-53 0 -89.5 22.5t-57.5 59
t-26.5 73t-5.5 62.5q0 21 4 55.5t21.5 79.5t45.5 79t60.5 50t63.5 16q11 0 22 -2q41 -6 63 -27.5t27.5 -41.5t5.5 -33t-5.5 -32.5t-22.5 -33.5q-15 -12 -32 -12q-15 0 -21 7t-6 12q0 6 6 14q7 9 11.5 24.5t5 24t0.5 9.5q0 14 -6 27t-20 17q-5 1 -9 1q-13 0 -27.5 -12
t-27.5 -39t-22.5 -63t-12 -65t-2.5 -48q0 -18 2.5 -46t15 -57.5t35 -47t56.5 -17.5q29 1 60 16.5t54 51.5q3 5 8 5q7 0 10 -4.5t3 -8.5t-3 -8z" />
    <glyph glyph-name="ordfeminine" unicode="&#xaa;" horiz-adv-x="505" 
d="M369 663q-7 -30 -15 -68.5t-8.5 -57.5t-0.5 -22q0 -30 8.5 -52.5t33.5 -22.5q17 0 30.5 11.5t24.5 30t19.5 41.5t15 46t11 44.5t7.5 36.5q1 5 6 5l3 -0.5t3 -4.5v-1q-5 -28 -12.5 -68t-22 -76.5t-37 -62t-57.5 -25.5q-23 0 -40 12t-28 32t-17 45.5t-8 52.5
q-17 -40 -34.5 -58t-40.5 -18q-29 0 -51 26t-22 69v4q1 23 8.5 45t21.5 38.5t33.5 26.5t43.5 10q19 -1 31 -7.5t20 -16.5q3 11 12 15.5t20 4.5q17 0 30 -8.5t13 -19.5q0 -4 -1 -7zM284 590q0 18 1 35t4 31q-2 11 -11 19t-20 8q-16 0 -32.5 -21.5t-18.5 -76.5v-16
q0 -23 5.5 -39.5t16.5 -16.5q25 0 55 77z" />
    <glyph glyph-name="guillemotleft" unicode="&#xab;" horiz-adv-x="674" 
d="M644 77q-25 15 -57 34.5t-65 40.5t-64.5 42.5t-56.5 41t-40 35.5t-15 27q0 12 17 36t43.5 54.5t58.5 64t62 63t54 52t34 30.5q13 10 28 10q14 0 26.5 -7.5t18.5 -18t6 -20.5q0 -2 -0.5 -9t-14.5 -18q-12 -9 -31.5 -27t-42 -40.5t-45.5 -47t-41.5 -47t-31 -41.5t-12.5 -29
v-1q0 -15 21.5 -40t52 -52t63 -52.5t52.5 -41.5q14 -11 14 -22q0 -3 -3 -12t-17 -9q-7 0 -14 4zM449 77q-25 15 -57 34.5t-65 40.5t-64.5 42.5t-56.5 41t-40 35.5t-15 27q0 12 17 36t43.5 54.5t58.5 64t62 63t54 52t34 30.5q13 10 28 10q14 0 26.5 -7.5t18.5 -18t6 -20.5
q0 -2 -0.5 -9t-14.5 -18q-12 -9 -31.5 -27t-42 -40.5t-45.5 -47t-41.5 -47t-31 -41.5t-12.5 -29v-1q0 -15 21.5 -40t52 -52t63 -52.5t52.5 -41.5q14 -11 14 -22q0 -3 -3 -12t-17 -9q-7 0 -14 4z" />
    <glyph glyph-name="logicalnot" unicode="&#xac;" horiz-adv-x="572" 
 />
    <glyph glyph-name="registered" unicode="&#xae;" horiz-adv-x="865" 
d="M508 84q-83 0 -145 33t-102.5 87t-58 118t-17.5 124q0 10 1.5 50t25.5 107t69.5 118.5t108 78t134.5 26.5q13 0 26 -1q86 -5 147 -40t99 -88t52 -110.5t14 -107.5q0 -18 -3.5 -60.5t-29 -107.5t-70 -115.5t-108 -81t-143.5 -30.5zM498 103h15q68 0 126 26t102 73.5
t69.5 110t29.5 105t4 61.5q0 47 -12.5 101.5t-48.5 106t-94.5 84.5t-140.5 37q-10 1 -21 1q-69 0 -128 -26t-102 -73.5t-66 -110t-25 -101.5t-2 -51q0 -54 15 -112.5t51.5 -110t93.5 -84.5t134 -37zM660 229q10 0 13.5 -3.5t3.5 -7.5q0 -2 -1.5 -6t-9 -9t-21.5 -6h-4
q-29 0 -47 16t-29.5 42.5t-19 57.5t-17.5 58t-25.5 45.5t-43.5 19.5q-2 -34 -5 -71t-6 -80q-1 -11 -9 -16t-19 -5q-12 0 -21 5.5t-9 13.5v4q3 22 5 54.5t2 71t-2.5 79t-10.5 77t-21 67t-33 48.5q-5 5 -5 11q0 1 0.5 4.5t5.5 8.5t10 6.5t7 1.5q5 0 10 -3q40 -23 62.5 -67.5
t32.5 -104.5q3 35 11.5 72.5t25 68.5t41.5 51t61 20t59.5 -20.5t32 -47.5t8.5 -53q0 -9 -2 -32.5t-20.5 -57.5t-52 -60.5t-82.5 -36.5q28 -9 42.5 -29t22.5 -44.5t11 -50t8 -46.5t13 -33.5t25 -12.5h3zM459 451q8 -1 15 -1q36 0 65.5 18t50 49.5t29 65.5t8.5 61q0 7 -1.5 27
t-14.5 42.5t-38 22.5h-2q-20 0 -36.5 -16t-29 -42.5t-22 -59t-15 -64.5t-7.5 -55.5t-2 -37.5v-10z" />
    <glyph glyph-name="macron" unicode="&#xaf;" horiz-adv-x="538" 
d="M173 706h317q22 0 33.5 -8t11.5 -17t-12 -17t-37 -8h-314q-21 0 -31.5 8t-10.5 17t11 17t32 8z" />
    <glyph glyph-name="degree" unicode="&#xb0;" horiz-adv-x="330" 
d="M224 749q36 -1 59.5 -17t34 -38.5t10.5 -47.5q0 -2 -0.5 -16.5t-14 -37.5t-38.5 -38.5t-62 -15.5t-61 16t-34.5 38t-10.5 46q0 4 1 19.5t14.5 39t38 38t58.5 14.5h5zM213 550q18 0 30 14t19 35t8 36t1 21q0 17 -4 35.5t-14.5 32.5t-27.5 14t-29.5 -14t-19.5 -35
t-8.5 -36.5t-1.5 -22.5q0 -16 4 -34t14.5 -32t28.5 -14z" />
    <glyph glyph-name="plusminus" unicode="&#xb1;" horiz-adv-x="678" 
d="M106 58q139 0 267.5 -0.5t243.5 -0.5q9 0 14 -6t5.5 -10t0.5 -5q0 -7 -5 -13t-15 -6q-115 0 -243.5 0.5t-267.5 0.5q-9 0 -14 6.5t-5 14t4.5 13.5t14.5 6zM396 761v-53q0 -32 -0.5 -71t-1 -84t-0.5 -92h266q7 0 11 -6t4 -13.5t-3.5 -14t-11.5 -6.5q-42 0 -114 -0.5
t-153 -1.5q-1 -86 -2 -163.5t-1 -124.5q0 -9 -6 -13.5t-14 -4.5t-14 4.5t-6 13.5q1 47 1.5 124t1.5 165h-153q-73 0 -121 1q-9 0 -13.5 6.5t-4.5 14t4.5 13.5t13.5 6h123q35 0 73.5 0.5t77.5 1.5q0 46 0.5 90t1 83t1 71.5t0.5 53.5q0 8 6.5 11.5t14.5 3.5q7 0 13 -3.5
t6 -11.5z" />
    <glyph glyph-name="twosuperior" unicode="&#xb2;" horiz-adv-x="382" 
d="M62 727q-5 20 -5 40q0 19 6.5 47.5t29 60t57.5 51.5t77 20q38 0 63.5 -15.5t41 -42t20 -53.5t4.5 -48q0 -14 -2.5 -39t-14 -60t-30.5 -65q-17 -27 -42.5 -54.5t-55 -53t-60 -48t-57.5 -40.5q18 2 36 2q11 0 29.5 -1.5t43.5 -1.5q5 0 23 0.5t47 8.5t54 33q6 6 11 6
q9 0 11 -10.5t2 -14.5q0 -8 -3 -14q-17 -37 -45.5 -50t-62.5 -13q-36 0 -72.5 8.5t-63.5 10.5q-11 1 -22 1q-7 0 -19 -1t-26 -9q-4 -2 -8 -2q-2 0 -5.5 1.5t-5.5 6.5t-2 9q0 3 1 8t7 9q28 20 61.5 46t66.5 55t61 60t45 61q20 35 30.5 78.5t10.5 78.5q0 8 -1.5 33.5t-20 56
t-59.5 31.5h-4q-28 0 -56 -15t-50 -41t-30 -52.5t-8 -45.5q0 -15 3 -30q1 -2 1 -4q0 -4 -2.5 -5t-3.5 -1q-4 0 -6 7z" />
    <glyph glyph-name="threesuperior" unicode="&#xb3;" horiz-adv-x="421" 
d="M304 669q42 -16 65.5 -43t27.5 -48t4 -32q0 -20 -9 -46t-35.5 -51t-66.5 -40t-90 -15h-6q-52 1 -84 15.5t-48 37t-16.5 36.5t-0.5 17q0 23 9 45t27.5 38.5t42.5 19.5h2q4 0 4 -5t-5 -6q-22 -4 -37.5 -19.5t-21 -33t-5.5 -33.5q0 -6 1.5 -20.5t15 -32.5t36.5 -28t51 -10
q8 0 16 1q46 4 76.5 23.5t45.5 47.5t15.5 44t0.5 17q0 30 -13.5 55.5t-39 40t-59.5 14.5h-9h-3q-8 0 -13 4t-5.5 7.5t-0.5 4.5q0 4 2.5 7t6.5 3q2 0 5 -1q11 -2 21 -2q21 0 44.5 10.5t43 33.5t27 48t7.5 44q0 9 -2.5 27t-22 39.5t-56.5 27.5q-14 2 -28 2q-19 0 -47 -6.5
t-55 -28.5t-39.5 -50t-12.5 -55q0 -15 3 -31v-3q0 -4 -2.5 -4.5l-2.5 -0.5q-6 0 -8 6q-4 20 -4 38q0 27 12 57.5t41.5 56t68.5 38t76 12.5q46 0 79.5 -17.5t53 -44.5t23 -49t3.5 -33q0 -21 -8 -46t-33.5 -49t-67.5 -34z" />
    <glyph glyph-name="acute" unicode="&#xb4;" horiz-adv-x="302" 
d="M189 859q14 18 40 18q18 0 36 -9q18 -7 16 -18.5t-16 -25.5q-16 -16 -31 -30t-30.5 -26.5t-33 -25t-39.5 -26.5q-6 -3 -11 -3q-11 0 -16.5 8.5t2.5 18.5q13 21 23.5 37.5t20.5 30t19.5 26t19.5 25.5z" />
    <glyph glyph-name="periodcentered" unicode="&#xb7;" horiz-adv-x="297" 
d="M235 386q30 0 45 -18.5t15 -40.5t-15 -40.5t-45 -18.5t-45.5 18.5t-15.5 40.5t15.5 40.5t45.5 18.5z" />
    <glyph glyph-name="cedilla" unicode="&#xb8;" horiz-adv-x="229" 
d="M159 33q-1 -9 -1.5 -18.5t-1.5 -20.5q14 3 23 3q29 0 40.5 -16.5t11.5 -33.5q0 -4 -1.5 -16t-16 -27.5t-37.5 -15.5h-6q-19 1 -26.5 11.5t-7.5 21.5q0 1 0.5 8t7.5 18.5t16 13.5q2 0 2.5 -1l0.5 -1q0 -1 -2 -2q-7 -3 -11.5 -11t-4.5 -17q0 -1 0.5 -6t6.5 -12.5t18 -8.5h4
q17 0 28 15t11.5 24.5l0.5 9.5q0 17 -11 27.5t-27 10.5q-9 0 -20 -2q-3 -1 -5 -1q-1 0 -1.5 0.5t-0.5 4.5q1 16 1.5 25t1.5 17h7z" />
    <glyph glyph-name="onesuperior" unicode="&#xb9;" horiz-adv-x="294" 
d="M234 911q-2 -80 -4 -143.5t-4 -122t-4 -117.5t-5 -130q0 -7 -5 -10t-13 -3t-17.5 2.5t-17.5 7t-13 9.5t-5 9q8 124 11.5 239.5t8.5 234.5q-12 -19 -24 -50t-27 -61t-33.5 -53.5t-43.5 -27.5h-2q-5 0 -8 4t-3.5 7.5t-0.5 5.5q0 3 1 7t5 4q19 3 37 25t34 50.5t30.5 57
t26.5 42.5q11 14 26.5 20t28.5 6q9 0 15 -3.5t6 -9.5z" />
    <glyph glyph-name="ordmasculine" unicode="&#xba;" horiz-adv-x="331" 
d="M206 691q20 23 49 23t45.5 -21t20.5 -45t4 -42q0 -16 -3.5 -43.5t-18 -59t-38.5 -52t-55 -20.5q-25 0 -42 14t-27 36t-13.5 46.5t-3.5 44.5q0 5 0.5 20.5t5.5 37.5t13 33q11 15 27.5 21.5t29.5 6.5h6zM208 586q23 -61 87 -61q9 26 11.5 48.5t2.5 34.5q0 17 -3.5 38
t-15.5 39.5t-34 18.5t-37 -18q7 -4 7 -10q0 -2 -1 -5q-3 -11 -8 -34.5t-9 -50.5zM204 559q-2 -14 -2 -28q0 -19 5 -42t30 -24h2q16 0 28.5 13t22.5 34q-26 0 -49 12t-37 35z" />
    <glyph glyph-name="guillemotright" unicode="&#xbb;" horiz-adv-x="694" 
d="M196 616q25 -15 57 -34.5t65 -40.5t64.5 -42.5t56.5 -41t40 -35.5t15 -27t-17 -35.5t-43.5 -55t-58.5 -64t-62 -63t-54 -52t-34 -30.5q-13 -10 -28 -10q-14 0 -26.5 7.5t-18.5 17.5t-6 20q0 2 1 9.5t14 18.5q12 10 31.5 27.5t42 40t45.5 47t41.5 47t31 41t12.5 29.5v1
q0 15 -21.5 40t-52 52t-63 52.5t-52.5 41.5q-14 11 -14 22q0 3 3 12t17 9q7 0 14 -4zM400 616q25 -15 57 -34.5t65 -40.5t64.5 -42.5t56.5 -41t40 -35.5t15 -27t-17 -35.5t-43.5 -55t-58.5 -64t-62 -63t-54 -52t-34 -30.5q-13 -10 -28 -10q-14 0 -26.5 7.5t-18.5 17.5t-6 20
q0 2 1 9.5t14 18.5q12 10 31.5 27.5t42 40t45.5 47t41.5 47t30.5 41t13 29.5v1q0 15 -21.5 40t-52 52t-63 52.5t-52.5 41.5q-14 11 -14 22q0 3 3 12t17 9q7 0 14 -4z" />
    <glyph glyph-name="onequarter" unicode="&#xbc;" horiz-adv-x="805" 
d="M649 866q-40 -92 -88.5 -201t-98.5 -221t-98.5 -220.5t-89.5 -200.5q-10 -22 -25.5 -31.5t-31.5 -9.5q-13 0 -25 6t-19.5 16t-8.5 18t-1 11q0 12 6 25q21 46 43.5 95.5t46.5 103.5l199 437q24 54 46.5 103.5t43.5 95.5q8 17 21 23.5t28 6.5q12 0 24 -4.5t20 -12
t9.5 -14.5t1.5 -11q0 -7 -3 -15zM255 881q-2 -80 -4 -143.5t-4 -122t-4 -117.5t-5 -130q0 -7 -5 -10t-13 -3t-17.5 2.5t-17.5 7t-13 9.5t-5 9q8 124 11.5 239.5t8.5 234.5q-12 -19 -24 -50t-27 -61t-33.5 -53.5t-43.5 -27.5h-2q-5 0 -8 4t-3.5 7.5t-0.5 5.5q0 3 1 7t5 4
q19 3 37 25t34 50.5t30.5 57t26.5 42.5q11 14 26.5 20t28.5 6q9 0 15 -3.5t6 -9.5zM744 468v-242q17 -8 29 -21t15 -34v-2q0 -5 -3.5 -5.5l-3.5 -0.5q-6 0 -8 7q-2 14 -10 23t-19 16q0 -50 -0.5 -102t-0.5 -112q0 -8 -6.5 -11.5t-17.5 -3.5q-10 0 -22.5 3t-22.5 7.5
t-16.5 9.5t-6.5 10q2 54 5 106.5t6 105.5q-31 -1 -64.5 -7t-63.5 -14t-53 -16.5t-34 -13.5q-2 -1 -3 -1q-4 0 -7 4.5t-3 7.5t3 6q37 34 71 79.5t59.5 97t38 100.5t12.5 91q0 10 -1 19v2q0 8 7 12t15 4t15.5 -4.5t7.5 -13.5v-15q0 -41 -14.5 -89t-41.5 -98t-62.5 -95
t-71.5 -80q13 4 34.5 10t47 12t54 10.5t55.5 5.5q3 59 5 117t2 118q0 19 10 28t24 9t27 -10.5t13 -29.5z" />
    <glyph glyph-name="onehalf" unicode="&#xbd;" horiz-adv-x="835" 
d="M633 866q-40 -92 -88.5 -201t-98.5 -221t-98.5 -220.5t-89.5 -200.5q-10 -22 -25.5 -31.5t-31.5 -9.5q-13 0 -25 6t-19.5 16t-8.5 18t-1 11q0 12 6 25q21 46 43.5 95.5t46.5 103.5l199 437q24 54 46.5 103.5t43.5 95.5q8 17 21 23.5t28 6.5q12 0 24 -4.5t20 -12
t9.5 -14.5t1.5 -11q0 -7 -3 -15zM236 881q-2 -80 -4 -143.5t-4 -122t-4 -117.5t-5 -130q0 -7 -5 -10t-13 -3t-17.5 2.5t-17.5 7t-13 9.5t-5 9q8 124 11.5 239.5t8.5 234.5q-12 -19 -24 -50t-27 -61t-33.5 -53.5t-43.5 -27.5h-2q-5 0 -8 4t-3.5 7.5t-0.5 5.5q0 3 1 7t5 4
q19 3 37 25t34 50.5t30.5 57t26.5 42.5q11 14 26.5 20t28.5 6q9 0 15 -3.5t6 -9.5zM492 305q-5 20 -5 40q0 19 6.5 47.5t29 60t57.5 51.5t77 20q38 0 63.5 -15.5t41 -42t20 -53.5t4.5 -48q0 -14 -2.5 -39t-14 -60.5t-30.5 -64.5q-17 -27 -42.5 -54.5t-55 -53t-60 -48
t-57.5 -40.5q18 2 36 2q11 0 29.5 -1.5t43.5 -1.5q5 0 23 0.5t47 8.5t54 33q6 6 11 6q9 0 11 -10.5t2 -14.5q0 -8 -3 -14q-17 -37 -45.5 -50t-62.5 -13q-36 0 -72.5 8.5t-63.5 10.5q-11 1 -22 1q-7 0 -19 -1t-26 -9q-4 -2 -8 -2q-2 0 -5.5 1.5t-5.5 6.5t-2 9q0 2 1 7t7 10
q28 20 61.5 46t66.5 55t61 60t45 61q20 35 30.5 78.5t10.5 78.5q0 8 -1.5 33.5t-20 56t-59.5 31.5h-4q-28 0 -56 -15t-50 -41t-30 -52.5t-8 -45.5q0 -15 3 -30q1 -2 1 -4q0 -4 -2.5 -5t-3.5 -1q-4 0 -6 7z" />
    <glyph glyph-name="threequarters" unicode="&#xbe;" horiz-adv-x="912" 
d="M740 866q-40 -92 -88.5 -201t-98.5 -221t-98.5 -220.5t-89.5 -200.5q-10 -22 -25.5 -31.5t-31.5 -9.5q-13 0 -25 6t-19.5 16t-8.5 18t-1 11q0 12 6 25q21 46 43.5 95.5t46.5 103.5l199 437q24 54 46.5 103.5t43.5 95.5q8 17 21 23.5t28 6.5q12 0 24 -4.5t20 -12
t9.5 -14.5t1.5 -11q0 -7 -3 -15zM304 639q42 -16 65.5 -43t27.5 -48t4 -32q0 -20 -9 -46t-35.5 -51t-66.5 -40t-90 -15h-6q-52 1 -84 15.5t-48 37t-16.5 36.5t-0.5 17q0 23 9 45t27.5 38.5t42.5 19.5h2q4 0 4 -5t-5 -6q-22 -4 -37.5 -19.5t-21 -33t-5.5 -33.5
q0 -6 1.5 -20.5t15 -32.5t36.5 -28t51 -10q8 0 16 1q46 4 76.5 23.5t45.5 47.5t15.5 44t0.5 17q0 30 -13.5 55.5t-39 40t-59.5 14.5h-9h-3q-8 0 -13 4t-5.5 7.5t-0.5 4.5q0 4 2.5 7t6.5 3q2 0 5 -1q11 -2 21 -2q21 0 44.5 10.5t43 33.5t27 48t7.5 44q0 9 -2.5 27t-22 39
t-56.5 28q-14 2 -28 2q-19 0 -47 -6.5t-55 -28.5t-39.5 -50t-12.5 -55q0 -15 3 -31v-3q0 -4 -2.5 -4.5l-2.5 -0.5q-6 0 -8 6q-4 20 -4 38q0 27 12 57.5t41.5 56t68.5 38t76 12.5q46 0 79.5 -17.5t53 -44.5t23 -49t3.5 -33q0 -21 -8 -46t-33.5 -49t-67.5 -34zM851 468v-247
q17 -8 27.5 -20.5t13.5 -32.5v-2q0 -5 -3.5 -5.5l-3.5 -0.5q-6 0 -8 7q-4 23 -26 37q0 -48 -0.5 -99t-0.5 -110q0 -8 -6.5 -11.5t-17.5 -3.5q-10 0 -22.5 3t-22.5 7.5t-16.5 9.5t-6.5 10q2 53 5 105t5 104q-31 -1 -65 -7t-64 -14t-53.5 -16.5t-34.5 -13.5q-2 -1 -3 -1
q-4 0 -7 4.5t-3 7.5t3 6q37 34 71 79.5t59.5 97t38 100.5t12.5 91q0 10 -1 19v2q0 8 7 12t15 4t15.5 -4.5t7.5 -13.5v-15q0 -41 -14.5 -89t-41.5 -98t-62.5 -95t-71.5 -80q13 4 34.5 10t47.5 12t54.5 10.5t55.5 5.5q6 117 9 238q0 19 10.5 28t23.5 9q15 0 27.5 -10.5
t12.5 -29.5z" />
    <glyph glyph-name="questiondown" unicode="&#xbf;" horiz-adv-x="642" 
d="M476 782q-30 0 -45 18.5t-15 40.5t15 40.5t45 18.5t45.5 -18.5t15.5 -40.5t-15.5 -40.5t-45.5 -18.5zM626 267v-15q0 -55 -20.5 -103t-57.5 -84t-84 -55.5t-94 -19.5q-41 0 -79 16t-66 49.5t-41.5 80t-13.5 100.5q0 15 1 30q5 75 26 119.5t51.5 73t66 49t67.5 48t57 69.5
t34 113q1 10 11 10q4 0 6.5 -1.5t2.5 -5.5v-2q-3 -71 -19.5 -120t-38.5 -86t-48 -66.5t-48.5 -59.5t-39.5 -66t-21 -87q-2 -16 -2 -31q0 -32 9.5 -64t30.5 -56.5t49.5 -37t59.5 -12.5q33 0 65.5 13.5t58.5 40.5t42 67t16 92q0 11 10 11q3 0 6 -2.5t3 -7.5z" />
    <glyph glyph-name="Agrave" unicode="&#xc0;" horiz-adv-x="1007" 
d="M439 483q69 -9 136.5 -25t129.5 -26q0 98 1.5 159.5t1.5 90.5q0 57 -3.5 117.5t-17.5 104.5t-46 44q-29 0 -56.5 -38.5t-53 -102.5t-49 -148t-43.5 -176zM382 488q24 104 54.5 199.5t68.5 169t84 117.5t102 44q41 0 68 -24.5t43 -66.5t23.5 -99.5t8.5 -102.5t1 -70
q0 -43 -2 -101t-5 -129q40 5 71.5 24t52.5 61q3 7 10 7q5 0 7.5 -3t2.5 -6q0 -2 -1 -5q-26 -52 -62.5 -77.5t-81.5 -33.5q-1 -22 -3.5 -61.5t-3 -66.5t-0.5 -33q0 -41 3 -86.5t14 -85.5t31 -66t54 -26q31 0 54.5 21.5t42 56t31.5 79t22.5 90t16.5 88t12 74.5q1 5 4 6.5
t6 1.5q5 0 7.5 -2t2.5 -6v-2q-7 -37 -15 -87.5t-19.5 -104.5t-28.5 -107t-42 -94.5t-58.5 -66.5t-76.5 -25h-3q-47 1 -78 29t-50 72.5t-28 100t-13 110.5t-4 188q-65 8 -134 24.5t-141 25.5q-18 -87 -34 -174t-28 -163.5t-21 -138t-14 -98.5q-2 -16 -11.5 -23t-20.5 -7
q-13 0 -22 8t-9 18v4q8 42 18 105t22 139.5t27.5 162t34.5 171.5q-14 1 -27 1q-30 0 -67 -4t-78.5 -19.5t-80 -43.5t-73.5 -72q-4 -5 -10 -5q-5 0 -7.5 3.5t-2.5 5.5q0 3 2 6q36 55 77.5 90t86.5 54.5t85 24.5t72 5q17 0 33 -1zM664 1232q11 -13 20 -25.5t19 -26t20.5 -30
t23.5 -37.5q8 -10 2.5 -18.5t-16.5 -8.5q-5 0 -11 3q-43 27 -72.5 51.5t-61.5 56.5q-14 14 -16 25.5t16 18.5q18 9 36 9q12 0 22.5 -4.5t17.5 -13.5z" />
    <glyph glyph-name="Aacute" unicode="&#xc1;" horiz-adv-x="1007" 
d="M439 483q69 -9 136.5 -25t129.5 -26q0 98 1.5 159.5t1.5 90.5q0 57 -3.5 117.5t-17.5 104.5t-46 44q-29 0 -56.5 -38.5t-53 -102.5t-49 -148t-43.5 -176zM382 488q24 104 54.5 199.5t68.5 169t84 117.5t102 44q41 0 68 -24.5t43 -66.5t23.5 -99.5t8.5 -102.5t1 -70
q0 -43 -2 -101t-5 -129q40 5 71.5 24t52.5 61q3 7 10 7q5 0 7.5 -3t2.5 -6q0 -2 -1 -5q-26 -52 -62.5 -77.5t-81.5 -33.5q-1 -22 -3.5 -61.5t-3 -66.5t-0.5 -33q0 -41 3 -86.5t14 -85.5t31 -66t54 -26q31 0 54.5 21.5t42 56t31.5 79t22.5 90t16.5 88t12 74.5q1 5 4 6.5
t6 1.5q5 0 7.5 -2t2.5 -6v-2q-7 -37 -15 -87.5t-19.5 -104.5t-28.5 -107t-42 -94.5t-58.5 -66.5t-76.5 -25h-3q-47 1 -78 29t-50 72.5t-28 100t-13 110.5t-4 188q-65 8 -134 24.5t-141 25.5q-18 -87 -34 -174t-28 -163.5t-21 -138t-14 -98.5q-2 -16 -11.5 -23t-20.5 -7
q-13 0 -22 8t-9 18v4q8 42 18 105t22 139.5t27.5 162t34.5 171.5q-14 1 -27 1q-30 0 -67 -4t-78.5 -19.5t-80 -43.5t-73.5 -72q-4 -5 -10 -5q-5 0 -7.5 3.5t-2.5 5.5q0 3 2 6q36 55 77.5 90t86.5 54.5t85 24.5t72 5q17 0 33 -1zM741 1232q14 18 40 18q18 0 36 -9
q18 -7 16 -18.5t-16 -25.5q-16 -16 -31 -30t-30.5 -26.5t-33 -25t-39.5 -26.5q-6 -3 -11 -3q-11 0 -16.5 8.5t2.5 18.5q13 21 23.5 37.5t20.5 30t19.5 26t19.5 25.5z" />
    <glyph glyph-name="Acircumflex" unicode="&#xc2;" horiz-adv-x="1007" 
d="M439 483q69 -9 136.5 -25t129.5 -26q0 98 1.5 159.5t1.5 90.5q0 57 -3.5 117.5t-17.5 104.5t-46 44q-29 0 -56.5 -38.5t-53 -102.5t-49 -148t-43.5 -176zM382 488q24 104 54.5 199.5t68.5 169t84 117.5t102 44q41 0 68 -24.5t43 -66.5t23.5 -99.5t8.5 -102.5t1 -70
q0 -43 -2 -101t-5 -129q40 5 71.5 24t52.5 61q3 7 10 7q5 0 7.5 -3t2.5 -6q0 -2 -1 -5q-26 -52 -62.5 -77.5t-81.5 -33.5q-1 -22 -3.5 -61.5t-3 -66.5t-0.5 -33q0 -41 3 -86.5t14 -85.5t31 -66t54 -26q31 0 54.5 21.5t42 56t31.5 79t22.5 90t16.5 88t12 74.5q1 5 4 6.5
t6 1.5q5 0 7.5 -2t2.5 -6v-2q-7 -37 -15 -87.5t-19.5 -104.5t-28.5 -107t-42 -94.5t-58.5 -66.5t-76.5 -25h-3q-47 1 -78 29t-50 72.5t-28 100t-13 110.5t-4 188q-65 8 -134 24.5t-141 25.5q-18 -87 -34 -174t-28 -163.5t-21 -138t-14 -98.5q-2 -16 -11.5 -23t-20.5 -7
q-13 0 -22 8t-9 18v4q8 42 18 105t22 139.5t27.5 162t34.5 171.5q-14 1 -27 1q-30 0 -67 -4t-78.5 -19.5t-80 -43.5t-73.5 -72q-4 -5 -10 -5q-5 0 -7.5 3.5t-2.5 5.5q0 3 2 6q36 55 77.5 90t86.5 54.5t85 24.5t72 5q17 0 33 -1zM809 1113q2 -4 2 -8q0 -2 -1.5 -5t-5.5 -3h-1
q-6 0 -10 6q-10 11 -23 27t-23.5 26.5t-17 15.5t-13.5 5q-8 -1 -18.5 -15t-29 -37t-25.5 -31q-5 -6 -13 -7q-7 0 -32 5t-27 11t-2 9q0 8 7 18q3 5 12 16.5t26.5 32.5t31.5 35.5t27 25.5t21 11h1q11 0 25.5 -13.5t30.5 -34t31.5 -45t26.5 -45.5z" />
    <glyph glyph-name="Atilde" unicode="&#xc3;" horiz-adv-x="1007" 
d="M439 483q69 -9 136.5 -25t129.5 -26q0 98 1.5 159.5t1.5 90.5q0 57 -3.5 117.5t-17.5 104.5t-46 44q-29 0 -56.5 -38.5t-53 -102.5t-49 -148t-43.5 -176zM382 488q24 104 54.5 199.5t68.5 169t84 117.5t102 44q41 0 68 -24.5t43 -66.5t23.5 -99.5t8.5 -102.5t1 -70
q0 -43 -2 -101t-5 -129q40 5 71.5 24t52.5 61q3 7 10 7q5 0 7.5 -3t2.5 -6q0 -2 -1 -5q-26 -52 -62.5 -77.5t-81.5 -33.5q-1 -22 -3.5 -61.5t-3 -66.5t-0.5 -33q0 -41 3 -86.5t14 -85.5t31 -66t54 -26q31 0 54.5 21.5t42 56t31.5 79t22.5 90t16.5 88t12 74.5q1 5 4 6.5
t6 1.5q5 0 7.5 -2t2.5 -6v-2q-7 -37 -15 -87.5t-19.5 -104.5t-28.5 -107t-42 -94.5t-58.5 -66.5t-76.5 -25h-3q-47 1 -78 29t-50 72.5t-28 100t-13 110.5t-4 188q-65 8 -134 24.5t-141 25.5q-18 -87 -34 -174t-28 -163.5t-21 -138t-14 -98.5q-2 -16 -11.5 -23t-20.5 -7
q-13 0 -22 8t-9 18v4q8 42 18 105t22 139.5t27.5 162t34.5 171.5q-14 1 -27 1q-30 0 -67 -4t-78.5 -19.5t-80 -43.5t-73.5 -72q-4 -5 -10 -5q-5 0 -7.5 3.5t-2.5 5.5q0 3 2 6q36 55 77.5 90t86.5 54.5t85 24.5t72 5q17 0 33 -1zM818 1207q1 2 4 4q2 0 4 -1t1 -5
q-2 -24 -11 -45t-21 -37t-26 -25t-26 -8q-17 2 -31.5 10t-27 18.5t-23 21.5t-20.5 18q-5 4 -13 6.5t-16 2.5q-13 0 -24.5 -10.5t-13.5 -42.5q0 -6 -6 -6t-6 8q2 26 11.5 46.5t22.5 34t28.5 19.5t29.5 3q12 -2 25.5 -9t26.5 -16.5l26 -19t25 -16.5q7 -4 15 -4q14 0 26.5 13.5
t19.5 39.5z" />
    <glyph glyph-name="Adieresis" unicode="&#xc4;" horiz-adv-x="1118" 
d="M885 1212q30 0 45 -18.5t15 -40.5t-15 -40.5t-45 -18.5t-45.5 18.5t-15.5 40.5t15.5 40.5t45.5 18.5zM753 1212q30 0 45 -18.5t15 -40.5t-15 -40.5t-45 -18.5t-45.5 18.5t-15.5 40.5t15.5 40.5t45.5 18.5zM493 488q24 104 54.5 199.5t68.5 169t84 117.5t102 44
q41 0 68 -24.5t43 -66.5t23.5 -99.5t8.5 -102.5t1 -70q0 -43 -2 -101t-5 -129q40 5 71.5 24t52.5 61q3 7 10 7q5 0 7.5 -3t2.5 -6q0 -2 -1 -5q-26 -52 -62.5 -77.5t-81.5 -33.5q-2 -64 -2.5 -98.5t-0.5 -42.5q0 -50 3 -94q3 -42 9.5 -77t18 -60t29 -39t42.5 -14
q32 0 56.5 21.5t43 57t31 80.5t21 90.5t14 88t9.5 72.5q0 5 3.5 7t7.5 2q5 0 7.5 -2t2.5 -6v-2q-5 -36 -12 -86t-18 -104.5t-27 -108t-41 -95.5t-58.5 -67.5t-77.5 -25.5h-3q-39 1 -67 20.5t-48 53.5t-32.5 80.5t-19.5 101.5q-7 56 -9.5 117.5t-3.5 126.5q-65 8 -134 24.5
t-141 25.5q-18 -87 -34 -174t-28 -163.5t-21 -138t-14 -98.5q-2 -16 -11.5 -23t-20.5 -7q-13 0 -22 8t-9 18v4q8 42 18 105t22 139.5t27.5 162t34.5 171.5q-14 1 -27 1q-30 0 -67 -4t-78.5 -19.5t-80 -43.5t-73.5 -72q-4 -5 -10 -5q-5 0 -7.5 3.5t-2.5 5.5q0 3 2 6
q36 55 77.5 90t86.5 54.5t85 24.5t72 5q17 0 33 -1zM550 483q69 -9 136.5 -25t129.5 -26q0 98 1.5 159.5t1.5 90.5q0 57 -3.5 117.5t-17.5 104.5t-46 44q-29 0 -56.5 -38.5t-53 -102.5t-49 -148t-43.5 -176z" />
    <glyph glyph-name="Aring" unicode="&#xc5;" horiz-adv-x="1118" 
d="M821 1280q36 -1 59.5 -17t34 -38.5t10.5 -47.5q0 -2 -0.5 -16.5t-14 -37.5t-38.5 -38.5t-62 -15.5t-61 16t-34.5 38t-10.5 46q0 4 1 19.5t14.5 39t38 38t58.5 14.5h5zM810 1081q18 0 30 14t19 35t8 36t1 21q0 17 -4 35.5t-14.5 32.5t-27.5 14t-29.5 -14t-19.5 -35
t-8.5 -36.5t-1.5 -22.5q0 -16 4 -34t14.5 -32t28.5 -14zM493 488q24 104 54.5 199.5t68.5 169t84 117.5t102 44q41 0 68 -24.5t43 -66.5t23.5 -99.5t8.5 -102.5t1 -70q0 -43 -2 -101t-5 -129q40 5 71.5 24t52.5 61q3 7 10 7q5 0 7.5 -3t2.5 -6q0 -2 -1 -5
q-26 -52 -62.5 -77.5t-81.5 -33.5q-2 -64 -2.5 -98.5t-0.5 -42.5q0 -50 3 -94q3 -42 9.5 -77t18 -60t29 -39t42.5 -14q32 0 56.5 21.5t43 57t31 80.5t21 90.5t14 88t9.5 72.5q0 5 3.5 7t7.5 2q5 0 7.5 -2t2.5 -6v-2q-5 -36 -12 -86t-18 -104.5t-27 -108t-41 -95.5
t-58.5 -67.5t-77.5 -25.5h-3q-39 1 -67 20.5t-48 53.5t-32.5 80.5t-19.5 101.5q-7 56 -9.5 117.5t-3.5 126.5q-65 8 -134 24.5t-141 25.5q-18 -87 -34 -174t-28 -163.5t-21 -138t-14 -98.5q-2 -16 -11.5 -23t-20.5 -7q-13 0 -22 8t-9 18v4q8 42 18 105t22 139.5t27.5 162
t34.5 171.5q-14 1 -27 1q-30 0 -67 -4t-78.5 -19.5t-80 -43.5t-73.5 -72q-4 -5 -10 -5q-5 0 -7.5 3.5t-2.5 5.5q0 3 2 6q36 55 77.5 90t86.5 54.5t85 24.5t72 5q17 0 33 -1zM550 483q69 -9 136.5 -25t129.5 -26q0 98 1.5 159.5t1.5 90.5q0 57 -3.5 117.5t-17.5 104.5t-46 44
q-29 0 -56.5 -38.5t-53 -102.5t-49 -148t-43.5 -176z" />
    <glyph glyph-name="AE" unicode="&#xc6;" horiz-adv-x="1559" 
d="M1500 756q-21 -31 -55 -43t-76 -12q-37 0 -77.5 6.5t-82.5 15.5q1 -46 10.5 -87t31 -71.5t56.5 -50t87 -24.5q6 -1 6.5 -4.5t0.5 -4.5q0 -6 -7 -8q-40 -11 -81.5 -25.5t-73.5 -34.5q-47 -29 -73.5 -73t-33 -80.5t-6.5 -60.5q0 -25 7 -62.5t31 -77t63 -65t90 -26.5h5
q40 0 77.5 16t71 46t62.5 70t52 85.5t40 94.5t28 96q1 8 11 8q4 0 6.5 -2t2.5 -6v-2q-19 -90 -56 -173.5t-91 -148t-123.5 -103t-152.5 -38.5q-79 0 -131.5 33.5t-80.5 86.5q-13 -31 -29 -57t-36 -45t-44.5 -29.5t-53.5 -10.5q-39 1 -67 20.5t-48 53.5t-32.5 80.5
t-19.5 101.5q-8 63 -10.5 133.5t-2.5 143.5q-33 2 -71 2q-28 0 -79.5 -2t-130.5 -11q-17 -84 -31.5 -166.5t-26 -155t-20 -131t-13.5 -93.5q-2 -16 -11.5 -23t-20.5 -7q-13 0 -22 8t-9 18v4q8 39 17 97.5t20 129.5t25 150.5t31 160.5q-78 -12 -157.5 -30t-153 -43
t-137.5 -57.5t-111 -71.5q-2 -2 -5 -2q-1 0 -3.5 0.5t-5 3.5t-3 5l-0.5 2q0 3 3 6q49 43 115.5 77t142.5 60t157.5 44t162.5 29q24 112 55 218.5t70.5 189.5t88.5 133.5t109 50.5q38 0 63.5 -20.5t42 -57t25 -86t11.5 -108.5q28 20 62.5 31t74.5 11h13q25 -1 53.5 -5
t59.5 -10q3 61 29 107t65 76.5t85 46t88 15.5q62 0 100.5 -29t55 -67.5t16.5 -77.5q0 -5 -1.5 -30.5t-23.5 -57.5zM1210 747q42 -8 81 -14t74 -6q40 0 70.5 10t47.5 35q16 24 16 56q0 2 -0.5 20.5t-16.5 49.5t-44 50.5t-64 19.5h-10q-41 -3 -70.5 -24.5t-48 -53.5t-27 -70
t-8.5 -73zM419 434q78 8 124.5 9.5t68.5 1.5q44 0 83 -3q1 96 2 153t1 79q0 65 -4 127t-18 104.5t-45 42.5t-60.5 -43.5t-56 -115t-50.5 -164t-45 -191.5zM818 417q-3 -71 -3.5 -110.5t-0.5 -52.5q0 -51 3 -97q3 -42 9.5 -77t18 -60t29 -39t42.5 -14q36 0 62.5 27t45.5 69
q-16 46 -16 97q0 6 1 38t22.5 86.5t63.5 101t104 74.5q20 9 41.5 15t42.5 11q-38 14 -73 38.5t-62 59t-43.5 76.5t-18.5 90q-54 10 -100 12h-6q-50 0 -89.5 -16t-66.5 -42q1 -28 1 -58q0 -29 -1.5 -75t-3.5 -108q26 -18 64 -18q44 1 67 24t26.5 42t3.5 28q0 19 -9.5 41.5
t-33.5 30.5q-4 2 -5 5t-1 5q0 1 0.5 3.5t2.5 4.5t5 2h2q25 -6 39 -24t17 -35t3 -27q0 -14 -4.5 -34.5t-20 -42t-40.5 -36t-60 -15.5q-35 0 -58 11v-4h1z" />
    <glyph glyph-name="Ccedilla" unicode="&#xc7;" horiz-adv-x="758" 
d="M513 1017q63 0 108 -25.5t73 -68t38.5 -92t10.5 -96.5q0 -11 -1.5 -45t-18.5 -91.5t-46 -105.5t-70 -82.5t-93 -46.5h-2q-3 0 -5.5 2t-3 4.5t-0.5 3.5q0 3 2 6.5t7 4.5q67 16 109.5 62.5t62 106.5t19.5 124q0 3 -0.5 38.5t-21 94t-60.5 99.5t-97 49q-12 2 -23 2
q-38 0 -76 -21t-73 -66t-60.5 -107.5t-41.5 -134.5t-19.5 -127t-3.5 -87q0 -43 5 -100.5t24 -123.5t51.5 -115.5t79 -79.5t107.5 -31h5q46 0 88 16.5t79.5 47t68 71t54.5 86.5t39.5 94t23.5 94q2 9 11 9q4 0 6.5 -2t2.5 -6v-2q-13 -88 -50 -171.5t-95 -149t-134.5 -105
t-169.5 -39.5h-16q-1 -8 -1.5 -16.5t-1.5 -19.5q14 3 23 3q29 0 40.5 -16.5t11.5 -33.5q0 -4 -1.5 -16t-16 -27.5t-37.5 -15.5h-6q-19 1 -26.5 11.5t-7.5 21.5q0 1 0.5 8t7.5 18.5t16 13.5q2 0 2.5 -1l0.5 -1q0 -1 -2 -2q-7 -3 -11.5 -11t-4.5 -17q0 -1 0.5 -6t6.5 -12.5
t18 -8.5h4q17 0 28 15t11.5 24.5l0.5 9.5q0 17 -11 27.5t-27 10.5q-9 0 -20 -2q-3 -1 -5 -1q-1 0 -1.5 0.5t-0.5 4.5q1 15 1.5 23.5t1.5 16.5q-77 5 -134.5 38.5t-95.5 88.5t-59 126t-23.5 121t-2.5 71q0 59 9.5 131t34 150t62 147t86.5 120.5t108.5 81.5t127.5 30z" />
    <glyph glyph-name="Egrave" unicode="&#xc8;" horiz-adv-x="824" 
d="M765 756q-21 -31 -55 -43t-76 -12q-37 0 -77.5 6.5t-82.5 15.5q1 -46 10.5 -87t31 -71.5t56.5 -50t87 -24.5q6 -1 6.5 -4.5t0.5 -4.5q0 -6 -7 -8q-40 -11 -81.5 -25.5t-73.5 -34.5q-47 -29 -73.5 -73t-33 -80.5t-6.5 -60.5q0 -25 7 -62.5t31 -77t62.5 -65t89.5 -26.5h5
q40 0 79 16.5t74 47t64.5 71t52.5 86.5t38.5 94t23.5 94q2 9 11 9q4 0 6.5 -2t2.5 -6v-2q-13 -88 -50 -171.5t-92 -149t-127 -105t-156 -39.5q-76 0 -128 32.5t-80 83t-30.5 87.5t-2.5 47q0 52 18.5 108t62 108.5t111.5 82.5q20 9 41.5 15t42.5 11q-38 14 -73 38.5t-62 59
t-43.5 76.5t-18.5 90q-54 11 -100 12h-5q-63 0 -107 -22.5t-70 -58t-31 -64.5t-5 -45q0 -23 8.5 -51.5t36 -52t68.5 -23.5h3q44 1 67 24t26.5 42t3.5 28q0 19 -9.5 41.5t-33.5 30.5q-4 2 -5 5t-1 5q0 1 0.5 3.5t2.5 4.5t5 2h2q25 -6 39 -24t17 -35t3 -27q0 -14 -4.5 -34.5
t-20 -42t-40.5 -36t-60 -15.5h-3q-48 0 -80 27t-43.5 62t-11.5 67q0 15 4.5 47.5t32 74t75.5 67.5t113 26h10q25 -1 53.5 -5t59.5 -10q3 61 29 107t65 76.5t85 46t88 15.5q62 0 100.5 -29t54.5 -67t16 -76q0 -6 -1.5 -32t-22.5 -58zM475 747q42 -8 81 -14t74 -6
q40 0 70.5 10t47.5 35q16 24 16 56q0 2 -0.5 20.5t-16.5 49.5t-44 50.5t-64 19.5h-10q-41 -3 -70.5 -24.5t-48 -53.5t-27 -70t-8.5 -73zM594 1242q11 -13 20 -25.5t19 -26t20.5 -30t23.5 -37.5q8 -10 2.5 -18.5t-16.5 -8.5q-5 0 -11 3q-43 27 -72.5 51.5t-61.5 56.5
q-14 14 -16 25.5t16 18.5q18 9 36 9q12 0 22.5 -4.5t17.5 -13.5z" />
    <glyph glyph-name="Eacute" unicode="&#xc9;" horiz-adv-x="824" 
d="M765 756q-21 -31 -55 -43t-76 -12q-37 0 -77.5 6.5t-82.5 15.5q1 -46 10.5 -87t31 -71.5t56.5 -50t87 -24.5q6 -1 6.5 -4.5t0.5 -4.5q0 -6 -7 -8q-40 -11 -81.5 -25.5t-73.5 -34.5q-47 -29 -73.5 -73t-33 -80.5t-6.5 -60.5q0 -25 7 -62.5t31 -77t62.5 -65t89.5 -26.5h5
q40 0 79 16.5t74 47t64.5 71t52.5 86.5t38.5 94t23.5 94q2 9 11 9q4 0 6.5 -2t2.5 -6v-2q-13 -88 -50 -171.5t-92 -149t-127 -105t-156 -39.5q-76 0 -128 32.5t-80 83t-30.5 87.5t-2.5 47q0 52 18.5 108t62 108.5t111.5 82.5q20 9 41.5 15t42.5 11q-38 14 -73 38.5t-62 59
t-43.5 76.5t-18.5 90q-54 11 -100 12h-5q-63 0 -107 -22.5t-70 -58t-31 -64.5t-5 -45q0 -23 8.5 -51.5t36 -52t68.5 -23.5h3q44 1 67 24t26.5 42t3.5 28q0 19 -9.5 41.5t-33.5 30.5q-4 2 -5 5t-1 5q0 1 0.5 3.5t2.5 4.5t5 2h2q25 -6 39 -24t17 -35t3 -27q0 -14 -4.5 -34.5
t-20 -42t-40.5 -36t-60 -15.5h-3q-48 0 -80 27t-43.5 62t-11.5 67q0 15 4.5 47.5t32 74t75.5 67.5t113 26h10q25 -1 53.5 -5t59.5 -10q3 61 29 107t65 76.5t85 46t88 15.5q62 0 100.5 -29t54.5 -67t16 -76q0 -6 -1.5 -32t-22.5 -58zM475 747q42 -8 81 -14t74 -6
q40 0 70.5 10t47.5 35q16 24 16 56q0 2 -0.5 20.5t-16.5 49.5t-44 50.5t-64 19.5h-10q-41 -3 -70.5 -24.5t-48 -53.5t-27 -70t-8.5 -73zM671 1242q14 18 40 18q18 0 36 -9q18 -7 16 -18.5t-16 -25.5q-16 -16 -31 -30t-30.5 -26.5t-33 -25t-39.5 -26.5q-6 -3 -11 -3
q-11 0 -16.5 8.5t2.5 18.5q13 21 23.5 37.5t20.5 30t19.5 26t19.5 25.5z" />
    <glyph glyph-name="Ecircumflex" unicode="&#xca;" horiz-adv-x="824" 
d="M765 756q-21 -31 -55 -43t-76 -12q-37 0 -77.5 6.5t-82.5 15.5q1 -46 10.5 -87t31 -71.5t56.5 -50t87 -24.5q6 -1 6.5 -4.5t0.5 -4.5q0 -6 -7 -8q-40 -11 -81.5 -25.5t-73.5 -34.5q-47 -29 -73.5 -73t-33 -80.5t-6.5 -60.5q0 -25 7 -62.5t31 -77t62.5 -65t89.5 -26.5h5
q40 0 79 16.5t74 47t64.5 71t52.5 86.5t38.5 94t23.5 94q2 9 11 9q4 0 6.5 -2t2.5 -6v-2q-13 -88 -50 -171.5t-92 -149t-127 -105t-156 -39.5q-76 0 -128 32.5t-80 83t-30.5 87.5t-2.5 47q0 52 18.5 108t62 108.5t111.5 82.5q20 9 41.5 15t42.5 11q-38 14 -73 38.5t-62 59
t-43.5 76.5t-18.5 90q-54 11 -100 12h-5q-63 0 -107 -22.5t-70 -58t-31 -64.5t-5 -45q0 -23 8.5 -51.5t36 -52t68.5 -23.5h3q44 1 67 24t26.5 42t3.5 28q0 19 -9.5 41.5t-33.5 30.5q-4 2 -5 5t-1 5q0 1 0.5 3.5t2.5 4.5t5 2h2q25 -6 39 -24t17 -35t3 -27q0 -14 -4.5 -34.5
t-20 -42t-40.5 -36t-60 -15.5h-3q-48 0 -80 27t-43.5 62t-11.5 67q0 15 4.5 47.5t32 74t75.5 67.5t113 26h10q25 -1 53.5 -5t59.5 -10q3 61 29 107t65 76.5t85 46t88 15.5q62 0 100.5 -29t54.5 -67t16 -76q0 -6 -1.5 -32t-22.5 -58zM475 747q42 -8 81 -14t74 -6
q40 0 70.5 10t47.5 35q16 24 16 56q0 2 -0.5 20.5t-16.5 49.5t-44 50.5t-64 19.5h-10q-41 -3 -70.5 -24.5t-48 -53.5t-27 -70t-8.5 -73zM739 1123q2 -4 2 -8q0 -2 -1.5 -5t-5.5 -3h-1q-6 0 -10 6q-10 11 -23 27t-23.5 26.5t-17 15.5t-13.5 5q-8 -1 -18.5 -15t-29 -37
t-25.5 -31q-5 -6 -13 -7q-7 0 -32 5t-27 11t-2 9q0 8 7 18q3 5 12 16.5t26.5 32.5t31.5 35.5t27 25.5t21 11h1q11 0 25.5 -13.5t30.5 -34t31.5 -45t26.5 -45.5z" />
    <glyph glyph-name="Edieresis" unicode="&#xcb;" horiz-adv-x="831" 
d="M679 1212q30 0 45 -18.5t15 -40.5t-15 -40.5t-45 -18.5t-45.5 18.5t-15.5 40.5t15.5 40.5t45.5 18.5zM547 1212q30 0 45 -18.5t15 -40.5t-15 -40.5t-45 -18.5t-45.5 18.5t-15.5 40.5t15.5 40.5t45.5 18.5zM772 756q-21 -31 -55 -43t-76 -12q-37 0 -77.5 6.5t-82.5 15.5
q1 -46 10.5 -87t31 -71.5t56.5 -50t87 -24.5q6 -1 6.5 -4.5t0.5 -4.5q0 -6 -7 -8q-40 -11 -81.5 -25.5t-73.5 -34.5q-47 -29 -73.5 -73t-33 -80.5t-6.5 -60.5q0 -25 7 -62.5t31 -77t62.5 -65t89.5 -26.5h5q40 0 79 16.5t74 47t64.5 71t52.5 86.5t38.5 94t23.5 94q2 9 11 9
q4 0 6.5 -2t2.5 -6v-2q-13 -88 -50 -171.5t-92 -149t-127 -105t-156 -39.5q-76 0 -128 32.5t-80 83t-30.5 87.5t-2.5 47q0 52 18.5 108t62 108.5t111.5 82.5q20 9 41.5 15t42.5 11q-38 14 -73 38.5t-62 59t-43.5 76.5t-18.5 90q-54 11 -100 12h-5q-63 0 -107 -22.5t-70 -58
t-31 -64.5t-5 -45q0 -23 8.5 -51.5t36 -52t68.5 -23.5h3q44 1 67 24t26.5 42t3.5 28q0 19 -9.5 41.5t-33.5 30.5q-4 2 -5 5t-1 5q0 1 0.5 3.5t2.5 4.5t5 2h2q25 -6 39 -24t17 -35t3 -27q0 -14 -4.5 -34.5t-20 -42t-40.5 -36t-60 -15.5h-3q-48 0 -80 27t-43.5 62t-11.5 67
q0 15 4.5 47.5t32 74t75.5 67.5t113 26h10q25 -1 53.5 -5t59.5 -10q3 61 29 107t65 76.5t85 46t88 15.5q62 0 100.5 -29t54.5 -67t16 -76q0 -6 -1.5 -32t-22.5 -58zM482 747q42 -8 81 -14t74 -6q40 0 70.5 10t47.5 35q16 24 16 56q0 2 -0.5 20.5t-16.5 49.5t-44 50.5
t-64 19.5h-10q-41 -3 -70.5 -24.5t-48 -53.5t-27 -70t-8.5 -73z" />
    <glyph glyph-name="Igrave" unicode="&#xcc;" horiz-adv-x="659" 
d="M574 -89q24 -1 50 -2t55 -2q6 0 8.5 -4.5t2.5 -9t-3 -8.5t-8 -4q-48 1 -88.5 3t-80 3.5t-83 3.5t-98.5 4q-6 0 -8 4t-2 8q0 1 0.5 4t3.5 6.5t8 3.5q42 -2 76 -3.5t66 -3.5q7 43 16.5 111t18 151t13.5 162t5 144q0 24 -1.5 80.5t-13 137.5t-36.5 142.5t-65.5 98
t-101.5 37.5q-51 0 -93.5 -25.5t-74.5 -67t-52.5 -95t-26.5 -96.5t-6 -72q0 -26 5 -65t27 -80.5t60.5 -66.5t92.5 -25h4q48 0 85 18.5t60 48t28 56t5 40.5q0 24 -7 48q-1 3 -1 5q0 4 2.5 7t7.5 3q8 0 11 -9q9 -29 9 -56q0 -17 -6.5 -47t-34 -62.5t-69.5 -52.5t-92 -20h-4
q-58 0 -100.5 27.5t-67.5 73t-31 89.5t-6 73q0 31 6.5 77t31 105t64 105.5t94 74.5t122.5 28q77 0 130.5 -36t88.5 -97.5t53 -143t22 -150.5t4 -117q0 -44 -3.5 -114t-14.5 -157.5t-26.5 -163t-30.5 -127.5zM383 1242q11 -13 20 -25.5t19 -26t20.5 -30t23.5 -37.5
q8 -10 2.5 -18.5t-16.5 -8.5q-5 0 -11 3q-43 27 -72.5 51.5t-61.5 56.5q-14 14 -16 25.5t16 18.5q18 9 36 9q12 0 22.5 -4.5t17.5 -13.5z" />
    <glyph glyph-name="Iacute" unicode="&#xcd;" horiz-adv-x="659" 
d="M574 -89q24 -1 50 -2t55 -2q6 0 8.5 -4.5t2.5 -9t-3 -8.5t-8 -4q-48 1 -88.5 3t-80 3.5t-83 3.5t-98.5 4q-6 0 -8 4t-2 8q0 1 0.5 4t3.5 6.5t8 3.5q42 -2 76 -3.5t66 -3.5q7 43 16.5 111t18 151t13.5 162t5 144q0 24 -1.5 80.5t-13 137.5t-36.5 142.5t-65.5 98
t-101.5 37.5q-51 0 -93.5 -25.5t-74.5 -67t-52.5 -95t-26.5 -96.5t-6 -72q0 -26 5 -65t27 -80.5t60.5 -66.5t92.5 -25h4q48 0 85 18.5t60 48t28 56t5 40.5q0 24 -7 48q-1 3 -1 5q0 4 2.5 7t7.5 3q8 0 11 -9q9 -29 9 -56q0 -17 -6.5 -47t-34 -62.5t-69.5 -52.5t-92 -20h-4
q-58 0 -100.5 27.5t-67.5 73t-31 89.5t-6 73q0 31 6.5 77t31 105t64 105.5t94 74.5t122.5 28q77 0 130.5 -36t88.5 -97.5t53 -143t22 -150.5t4 -117q0 -44 -3.5 -114t-14.5 -157.5t-26.5 -163t-30.5 -127.5zM460 1242q14 18 40 18q18 0 36 -9q18 -7 16 -18.5t-16 -25.5
q-16 -16 -31 -30t-30.5 -26.5t-33 -25t-39.5 -26.5q-6 -3 -11 -3q-11 0 -16.5 8.5t2.5 18.5q13 21 23.5 37.5t20.5 30t19.5 26t19.5 25.5z" />
    <glyph glyph-name="Icircumflex" unicode="&#xce;" horiz-adv-x="659" 
d="M458 1117q2 -4 2 -7q0 -2 -2 -5.5t-7 -3.5q-6 0 -10 7q-9 12 -21 28.5t-24.5 31t-23.5 24t-18 9.5q-8 0 -23.5 -14.5t-32 -33t-31 -36.5t-21.5 -26q-6 -6 -14 -6q-7 0 -14 4t-12 9.5t-6 9.5t-1 6q0 4 3 8q4 5 14.5 17t24.5 27.5t30 32t31 30.5t28.5 23.5t21.5 9.5
q11 0 25 -14.5t28.5 -36t28.5 -47t24 -47.5zM574 -89q24 -1 50 -2t55 -2q6 0 8.5 -4.5t2.5 -9t-3 -8.5t-8 -4q-48 1 -88.5 3t-80 3.5t-83 3.5t-98.5 4q-6 0 -8 4t-2 8q0 1 0.5 4t3.5 6.5t8 3.5q42 -2 76 -3.5t66 -3.5q7 43 16.5 111t18 151t13.5 162t5 144q0 24 -1.5 80.5
t-13 137.5t-36.5 142.5t-65.5 98t-101.5 37.5q-51 0 -93.5 -25.5t-74.5 -67t-52.5 -95t-26.5 -96.5t-6 -72q0 -26 5 -65t27 -80.5t60.5 -66.5t92.5 -25h4q48 0 85 18.5t60 48t28 56t5 40.5q0 24 -7 48q-1 3 -1 5q0 4 2.5 7t7.5 3q8 0 11 -9q9 -29 9 -56q0 -17 -6.5 -47
t-34 -62.5t-69.5 -52.5t-92 -20h-4q-58 0 -100.5 27.5t-67.5 73t-31 89.5t-6 73q0 31 6.5 77t31 105t64 105.5t94 74.5t122.5 28q77 0 130.5 -36t88.5 -97.5t53 -143t22 -150.5t4 -117q0 -44 -3.5 -114t-14.5 -157.5t-26.5 -163t-30.5 -127.5z" />
    <glyph glyph-name="Idieresis" unicode="&#xcf;" horiz-adv-x="659" 
d="M396 1212q30 0 45 -18.5t15 -40.5t-15 -40.5t-45 -18.5t-45.5 18.5t-15.5 40.5t15.5 40.5t45.5 18.5zM264 1212q30 0 45 -18.5t15 -40.5t-15 -40.5t-45 -18.5t-45.5 18.5t-15.5 40.5t15.5 40.5t45.5 18.5zM574 -89q24 -1 50 -2t55 -2q6 0 8.5 -4.5t2.5 -9t-3 -8.5t-8 -4
q-48 1 -88.5 3t-80 3.5t-83 3.5t-98.5 4q-6 0 -8 4t-2 8q0 1 0.5 4t3.5 6.5t8 3.5q42 -2 76 -3.5t66 -3.5q7 43 16.5 111t18 151t13.5 162t5 144q0 24 -1.5 80.5t-13 137.5t-36.5 142.5t-65.5 98t-101.5 37.5q-51 0 -93.5 -25.5t-74.5 -67t-52.5 -95t-26.5 -96.5t-6 -72
q0 -26 5 -65t27 -80.5t60.5 -66.5t92.5 -25h4q48 0 85 18.5t60 48t28 56t5 40.5q0 24 -7 48q-1 3 -1 5q0 4 2.5 7t7.5 3q8 0 11 -9q9 -29 9 -56q0 -17 -6.5 -47t-34 -62.5t-69.5 -52.5t-92 -20h-4q-58 0 -100.5 27.5t-67.5 73t-31 89.5t-6 73q0 31 6.5 77t31 105t64 105.5
t94 74.5t122.5 28q77 0 130.5 -36t88.5 -97.5t53 -143t22 -150.5t4 -117q0 -44 -3.5 -114t-14.5 -157.5t-26.5 -163t-30.5 -127.5z" />
    <glyph glyph-name="Eth" unicode="&#xd0;" horiz-adv-x="1051" 
d="M204 337q-21 0 -31 8t-10 17t10.5 17t31.5 8h147q2 40 2 81q0 28 -1.5 76.5t-10 114t-24.5 123.5t-42.5 101.5t-64.5 69t-89 25.5q-49 0 -90 -25.5t-72 -67t-50.5 -95t-25 -95.5t-5.5 -69q0 -28 5.5 -68t27.5 -81.5t60.5 -66.5t92.5 -25h4q48 0 85 18.5t60 48t28 56
t5 40.5q0 24 -7 48q-1 2 -1 3q0 3 4 6t9 3q7 0 8 -6q9 -29 9 -56q0 -17 -6.5 -47t-34 -62.5t-69.5 -52.5t-92 -20h-4q-58 0 -100.5 27.5t-67.5 73t-31 90t-6 74.5t6 75.5t30.5 104.5t64 105.5t93.5 74.5t122 28q70 0 123 -30.5t90 -84.5t59 -128.5t30 -162.5
q15 91 43.5 159.5t66 114t80 68.5t85.5 23q49 0 94 -29.5t78 -89t47.5 -136t14.5 -154.5q0 -32 -2 -67q-5 -79 -19 -150t-36 -133q39 7 74 18.5t63.5 30t49.5 45.5t30 65q1 8 11 8q4 0 7 -2t3 -5q0 -1 -1 -3q-10 -46 -34 -77.5t-56.5 -52t-72.5 -32t-83 -18.5
q-26 -67 -60 -120t-73 -90t-79.5 -54.5t-79.5 -17.5h-8q-50 3 -77 30.5t-30 50t-3 31.5q0 28 14 62t48 59q20 14 46.5 23.5t57.5 15.5t64.5 10t68.5 8q20 69 32 152t14 180v33q0 75 -8.5 138.5t-26 108.5t-41.5 66.5t-52 21.5q-36 0 -75.5 -35.5t-75 -102.5t-64 -162
t-43.5 -215h128q23 0 34 -8t11 -17t-12 -17t-37 -8h-128q-1 -11 -4 -35.5t-7 -58.5t-8.5 -75t-9.5 -85q-2 -19 -17 -27t-34 -8q-12 0 -23.5 3t-20.5 9t-13.5 13.5t-4.5 13.5q0 3 1 6q8 43 14.5 106t11.5 138h-145zM801 181q-66 -6 -124.5 -15.5t-93.5 -35.5
q-28 -20 -41 -49.5t-13 -56.5q0 -3 1 -19t18 -37.5t51 -22.5h4q55 0 107.5 60.5t90.5 175.5z" />
    <glyph glyph-name="Ntilde" unicode="&#xd1;" horiz-adv-x="1159" 
d="M443 1106q28 64 62.5 87.5t71.5 23.5q27 0 55 -9t54.5 -19.5t51 -19.5t45.5 -9q19 0 34 10t26 34q3 6 9 6q5 0 7.5 -3t2.5 -7q0 -2 -1 -4q-20 -55 -48 -75t-60 -20q-24 0 -50 8t-52.5 18t-52 18t-49.5 8q-26 0 -48 -12.5t-40 -44.5q-3 -6 -9 -6q-5 0 -7.5 3.5t-2.5 6.5
t1 6zM635 447q12 112 39.5 209t66 168.5t85.5 111.5t97 40h5q42 -1 65.5 -27.5t32.5 -69t9 -93.5q0 -6 -0.5 -38t-8 -98t-18.5 -135t-20 -134.5t-13 -111t-4 -73.5q0 -22 3 -53.5t19 -57t49 -25.5q37 0 70.5 31t61.5 78t48.5 102.5t30.5 104.5q1 8 11 8q4 0 6.5 -2t2.5 -6
v-2q-12 -61 -36.5 -125t-59.5 -116.5t-79.5 -86t-98.5 -33.5q-56 0 -84 37.5t-36 88.5t-8 101q0 23 3 75t12.5 134t19.5 160.5t11 113t1 41.5q0 52 -11 88t-45 37h-2q-28 0 -53 -27t-47 -73.5t-40.5 -108t-34.5 -129.5t-28.5 -137.5t-22.5 -132.5t-17 -114.5t-12 -83.5
q-3 -19 -18 -27t-33 -8q-12 0 -23 3t-20 9t-13.5 14t-4.5 16v3q4 40 9.5 99.5t9 124.5t3.5 131q0 9 -0.5 51.5t-7 115.5t-21.5 138.5t-41.5 115t-65.5 79t-94 30.5q-49 0 -90 -25.5t-72 -67t-50.5 -95t-24.5 -95.5t-5 -69q0 -28 5 -68t27 -81.5t60.5 -66.5t92.5 -25h4
q48 0 85 18.5t60 48t28 56t5 40.5q0 24 -7 48q-1 2 -1 3q0 3 3.5 6t8.5 3q8 0 9 -6q9 -29 9 -56q0 -17 -6.5 -47t-34 -62.5t-69.5 -52.5t-92 -20h-4q-58 0 -100.5 27.5t-67.5 73t-31 90t-6 74.5t6 75.5t30.5 104.5t64 105.5t93.5 74.5t122 28q64 0 111 -23t80.5 -63.5
t54.5 -95.5t33 -118t15.5 -125t3.5 -117v-28z" />
    <glyph glyph-name="Ograve" unicode="&#xd2;" horiz-adv-x="1034" 
d="M285 129q-50 19 -83 67.5t-48.5 111.5t-15.5 134q0 6 1 48.5t19 121.5t54 152.5t88.5 130.5t122.5 92t158 36h5q80 0 142 -29.5t106 -82t70.5 -122.5t34 -133t7.5 -111q0 -34 -4.5 -92.5t-25.5 -137.5t-56 -149.5t-83 -123t-108 -83.5t-130 -31q-49 0 -89 15t-71 42
t-54.5 64t-39.5 80zM485 711q-15 -22 -32.5 -60t-33 -85t-29 -101.5t-22 -110.5t-9.5 -87.5t-1 -39.5q0 -44 7 -84q20 2 45.5 10.5t51 28.5t48 54t37.5 87q3 10 14 10q7 0 12 -4.5t5 -9.5q0 -2 -1 -4q-16 -57 -42 -93.5t-55 -58.5t-58.5 -31.5t-52.5 -12.5
q15 -63 52.5 -102.5t106.5 -41.5h3q70 0 124.5 42t92.5 112.5t58 160.5t20.5 140t0.5 55q0 89 -17 176.5t-55 157.5t-94.5 111t-132.5 41h-7q-65 -1 -118 -31.5t-94 -80t-70 -113.5t-45.5 -133.5t-18.5 -113.5t-2 -62q0 -50 8.5 -102.5t32 -100t60.5 -71.5q-23 79 -25.5 134
t-2.5 77q0 64 10.5 134t35.5 132.5t59 90.5q17 14 36.5 20t37.5 6q16 0 29.5 -4t22.5 -10t10.5 -11.5t1.5 -8.5q0 -6 -4 -12zM574 1252q11 -13 20 -25.5t19 -26t20.5 -30t23.5 -37.5q8 -10 2.5 -18.5t-16.5 -8.5q-5 0 -11 3q-43 27 -72.5 51.5t-61.5 56.5q-14 14 -16 25.5
t16 18.5q18 9 36 9q12 0 22.5 -4.5t17.5 -13.5z" />
    <glyph glyph-name="Oacute" unicode="&#xd3;" horiz-adv-x="1034" 
d="M285 129q-50 19 -83 67.5t-48.5 111.5t-15.5 134q0 6 1 48.5t19 121.5t54 152.5t88.5 130.5t122.5 92t158 36h5q80 0 142 -29.5t106 -82t70.5 -122.5t34 -133t7.5 -111q0 -34 -4.5 -92.5t-25.5 -137.5t-56 -149.5t-83 -123t-108 -83.5t-130 -31q-49 0 -89 15t-71 42
t-54.5 64t-39.5 80zM485 711q-15 -22 -32.5 -60t-33 -85t-29 -101.5t-22 -110.5t-9.5 -87.5t-1 -39.5q0 -44 7 -84q20 2 45.5 10.5t51 28.5t48 54t37.5 87q3 10 14 10q7 0 12 -4.5t5 -9.5q0 -2 -1 -4q-16 -57 -42 -93.5t-55 -58.5t-58.5 -31.5t-52.5 -12.5
q15 -63 52.5 -102.5t106.5 -41.5h3q70 0 124.5 42t92.5 112.5t58 160.5t20.5 140t0.5 55q0 89 -17 176.5t-55 157.5t-94.5 111t-132.5 41h-7q-65 -1 -118 -31.5t-94 -80t-70 -113.5t-45.5 -133.5t-18.5 -113.5t-2 -62q0 -50 8.5 -102.5t32 -100t60.5 -71.5q-23 79 -25.5 134
t-2.5 77q0 64 10.5 134t35.5 132.5t59 90.5q17 14 36.5 20t37.5 6q16 0 29.5 -4t22.5 -10t10.5 -11.5t1.5 -8.5q0 -6 -4 -12zM651 1252q14 18 40 18q18 0 36 -9q18 -7 16 -18.5t-16 -25.5q-16 -16 -31 -30t-30.5 -26.5t-33 -25t-39.5 -26.5q-6 -3 -11 -3q-11 0 -16.5 8.5
t2.5 18.5q13 21 23.5 37.5t20.5 30t19.5 26t19.5 25.5z" />
    <glyph glyph-name="Ocircumflex" unicode="&#xd4;" horiz-adv-x="1034" 
d="M285 129q-50 19 -83 67.5t-48.5 111.5t-15.5 134q0 6 1 48.5t19 121.5t54 152.5t88.5 130.5t122.5 92t158 36h5q80 0 142 -29.5t106 -82t70.5 -122.5t34 -133t7.5 -111q0 -34 -4.5 -92.5t-25.5 -137.5t-56 -149.5t-83 -123t-108 -83.5t-130 -31q-49 0 -89 15t-71 42
t-54.5 64t-39.5 80zM485 711q-15 -22 -32.5 -60t-33 -85t-29 -101.5t-22 -110.5t-9.5 -87.5t-1 -39.5q0 -44 7 -84q20 2 45.5 10.5t51 28.5t48 54t37.5 87q3 10 14 10q7 0 12 -4.5t5 -9.5q0 -2 -1 -4q-16 -57 -42 -93.5t-55 -58.5t-58.5 -31.5t-52.5 -12.5
q15 -63 52.5 -102.5t106.5 -41.5h3q70 0 124.5 42t92.5 112.5t58 160.5t20.5 140t0.5 55q0 89 -17 176.5t-55 157.5t-94.5 111t-132.5 41h-7q-65 -1 -118 -31.5t-94 -80t-70 -113.5t-45.5 -133.5t-18.5 -113.5t-2 -62q0 -50 8.5 -102.5t32 -100t60.5 -71.5q-23 79 -25.5 134
t-2.5 77q0 64 10.5 134t35.5 132.5t59 90.5q17 14 36.5 20t37.5 6q16 0 29.5 -4t22.5 -10t10.5 -11.5t1.5 -8.5q0 -6 -4 -12zM719 1133q2 -4 2 -8q0 -2 -1.5 -5t-5.5 -3h-1q-6 0 -10 6q-10 11 -23 27t-23.5 26.5t-17 15.5t-13.5 5q-8 -1 -18.5 -15t-29 -37t-25.5 -31
q-5 -6 -13 -7q-7 0 -32 5t-27 11t-2 9q0 8 7 18q3 5 12 16.5t26.5 32.5t31.5 35.5t27 25.5t21 11h1q11 0 25.5 -13.5t30.5 -34t31.5 -45t26.5 -45.5z" />
    <glyph glyph-name="Otilde" unicode="&#xd5;" horiz-adv-x="1034" 
d="M285 129q-50 19 -83 67.5t-48.5 111.5t-15.5 134q0 6 1 48.5t19 121.5t54 152.5t88.5 130.5t122.5 92t158 36h5q80 0 142 -29.5t106 -82t70.5 -122.5t34 -133t7.5 -111q0 -34 -4.5 -92.5t-25.5 -137.5t-56 -149.5t-83 -123t-108 -83.5t-130 -31q-49 0 -89 15t-71 42
t-54.5 64t-39.5 80zM485 711q-15 -22 -32.5 -60t-33 -85t-29 -101.5t-22 -110.5t-9.5 -87.5t-1 -39.5q0 -44 7 -84q20 2 45.5 10.5t51 28.5t48 54t37.5 87q3 10 14 10q7 0 12 -4.5t5 -9.5q0 -2 -1 -4q-16 -57 -42 -93.5t-55 -58.5t-58.5 -31.5t-52.5 -12.5
q15 -63 52.5 -102.5t106.5 -41.5h3q70 0 124.5 42t92.5 112.5t58 160.5t20.5 140t0.5 55q0 89 -17 176.5t-55 157.5t-94.5 111t-132.5 41h-7q-65 -1 -118 -31.5t-94 -80t-70 -113.5t-45.5 -133.5t-18.5 -113.5t-2 -62q0 -50 8.5 -102.5t32 -100t60.5 -71.5q-23 79 -25.5 134
t-2.5 77q0 64 10.5 134t35.5 132.5t59 90.5q17 14 36.5 20t37.5 6q16 0 29.5 -4t22.5 -10t10.5 -11.5t1.5 -8.5q0 -6 -4 -12zM728 1227q1 2 4 4q2 0 4 -1t1 -5q-2 -24 -11 -45t-21 -37t-26 -25t-26 -8q-17 2 -31.5 10t-27 18.5t-23 21.5t-20.5 18q-5 4 -13 6.5t-16 2.5
q-13 0 -24.5 -10.5t-13.5 -42.5q0 -6 -6 -6t-6 8q2 26 11.5 46.5t22.5 34t28.5 19.5t29.5 3q12 -2 25.5 -9t26.5 -16.5l26 -19t25 -16.5q7 -4 15 -4q14 0 26.5 13.5t19.5 39.5z" />
    <glyph glyph-name="Odieresis" unicode="&#xd6;" horiz-adv-x="945" 
d="M544 1212q30 0 45 -18.5t15 -40.5t-15 -40.5t-45 -18.5t-45.5 18.5t-15.5 40.5t15.5 40.5t45.5 18.5zM412 1212q30 0 45 -18.5t15 -40.5t-15 -40.5t-45 -18.5t-45.5 18.5t-15.5 40.5t15.5 40.5t45.5 18.5zM196 129q-50 19 -83 67.5t-48.5 111.5t-15.5 134q0 6 1 48.5
t19 121.5t54 152.5t88.5 130.5t122.5 92t158 36h5q80 0 142 -29.5t106 -82t70.5 -122.5t34 -133t7.5 -111q0 -34 -4.5 -92.5t-25.5 -137.5t-56 -149.5t-83 -123t-108 -83.5t-130 -31q-49 0 -89 15t-71 42t-54.5 64t-39.5 80zM396 711q-15 -22 -32.5 -60t-33 -85t-29 -101.5
t-22 -110.5t-9.5 -87.5t-1 -39.5q0 -44 7 -84q20 2 45.5 10.5t51 28.5t48 54t37.5 87q3 10 14 10q7 0 12 -4.5t5 -9.5q0 -2 -1 -4q-16 -57 -42 -93.5t-55 -58.5t-58.5 -31.5t-52.5 -12.5q15 -63 52.5 -102.5t106.5 -41.5h3q70 0 124.5 42t92.5 112.5t58 160.5t20.5 140
t0.5 55q0 89 -17 176.5t-55 157.5t-94.5 111t-132.5 41h-7q-65 -1 -118 -31.5t-94 -80t-70 -113.5t-45.5 -133.5t-18.5 -113.5t-2 -62q0 -50 8.5 -102.5t32 -100t60.5 -71.5q-23 79 -25.5 134t-2.5 77q0 64 10.5 134t35.5 132.5t59 90.5q17 14 36.5 20t37.5 6q16 0 29.5 -4
t22.5 -10t10.5 -11.5t1.5 -8.5q0 -6 -4 -12z" />
    <glyph glyph-name="multiply" unicode="&#xd7;" horiz-adv-x="588" 
d="M581 630q-16 -14 -40.5 -34.5t-54.5 -46t-64 -54.5t-70 -59q26 -30 51 -59.5t48 -56t75 -86.5q3 -3 3 -7q0 -1 -0.5 -4.5t-3.5 -8t-8.5 -8t-10.5 -3.5t-10 5q-28 32 -75.5 86t-100.5 115q-33 -28 -64.5 -55t-60.5 -51t-53 -44.5t-42 -35.5q-4 -4 -10 -4q-12 0 -17.5 9
t-5.5 13q0 7 7 12q36 30 95 80.5t126 106.5q-53 60 -100.5 116t-78.5 92q-5 5 -5 11q0 5 6 13t17 8q7 0 13 -6q15 -18 35.5 -41.5t44 -50.5t49 -56t51.5 -58q35 30 69 58.5t64 53.5t54.5 45.5t40.5 34.5q3 3 8 3t10.5 -3.5t8.5 -8.5t3.5 -8l0.5 -3q0 -5 -5 -10z" />
    <glyph glyph-name="Oslash" unicode="&#xd8;" horiz-adv-x="855" 
d="M95 163q-23 79 -25.5 134t-2.5 77q0 64 10.5 134t35.5 132.5t59 90.5q17 14 36.5 20t37.5 6q16 0 29.5 -4t22.5 -10t10.5 -11.5t1.5 -8.5q0 -6 -4 -12q-15 -22 -32.5 -60t-33 -85t-29 -101.5t-22 -110.5t-9.5 -87.5t-1 -39.5q0 -44 7 -84q9 -31 18.5 -49.5t20.5 -18.5
q14 0 30 26.5t37 88.5q30 81 62.5 170.5t65.5 179t64.5 175t58.5 159.5q-38 46 -86 71.5t-106 25.5h-9q-65 -1 -118 -31.5t-94 -80t-70 -113.5t-45.5 -133.5t-18.5 -113.5t-2 -62q0 -50 8.5 -102.5t32 -100t60.5 -71.5zM336 -24l9 -1q60 0 105.5 26t78.5 67t55.5 92
t35.5 102q23 88 25.5 146.5t2.5 78.5q0 75 -12 147q-5 29 -12 56t-16 53l-12 -34q-6 -17 -13 -35q-16 -44 -27 -74t-20.5 -57t-19.5 -55t-24 -67q-33 -92 -65 -180t-60 -166q-19 -52 -36 -99h5zM402 1023h8q48 0 91 -12t80 -35q8 20 15 38.5t13 35.5t19 24.5t28 7.5
q12 0 23.5 -4.5t20 -12.5t11 -16t2.5 -12q0 -7 -3 -14q-10 -28 -21.5 -59t-23.5 -65q17 -22 31 -46.5t25 -51.5q33 -80 39.5 -148.5t6.5 -109.5q0 -56 -9.5 -132t-42.5 -166.5t-84 -161t-119.5 -113t-151.5 -42.5q-26 0 -45 4q-6 -17 -21 -59q-8 -22 -22.5 -31.5t-30.5 -9.5
q-13 0 -25 5.5t-20 16t-9.5 19t-1.5 13.5q0 10 4 22q5 14 11 30t14 36q-37 28 -63.5 67.5t-44.5 87.5q-50 19 -83 67.5t-48.5 111.5t-15.5 134q0 6 1 48.5t19 121.5t54 152.5t88.5 130.5t122.5 92t158 36z" />
    <glyph glyph-name="Ugrave" unicode="&#xd9;" horiz-adv-x="1222" 
d="M962 948q11 16 32 24t41 8q19 0 29.5 -6t10.5 -17q0 -4 -1 -8q-6 -28 -16 -81.5t-20.5 -121t-20 -145t-13.5 -142t-4 -114.5q0 -22 1.5 -68t13 -99.5t35 -85.5t61.5 -32q35 0 65.5 26.5t57 70t47 101t35.5 118.5q1 8 11 8q5 0 7.5 -2t2.5 -4t-1 -4q-18 -73 -41.5 -139
t-55 -115t-71.5 -78t-91 -29q-47 0 -80.5 25t-56.5 68t-35.5 100t-17 115t-4.5 111q0 15 1 58t7 110q-7 -23 -18.5 -62t-27 -87.5t-34.5 -102t-41 -105.5t-48 -98t-54 -80q-35 -42 -75 -64t-77 -22q-38 0 -69 24.5t-47 76.5q-15 46 -15 108q0 2 0.5 35t8.5 105t20.5 148
t22 148t11.5 112.5t2 55.5q0 45 -8.5 87t-35 70t-77.5 29q-49 0 -92.5 -25.5t-78.5 -67t-60 -95t-37 -106.5t-12 -101q0 -6 1 -35.5t19.5 -71t54 -66.5t89.5 -25h4q48 0 85 18.5t60 48t28 56t5 40.5q0 24 -7 48q-1 2 -1 3q0 3 4 6t9 3q7 0 8 -6q9 -29 9 -56q0 -17 -6.5 -47
t-34 -62.5t-69.5 -52.5t-92 -20h-4q-58 0 -98 27.5t-61 73t-23 80.5t-2 46q0 48 12 103.5t40.5 114.5t70.5 105.5t96 74.5t119 28t105 -29t61 -78.5t25 -100.5t4 -90q0 -31 -3 -83.5t-13.5 -128t-20.5 -144.5t-15.5 -118.5t-5.5 -81.5q0 -14 1 -27q4 -43 20 -62.5t38 -19.5
q31 0 67 33q31 28 59 76t53 108.5t48 129t43 137.5t38.5 135t34.5 121t30.5 95.5t27.5 58.5zM694 1242q11 -13 20 -25.5t19 -26t20.5 -30t23.5 -37.5q8 -10 2.5 -18.5t-16.5 -8.5q-5 0 -11 3q-43 27 -72.5 51.5t-61.5 56.5q-14 14 -16 25.5t16 18.5q18 9 36 9
q12 0 22.5 -4.5t17.5 -13.5z" />
    <glyph glyph-name="Uacute" unicode="&#xda;" horiz-adv-x="1222" 
d="M962 948q11 16 32 24t41 8q19 0 29.5 -6t10.5 -17q0 -4 -1 -8q-6 -28 -16 -81.5t-20.5 -121t-20 -145t-13.5 -142t-4 -114.5q0 -22 1.5 -68t13 -99.5t35 -85.5t61.5 -32q35 0 65.5 26.5t57 70t47 101t35.5 118.5q1 8 11 8q5 0 7.5 -2t2.5 -4t-1 -4q-18 -73 -41.5 -139
t-55 -115t-71.5 -78t-91 -29q-47 0 -80.5 25t-56.5 68t-35.5 100t-17 115t-4.5 111q0 15 1 58t7 110q-7 -23 -18.5 -62t-27 -87.5t-34.5 -102t-41 -105.5t-48 -98t-54 -80q-35 -42 -75 -64t-77 -22q-38 0 -69 24.5t-47 76.5q-15 46 -15 108q0 2 0.5 35t8.5 105t20.5 148
t22 148t11.5 112.5t2 55.5q0 45 -8.5 87t-35 70t-77.5 29q-49 0 -92.5 -25.5t-78.5 -67t-60 -95t-37 -106.5t-12 -101q0 -6 1 -35.5t19.5 -71t54 -66.5t89.5 -25h4q48 0 85 18.5t60 48t28 56t5 40.5q0 24 -7 48q-1 2 -1 3q0 3 4 6t9 3q7 0 8 -6q9 -29 9 -56q0 -17 -6.5 -47
t-34 -62.5t-69.5 -52.5t-92 -20h-4q-58 0 -98 27.5t-61 73t-23 80.5t-2 46q0 48 12 103.5t40.5 114.5t70.5 105.5t96 74.5t119 28t105 -29t61 -78.5t25 -100.5t4 -90q0 -31 -3 -83.5t-13.5 -128t-20.5 -144.5t-15.5 -118.5t-5.5 -81.5q0 -14 1 -27q4 -43 20 -62.5t38 -19.5
q31 0 67 33q31 28 59 76t53 108.5t48 129t43 137.5t38.5 135t34.5 121t30.5 95.5t27.5 58.5zM771 1242q14 18 40 18q18 0 36 -9q18 -7 16 -18.5t-16 -25.5q-16 -16 -31 -30t-30.5 -26.5t-33 -25t-39.5 -26.5q-6 -3 -11 -3q-11 0 -16.5 8.5t2.5 18.5q13 21 23.5 37.5t20.5 30
t19.5 26t19.5 25.5z" />
    <glyph glyph-name="Ucircumflex" unicode="&#xdb;" horiz-adv-x="1228" 
d="M837 1117q2 -4 2 -7q0 -2 -2 -5.5t-7 -3.5q-6 0 -10 7q-9 12 -21 28.5t-24.5 31t-23.5 24t-18 9.5q-8 0 -23.5 -14.5t-32 -33t-31 -36.5t-21.5 -26q-6 -6 -14 -6q-7 0 -14 4t-12 9.5t-6 9.5t-1 6q0 4 3 8q4 5 14.5 17t24.5 27.5t30 32t31 30.5t28.5 23.5t21.5 9.5
q11 0 25 -14.5t28.5 -36t28.5 -47t24 -47.5zM968 948q11 16 32 24t41 8q19 0 29.5 -6t10.5 -17q0 -4 -1 -8q-6 -28 -16 -81.5t-20.5 -121t-20 -145t-13.5 -142t-4 -114.5q0 -22 1.5 -68t13 -99.5t35 -85.5t61.5 -32q35 0 65.5 26.5t57 70t47 101t35.5 118.5q1 8 11 8
q5 0 7.5 -2t2.5 -4t-1 -4q-18 -73 -41.5 -139t-55 -115t-71.5 -78t-91 -29q-47 0 -80.5 25t-56.5 68t-35.5 100t-17 115t-4.5 111q0 15 1 58t7 110q-7 -23 -18.5 -62t-27 -87.5t-34.5 -102t-41 -105.5t-47.5 -98t-54.5 -80q-35 -42 -75 -64t-77 -22q-38 0 -69 24.5t-47 76.5
q-15 46 -15 108q0 2 0.5 35t8.5 105t20.5 148t22 148t11.5 112.5t2 55.5q0 45 -8.5 87t-35 70t-77.5 29q-49 0 -92.5 -25.5t-78.5 -67t-60 -95t-37 -106.5t-12 -101q0 -6 1 -35.5t19.5 -71t54 -66.5t89.5 -25h4q48 0 85 18.5t60 48t28 56t5 40.5q0 24 -7 48q-1 2 -1 3
q0 3 4 6t9 3q7 0 8 -6q9 -29 9 -56q0 -17 -6.5 -47t-34 -62.5t-69.5 -52.5t-92 -20h-4q-58 0 -98 27.5t-61 73t-23 80.5t-2 46q0 48 12 103.5t40.5 114.5t70.5 105.5t96 74.5t119 28t105 -29t61 -78.5t25 -100.5t4 -90q0 -31 -3 -83.5t-13.5 -128t-20.5 -144.5t-15.5 -118.5
t-5.5 -81.5q0 -14 1 -27q4 -43 20 -62.5t38 -19.5q31 0 67 33q31 28 59 76t53 108.5t48 129t43 137.5t38.5 135t34.5 121t30.5 95.5t27.5 58.5z" />
    <glyph glyph-name="Udieresis" unicode="&#xdc;" horiz-adv-x="1217" 
d="M763 1212q30 0 45 -18.5t15 -40.5t-15 -40.5t-45 -18.5t-45.5 18.5t-15.5 40.5t15.5 40.5t45.5 18.5zM631 1212q30 0 45 -18.5t15 -40.5t-15 -40.5t-45 -18.5t-45.5 18.5t-15.5 40.5t15.5 40.5t45.5 18.5zM957 948q11 16 32 24t41 8q19 0 29.5 -6t10.5 -17q0 -4 -1 -8
q-6 -28 -16 -81.5t-20.5 -121t-20 -145t-13.5 -142t-4 -114.5q0 -22 1.5 -68t13 -99.5t35 -85.5t61.5 -32q35 0 65.5 26.5t57 70t47 101t35.5 118.5q1 8 11 8q5 0 7.5 -2t2.5 -4t-1 -4q-18 -73 -41.5 -139t-55 -115t-71.5 -78t-91 -29q-47 0 -80.5 25t-56.5 68t-35.5 100
t-17 115t-4.5 111q0 15 1 58t7 110q-7 -23 -18.5 -62t-27 -87.5t-34.5 -102t-41 -105.5t-47.5 -98t-54.5 -80q-35 -42 -75 -64t-77 -22q-38 0 -69 24.5t-47 76.5q-15 46 -15 108q0 2 0.5 35t8.5 105t20.5 148t22 148t11.5 112.5t2 55.5q0 45 -8.5 87t-35 70t-77.5 29
q-49 0 -92.5 -25.5t-78.5 -67t-60 -95t-37 -106.5t-12 -101q0 -6 1 -35.5t19.5 -71t54 -66.5t89.5 -25h4q48 0 85 18.5t60 48t28 56t5 40.5q0 24 -7 48q-1 2 -1 3q0 3 4 6t9 3q7 0 8 -6q9 -29 9 -56q0 -17 -6.5 -47t-34 -62.5t-69.5 -52.5t-92 -20h-4q-58 0 -98 27.5t-61 73
t-23 80.5t-2 46q0 48 12 103.5t40.5 114.5t70.5 105.5t96 74.5t119 28t105 -29t61 -78.5t25 -100.5t4 -90q0 -31 -3 -83.5t-13.5 -128t-20.5 -144.5t-15.5 -118.5t-5.5 -81.5q0 -14 1 -27q4 -43 20 -62.5t38 -19.5q31 0 67 33q31 28 59 76t53 108.5t48 129t43 137.5
t38.5 135t34.5 121t30.5 95.5t27.5 58.5z" />
    <glyph glyph-name="Yacute" unicode="&#xdd;" horiz-adv-x="1193" 
d="M1051 838q7 20 10.5 28t7.5 13q14 22 38 32.5t44 10.5q17 0 25.5 -6.5t8.5 -15.5q0 -4 -1 -8q-11 -46 -20.5 -121t-19.5 -166.5t-21.5 -193.5t-28.5 -202q36 14 67.5 29.5t57 35t43.5 44.5t25 58q1 5 4 6.5t6 1.5q10 0 10 -8v-2q-7 -40 -27 -70t-49 -52.5t-65.5 -40
t-76.5 -31.5q-18 -107 -44 -203t-62 -166.5t-78.5 -103.5t-88.5 -33q-14 0 -28 3q-43 7 -73 33.5t-45 63.5t-15 81t16 88q18 49 50 84.5t74 61.5t90 45.5t97 35.5q7 68 12 137.5t9.5 137.5t9.5 131t11 117q-15 -48 -33.5 -101.5t-38.5 -107t-41 -105t-43 -94.5
q-112 -222 -246 -222q-51 0 -77.5 29.5t-35.5 72t-9 87.5q0 13 2 50.5t10.5 101.5t19 125t15.5 108q3 34 3 64q0 83 -31.5 135t-102.5 53h-4q-48 0 -91 -25t-78 -67t-60.5 -95.5t-37.5 -107t-12 -103.5q0 -4 0.5 -32.5t19 -70t54 -66.5t89.5 -25h4q48 0 85 18.5t60 48t28 56
t5 40.5q0 24 -7 48q-1 2 -1 3q0 3 4 6t9 3q7 0 8 -6q9 -29 9 -56q0 -17 -6.5 -47t-34 -62.5t-69.5 -52.5t-92 -20h-4q-58 0 -98 27.5t-61.5 73t-23.5 81.5t-2 49q0 46 11 100.5t37.5 113.5t66 105.5t91 74.5t112.5 28q54 0 100 -23.5t78.5 -67.5t44.5 -96.5t12 -99.5
q0 -28 -3 -58q-3 -34 -11 -80.5t-16 -96t-12.5 -91.5t-4.5 -72q0 -12 1.5 -37.5t12.5 -52t37 -30.5q4 -1 8 -1q17 0 38.5 10.5t47 35.5t51 61.5t48.5 82.5q18 36 37 83t38 98.5t37 104t33.5 98.5t27.5 83t19 58zM979 144q-48 -15 -94 -32.5t-84 -40.5t-66.5 -54.5
t-41.5 -75.5q-8 -30 -8 -58q0 -12 3 -37.5t20.5 -56t43 -48t53.5 -17.5h3q39 1 67 34.5t48.5 91t33.5 133.5t22 161zM861 1192q14 18 40 18q18 0 36 -9q18 -7 16 -18.5t-16 -25.5q-16 -16 -31 -30t-30.5 -26.5t-33 -25t-39.5 -26.5q-6 -3 -11 -3q-11 0 -16.5 8.5t2.5 18.5
q13 21 23.5 37.5t20.5 30t19.5 26t19.5 25.5z" />
    <glyph glyph-name="Thorn" unicode="&#xde;" horiz-adv-x="602" 
d="M167 928q-1 -63 -2 -133t-3 -145q35 73 93 109.5t121 36.5q45 0 87.5 -19.5t74.5 -58.5t48.5 -92.5t16.5 -116.5q0 -13 -1 -28q-4 -83 -30 -143.5t-64.5 -100t-85.5 -58.5t-93 -19q-57 0 -105 27t-72 79q-2 -70 -3.5 -135.5t-3.5 -124.5q-1 -32 -13 -48t-26 -16
q-13 0 -22.5 13.5t-9.5 37.5v5q2 51 3.5 105t3.5 113l15 480q2 59 3.5 113t3.5 105q1 26 12.5 39t24.5 13q11 0 19 -9t8 -29zM160 576q-2 -57 -3 -113t-3 -113q2 -30 14 -55t32 -43.5t45 -28.5t52 -10q31 0 62.5 15t57.5 48t44 86.5t22 130.5q1 21 1 39q0 42 -7.5 81.5
t-25 68.5t-42 42t-51.5 13q-29 0 -59 -12.5t-57 -34.5t-48.5 -51.5t-33.5 -62.5z" />
    <glyph glyph-name="germandbls" unicode="&#xdf;" horiz-adv-x="612" 
d="M58 696v3q0 7 4.5 14t12.5 12.5t18.5 8t20.5 2.5q17 0 30 -7.5t13 -24.5v-2v-18q0 -23 2 -49t2 -48q8 57 23.5 113t42 99.5t65 70t88.5 26.5h4q52 -1 91 -27.5t62.5 -68t28 -75.5t4.5 -51q0 -33 -11 -74.5t-44 -84.5t-89 -68q35 -7 64.5 -22.5t51 -41.5t31.5 -58.5
t10 -69.5q0 -10 -1 -21q-4 -70 -32.5 -122t-71 -86.5t-93.5 -52t-100 -17.5q-34 0 -65 8.5t-55 25t-39.5 42t-18.5 58.5q-7 -2 -15 -2q-5 0 -14 1.5t-19.5 8t-16 15.5t-5.5 17v6q6 37 12 100.5t9.5 140t4 122t0.5 53.5q0 75 -5 144zM124 102q2 -21 16 -38.5t36.5 -30.5
t51 -20.5t58.5 -7.5q36 0 71.5 12.5t62.5 40.5t41 70t14 94v21q-3 61 -21 97t-47.5 54t-63.5 22t-65 4q-14 0 -29 -1q-4 0 -6.5 3.5t-2.5 8t2.5 7.5t6.5 3h10q40 0 73.5 15.5t59 44.5t41.5 67.5t21.5 72t5.5 60.5q0 13 -2 38.5t-13.5 56.5t-31 51t-47.5 22h-5q-29 0 -55 -21
t-48 -59.5t-39 -89t-29.5 -104t-19.5 -106.5t-9 -97q-2 -55 -10.5 -123.5t-16.5 -140.5q-1 -16 -10 -26z" />
    <glyph glyph-name="agrave" unicode="&#xe0;" horiz-adv-x="546" 
d="M450 469q-3 -15 -10 -41.5t-15 -60.5t-15.5 -72t-12 -76t-5 -56.5t-0.5 -20.5q0 -32 7 -57.5t21.5 -41t40.5 -15.5q28 0 51 19t41 49.5t32 68.5t24.5 76.5t18 74t12.5 60.5q1 5 4 6.5t6 1.5q5 0 7.5 -2t2.5 -6v-2q-5 -31 -12.5 -71.5t-18 -83.5t-26 -84t-37.5 -73.5
t-51.5 -52.5t-68.5 -20q-38 0 -65.5 20t-46 53t-29 75.5t-13.5 87.5q-27 -66 -56.5 -96t-67.5 -30q-24 0 -46.5 11.5t-39 33t-26 50.5t-9.5 62v7q1 39 14 75.5t36 64t54 43.5t68 16h5q31 -1 52 -11.5t32 -27.5q8 24 16 37q14 20 38.5 30t47.5 10q19 0 30 -6.5t11 -17.5
q0 -3 -1 -7zM290 276q0 62 9 110q-4 20 -18.5 33t-33.5 13q-14 0 -28 -8.5t-26 -27.5t-20 -50.5t-10 -76.5v-19q0 -45 9 -72.5t27 -27.5t41.5 30.5t49.5 95.5zM254 705q11 -13 20 -25.5t19 -26t20.5 -30t23.5 -37.5q8 -10 2.5 -18.5t-16.5 -8.5q-5 0 -11 3
q-43 27 -72.5 51.5t-61.5 56.5q-14 14 -16 25.5t16 18.5q18 9 36 9q12 0 22.5 -4.5t17.5 -13.5z" />
    <glyph glyph-name="aacute" unicode="&#xe1;" horiz-adv-x="546" 
d="M450 469q-3 -15 -10 -41.5t-15 -60.5t-15.5 -72t-12 -76t-5 -56.5t-0.5 -20.5q0 -32 7 -57.5t21.5 -41t40.5 -15.5q28 0 51 19t41 49.5t32 68.5t24.5 76.5t18 74t12.5 60.5q1 5 4 6.5t6 1.5q5 0 7.5 -2t2.5 -6v-2q-5 -31 -12.5 -71.5t-18 -83.5t-26 -84t-37.5 -73.5
t-51.5 -52.5t-68.5 -20q-38 0 -65.5 20t-46 53t-29 75.5t-13.5 87.5q-27 -66 -56.5 -96t-67.5 -30q-24 0 -46.5 11.5t-39 33t-26 50.5t-9.5 62v7q1 39 14 75.5t36 64t54 43.5t68 16h5q31 -1 52 -11.5t32 -27.5q8 24 16 37q14 20 38.5 30t47.5 10q19 0 30 -6.5t11 -17.5
q0 -3 -1 -7zM290 276q0 62 9 110q-4 20 -18.5 33t-33.5 13q-14 0 -28 -8.5t-26 -27.5t-20 -50.5t-10 -76.5v-19q0 -45 9 -72.5t27 -27.5t41.5 30.5t49.5 95.5zM331 705q14 18 40 18q18 0 36 -9q18 -7 16 -18.5t-16 -25.5q-16 -16 -31 -30t-30.5 -26.5t-33 -25t-39.5 -26.5
q-6 -3 -11 -3q-11 0 -16.5 8.5t2.5 18.5q13 21 23.5 37.5t20.5 30t19.5 26t19.5 25.5z" />
    <glyph glyph-name="acircumflex" unicode="&#xe2;" horiz-adv-x="546" 
d="M450 469q-3 -15 -10 -41.5t-15 -60.5t-15.5 -72t-12 -76t-5 -56.5t-0.5 -20.5q0 -32 7 -57.5t21.5 -41t40.5 -15.5q28 0 51 19t41 49.5t32 68.5t24.5 76.5t18 74t12.5 60.5q1 5 4 6.5t6 1.5q5 0 7.5 -2t2.5 -6v-2q-5 -31 -12.5 -71.5t-18 -83.5t-26 -84t-37.5 -73.5
t-51.5 -52.5t-68.5 -20q-38 0 -65.5 20t-46 53t-29 75.5t-13.5 87.5q-27 -66 -56.5 -96t-67.5 -30q-24 0 -46.5 11.5t-39 33t-26 50.5t-9.5 62v7q1 39 14 75.5t36 64t54 43.5t68 16h5q31 -1 52 -11.5t32 -27.5q8 24 16 37q14 20 38.5 30t47.5 10q19 0 30 -6.5t11 -17.5
q0 -3 -1 -7zM290 276q0 62 9 110q-4 20 -18.5 33t-33.5 13q-14 0 -28 -8.5t-26 -27.5t-20 -50.5t-10 -76.5v-19q0 -45 9 -72.5t27 -27.5t41.5 30.5t49.5 95.5zM399 586q2 -4 2 -8q0 -2 -1.5 -5t-5.5 -3h-1q-6 0 -10 6q-10 11 -23 27t-23.5 26.5t-17 15.5t-13.5 5
q-8 -1 -18.5 -15t-29 -37t-25.5 -31q-5 -6 -13 -7q-7 0 -32 5t-27 11t-2 9q0 8 7 18q3 5 12 16.5t26.5 32.5t31.5 35.5t27 25.5t21 11h1q11 0 25.5 -13.5t30.5 -34t31.5 -45t26.5 -45.5z" />
    <glyph glyph-name="atilde" unicode="&#xe3;" horiz-adv-x="546" 
d="M450 469q-3 -15 -10 -41.5t-15 -60.5t-15.5 -72t-12 -76t-5 -56.5t-0.5 -20.5q0 -32 7 -57.5t21.5 -41t40.5 -15.5q28 0 51 19t41 49.5t32 68.5t24.5 76.5t18 74t12.5 60.5q1 5 4 6.5t6 1.5q5 0 7.5 -2t2.5 -6v-2q-5 -31 -12.5 -71.5t-18 -83.5t-26 -84t-37.5 -73.5
t-51.5 -52.5t-68.5 -20q-38 0 -65.5 20t-46 53t-29 75.5t-13.5 87.5q-27 -66 -56.5 -96t-67.5 -30q-24 0 -46.5 11.5t-39 33t-26 50.5t-9.5 62v7q1 39 14 75.5t36 64t54 43.5t68 16h5q31 -1 52 -11.5t32 -27.5q8 24 16 37q14 20 38.5 30t47.5 10q19 0 30 -6.5t11 -17.5
q0 -3 -1 -7zM290 276q0 62 9 110q-4 20 -18.5 33t-33.5 13q-14 0 -28 -8.5t-26 -27.5t-20 -50.5t-10 -76.5v-19q0 -45 9 -72.5t27 -27.5t41.5 30.5t49.5 95.5zM408 680q1 2 4 4q2 0 4 -1t1 -5q-2 -24 -11 -45t-21 -37t-26 -25t-26 -8q-17 2 -31.5 10t-27 18.5t-23 21.5
t-20.5 18q-5 4 -13 6.5t-16 2.5q-13 0 -24.5 -10.5t-13.5 -42.5q0 -6 -6 -6t-6 8q2 26 11.5 46.5t22.5 34t28.5 19.5t29.5 3q12 -2 25.5 -9t26.5 -16.5l26 -19t25 -16.5q7 -4 15 -4q14 0 26.5 13.5t19.5 39.5z" />
    <glyph glyph-name="adieresis" unicode="&#xe4;" horiz-adv-x="546" 
d="M369 651q30 0 45 -18.5t15 -40.5t-15 -40.5t-45 -18.5t-45.5 18.5t-15.5 40.5t15.5 40.5t45.5 18.5zM237 651q30 0 45 -18.5t15 -40.5t-15 -40.5t-45 -18.5t-45.5 18.5t-15.5 40.5t15.5 40.5t45.5 18.5zM450 469q-3 -15 -10 -41.5t-15 -60.5t-15.5 -72t-12 -76t-5 -56.5
t-0.5 -20.5q0 -32 7 -57.5t21.5 -41t40.5 -15.5q28 0 51 19t41 49.5t32 68.5t24.5 76.5t18 74t12.5 60.5q1 5 4 6.5t6 1.5q5 0 7.5 -2t2.5 -6v-2q-5 -31 -12.5 -71.5t-18 -83.5t-26 -84t-37.5 -73.5t-51.5 -52.5t-68.5 -20q-38 0 -65.5 20t-46 53t-29 75.5t-13.5 87.5
q-27 -66 -56.5 -96t-67.5 -30q-24 0 -46.5 11.5t-39 33t-26 50.5t-9.5 62v7q1 39 14 75.5t36 64t54 43.5t68 16h5q31 -1 52 -11.5t32 -27.5q8 24 16 37q14 20 38.5 30t47.5 10q19 0 30 -6.5t11 -17.5q0 -3 -1 -7zM290 276q0 62 9 110q-4 20 -18.5 33t-33.5 13
q-14 0 -28 -8.5t-26 -27.5t-20 -50.5t-10 -76.5v-19q0 -45 9 -72.5t27 -27.5t41.5 30.5t49.5 95.5z" />
    <glyph glyph-name="aring" unicode="&#xe5;" horiz-adv-x="546" 
d="M279 741q36 -1 59.5 -17t34 -38.5t10.5 -47.5q0 -2 -0.5 -16.5t-14 -37.5t-38.5 -38.5t-62 -15.5t-61 16t-34.5 38t-10.5 46q0 4 1 19.5t14.5 39t38 38t58.5 14.5h5zM268 542q18 0 30 14t19 35t8 36t1 21q0 17 -4 35.5t-14.5 32.5t-27.5 14t-29.5 -14t-19.5 -35
t-8.5 -36.5t-1.5 -22.5q0 -16 4 -34t14.5 -32t28.5 -14zM450 469q-3 -15 -10 -41.5t-15 -60.5t-15.5 -72t-12 -76t-5 -56.5t-0.5 -20.5q0 -32 7 -57.5t21.5 -41t40.5 -15.5q28 0 51 19t41 49.5t32 68.5t24.5 76.5t18 74t12.5 60.5q1 5 4 6.5t6 1.5q5 0 7.5 -2t2.5 -6v-2
q-5 -31 -12.5 -71.5t-18 -83.5t-26 -84t-37.5 -73.5t-51.5 -52.5t-68.5 -20q-38 0 -65.5 20t-46 53t-29 75.5t-13.5 87.5q-27 -66 -56.5 -96t-67.5 -30q-24 0 -46.5 11.5t-39 33t-26 50.5t-9.5 62v7q1 39 14 75.5t36 64t54 43.5t68 16h5q31 -1 52 -11.5t32 -27.5q8 24 16 37
q14 20 38.5 30t47.5 10q19 0 30 -6.5t11 -17.5q0 -3 -1 -7zM290 276q0 62 9 110q-4 20 -18.5 33t-33.5 13q-14 0 -28 -8.5t-26 -27.5t-20 -50.5t-10 -76.5v-19q0 -45 9 -72.5t27 -27.5t41.5 30.5t49.5 95.5z" />
    <glyph glyph-name="ae" unicode="&#xe6;" horiz-adv-x="943" 
d="M458 469q-3 -15 -10 -41.5t-15 -60.5t-15.5 -72t-12 -76t-5 -56.5t-0.5 -20.5q0 -32 7 -57.5t21.5 -41t40.5 -15.5q32 0 58.5 23.5t47 60.5t34 81.5t19.5 87.5q6 41 20 81.5t36 73t51.5 53t65.5 20.5q14 0 27 -3q35 -8 54 -29.5t23 -41t4 -31.5q0 -16 -6 -39t-25.5 -46
t-47 -35t-56.5 -12q-9 0 -18 1q2 -25 8.5 -48t19 -40t31 -27t43.5 -10q59 1 109 60.5t72 179.5q2 6 9 6q5 0 8 -2t3 -5v-2q-11 -63 -33.5 -116t-56 -91.5t-76.5 -58.5t-94 -20h-5q-69 2 -106.5 33.5t-51.5 79.5q-11 -42 -26.5 -82t-37.5 -71.5t-51 -50.5t-67 -19t-65.5 20
t-46 53t-29 75.5t-13.5 87.5q-27 -66 -56.5 -96t-67.5 -30q-24 0 -46.5 11.5t-39 33t-26 50.5t-9.5 62v7q1 39 14 75.5t36 64t54 43.5t68 16h5q31 -1 52 -11.5t32 -27.5q8 24 16 37q14 20 38.5 30t47.5 10q19 0 30 -6.5t11 -17.5q0 -3 -1 -7zM755 291q25 1 43.5 13
t31.5 29.5t19.5 38.5t7 31t0.5 12q0 16 -5.5 30t-18.5 19q-5 2 -10 2q-10 0 -22.5 -11.5t-23 -37t-16.5 -57t-6 -60.5v-9zM298 276q0 62 9 110q-4 20 -18.5 33t-33.5 13q-14 0 -28 -8.5t-26 -27.5t-20 -50.5t-10 -76.5v-19q0 -45 9 -72.5t27 -27.5t41.5 30.5t49.5 95.5z" />
    <glyph glyph-name="ccedilla" unicode="&#xe7;" horiz-adv-x="417" 
d="M291 81q42 1 79 30t66.5 72.5t49 94.5t25.5 97q2 9 11 9q4 0 6.5 -2t2.5 -6v-2q-10 -59 -33 -119t-59.5 -108.5t-85.5 -80.5t-110 -34q-1 -9 -1.5 -18t-1.5 -20q14 3 23 3q29 0 40.5 -16.5t11.5 -33.5q0 -4 -1.5 -16t-16 -27.5t-37.5 -15.5h-6q-19 1 -26.5 11.5
t-7.5 21.5q0 1 0.5 8t7.5 18.5t16 13.5q2 0 2.5 -1l0.5 -1q0 -1 -2 -2q-7 -3 -11.5 -11t-4.5 -17q0 -1 0.5 -6t6.5 -12.5t18 -8.5h4q17 0 28 15t11.5 24.5l0.5 9.5q0 17 -11 27.5t-27 10.5q-9 0 -20 -2q-3 -1 -5 -1q-1 0 -1.5 0.5t-0.5 4.5q1 15 1.5 24t1.5 17
q-53 0 -88.5 22t-56 58t-25.5 70.5t-5 57.5q0 24 5 59.5t23.5 80t46.5 77.5t61 49t64 16q11 0 22 -2q41 -6 63 -27.5t27.5 -41.5t5.5 -33t-5.5 -32.5t-22.5 -33.5q-15 -12 -32 -12q-15 0 -21 7t-6 12q0 6 6 14q7 9 11.5 24.5t5 24t0.5 9.5q0 14 -6 27t-20 17q-5 1 -9 1
q-13 0 -27.5 -12t-28 -39t-23 -63t-12 -65.5t-2.5 -50.5q0 -17 2 -44t14 -56.5t33.5 -47t54.5 -17.5z" />
    <glyph glyph-name="egrave" unicode="&#xe8;" horiz-adv-x="384" 
d="M235 99q-67 1 -105 32t-50 69.5t-12 72.5q0 16 4.5 51t27.5 80t60 75t82 30q13 0 28 -3q35 -8 54 -29.5t22.5 -40.5t3.5 -31q0 -17 -6 -40t-25.5 -46t-47 -35t-56.5 -12q-9 0 -18 1q2 -25 8.5 -48t19 -40t31 -27t43.5 -10q59 1 109 60.5t72 179.5q2 6 9 6q5 0 8 -2t3 -5
v-2q-11 -63 -33.5 -116t-56 -91.5t-76.5 -58.5t-94 -20h-5zM196 291q25 1 43.5 13t31.5 29.5t19.5 38.5t7 31t0.5 12q0 16 -5.5 30t-18.5 19q-5 2 -10 2q-10 0 -22.5 -11.5t-23 -37t-16.5 -57t-6 -60.5v-9zM217 734q11 -13 20 -25.5t19 -26t20.5 -30t23.5 -37.5
q8 -10 2.5 -18.5t-16.5 -8.5q-5 0 -11 3q-43 27 -72.5 51.5t-61.5 56.5q-14 14 -16 25.5t16 18.5q18 9 36 9q12 0 22.5 -4.5t17.5 -13.5z" />
    <glyph glyph-name="eacute" unicode="&#xe9;" horiz-adv-x="384" 
d="M235 99q-67 1 -105 32t-50 69.5t-12 72.5q0 16 4.5 51t27.5 80t60 75t82 30q13 0 28 -3q35 -8 54 -29.5t22.5 -40.5t3.5 -31q0 -17 -6 -40t-25.5 -46t-47 -35t-56.5 -12q-9 0 -18 1q2 -25 8.5 -48t19 -40t31 -27t43.5 -10q59 1 109 60.5t72 179.5q2 6 9 6q5 0 8 -2t3 -5
v-2q-11 -63 -33.5 -116t-56 -91.5t-76.5 -58.5t-94 -20h-5zM196 291q25 1 43.5 13t31.5 29.5t19.5 38.5t7 31t0.5 12q0 16 -5.5 30t-18.5 19q-5 2 -10 2q-10 0 -22.5 -11.5t-23 -37t-16.5 -57t-6 -60.5v-9zM294 734q14 18 40 18q18 0 36 -9q18 -7 16 -18.5t-16 -25.5
q-16 -16 -31 -30t-30.5 -26.5t-33 -25t-39.5 -26.5q-6 -3 -11 -3q-11 0 -16.5 8.5t2.5 18.5q13 21 23.5 37.5t20.5 30t19.5 26t19.5 25.5z" />
    <glyph glyph-name="ecircumflex" unicode="&#xea;" horiz-adv-x="384" 
d="M235 99q-67 1 -105 32t-50 69.5t-12 72.5q0 16 4.5 51t27.5 80t60 75t82 30q13 0 28 -3q35 -8 54 -29.5t22.5 -40.5t3.5 -31q0 -17 -6 -40t-25.5 -46t-47 -35t-56.5 -12q-9 0 -18 1q2 -25 8.5 -48t19 -40t31 -27t43.5 -10q59 1 109 60.5t72 179.5q2 6 9 6q5 0 8 -2t3 -5
v-2q-11 -63 -33.5 -116t-56 -91.5t-76.5 -58.5t-94 -20h-5zM196 291q25 1 43.5 13t31.5 29.5t19.5 38.5t7 31t0.5 12q0 16 -5.5 30t-18.5 19q-5 2 -10 2q-10 0 -22.5 -11.5t-23 -37t-16.5 -57t-6 -60.5v-9zM362 615q2 -4 2 -8q0 -2 -1.5 -5t-5.5 -3h-1q-6 0 -10 6
q-10 11 -23 27t-23.5 26.5t-17 15.5t-13.5 5q-8 -1 -18.5 -15t-29 -37t-25.5 -31q-5 -6 -13 -7q-7 0 -32 5t-27 11t-2 9q0 8 7 18q3 5 12 16.5t26.5 32.5t31.5 35.5t27 25.5t21 11h1q11 0 25.5 -13.5t30.5 -34t31.5 -45t26.5 -45.5z" />
    <glyph glyph-name="edieresis" unicode="&#xeb;" horiz-adv-x="384" 
d="M299 651q30 0 45 -18.5t15 -40.5t-15 -40.5t-45 -18.5t-45.5 18.5t-15.5 40.5t15.5 40.5t45.5 18.5zM167 651q30 0 45 -18.5t15 -40.5t-15 -40.5t-45 -18.5t-45.5 18.5t-15.5 40.5t15.5 40.5t45.5 18.5zM235 99q-67 1 -105 32t-50 69.5t-12 72.5q0 16 4.5 51t27.5 80
t60 75t82 30q13 0 28 -3q35 -8 54 -29.5t22.5 -40.5t3.5 -31q0 -17 -6 -40t-25.5 -46t-47 -35t-56.5 -12q-9 0 -18 1q2 -25 8.5 -48t19 -40t31 -27t43.5 -10q59 1 109 60.5t72 179.5q2 6 9 6q5 0 8 -2t3 -5v-2q-11 -63 -33.5 -116t-56 -91.5t-76.5 -58.5t-94 -20h-5z
M196 291q25 1 43.5 13t31.5 29.5t19.5 38.5t7 31t0.5 12q0 16 -5.5 30t-18.5 19q-5 2 -10 2q-10 0 -22.5 -11.5t-23 -37t-16.5 -57t-6 -60.5v-9z" />
    <glyph glyph-name="igrave" unicode="&#xec;" horiz-adv-x="305" 
d="M204 36h-3q-45 0 -73 25.5t-42.5 66t-16 72.5t-1.5 47q0 34 4.5 73.5t16 78t23.5 56.5q15 22 41 33t49 11q19 0 29.5 -6.5t10.5 -17.5q0 -3 -1 -6q-3 -15 -14 -48t-23 -74.5t-20.5 -85.5t-8.5 -82t13.5 -64t45.5 -30q6 -1 12 -1q20 0 39 12.5t36 37.5t29.5 57.5t22 66
t15.5 65t11 53.5q1 7 10 7q5 0 7.5 -2t2.5 -5v-2q-5 -32 -13 -69.5t-20 -75t-28 -72t-38.5 -61.5t-51 -43t-64.5 -17zM155 735q11 -13 20 -25.5t19 -26t20.5 -30t23.5 -37.5q8 -10 2.5 -18.5t-16.5 -8.5q-5 0 -11 3q-43 27 -72.5 51.5t-61.5 56.5q-14 14 -16 25.5t16 18.5
q18 9 36 9q12 0 22.5 -4.5t17.5 -13.5z" />
    <glyph glyph-name="iacute" unicode="&#xed;" horiz-adv-x="305" 
d="M204 36h-3q-45 0 -73 25.5t-42.5 66t-16 72.5t-1.5 47q0 34 4.5 73.5t16 78t23.5 56.5q15 22 41 33t49 11q19 0 29.5 -6.5t10.5 -17.5q0 -3 -1 -6q-3 -15 -14 -48t-23 -74.5t-20.5 -85.5t-8.5 -82t13.5 -64t45.5 -30q6 -1 12 -1q20 0 39 12.5t36 37.5t29.5 57.5t22 66
t15.5 65t11 53.5q1 7 10 7q5 0 7.5 -2t2.5 -5v-2q-5 -32 -13 -69.5t-20 -75t-28 -72t-38.5 -61.5t-51 -43t-64.5 -17zM210 735q14 18 40 18q18 0 36 -9q18 -7 16 -18.5t-16 -25.5q-16 -16 -31 -30t-30.5 -26.5t-33 -25t-39.5 -26.5q-6 -3 -11 -3q-11 0 -16.5 8.5t2.5 18.5
q13 21 23.5 37.5t20.5 30t19.5 26t19.5 25.5z" />
    <glyph glyph-name="icircumflex" unicode="&#xee;" horiz-adv-x="305" 
d="M302 562q2 -4 2 -7q0 -2 -2 -5.5t-7 -3.5q-6 0 -10 7q-9 12 -21 28.5t-24.5 31t-23.5 24t-18 9.5q-8 0 -23.5 -14.5t-32 -33t-31 -36.5t-21.5 -26q-6 -6 -14 -6q-7 0 -14 4t-12 9.5t-6 9.5t-1 6q0 4 3 8q4 5 14.5 17t24.5 27.5t30 32t31 30.5t28.5 23.5t21.5 9.5
q11 0 25 -14.5t28.5 -36t28.5 -47t24 -47.5zM204 36h-3q-45 0 -73 25.5t-42.5 66t-16 72.5t-1.5 47q0 34 4.5 73.5t16 78t23.5 56.5q15 22 41 33t49 11q19 0 29.5 -6.5t10.5 -17.5q0 -3 -1 -6q-3 -15 -14 -48t-23 -74.5t-20.5 -85.5t-8.5 -82t13.5 -64t45.5 -30q6 -1 12 -1
q20 0 39 12.5t36 37.5t29.5 57.5t22 66t15.5 65t11 53.5q1 7 10 7q5 0 7.5 -2t2.5 -5v-2q-5 -32 -13 -69.5t-20 -75t-28 -72t-38.5 -61.5t-51 -43t-64.5 -17z" />
    <glyph glyph-name="idieresis" unicode="&#xef;" horiz-adv-x="305" 
d="M259 651q30 0 45 -18.5t15 -40.5t-15 -40.5t-45 -18.5t-45.5 18.5t-15.5 40.5t15.5 40.5t45.5 18.5zM127 651q30 0 45 -18.5t15 -40.5t-15 -40.5t-45 -18.5t-45.5 18.5t-15.5 40.5t15.5 40.5t45.5 18.5zM204 36h-3q-45 0 -73 25.5t-42.5 66t-16 72.5t-1.5 47
q0 34 4.5 73.5t16 78t23.5 56.5q15 22 41 33t49 11q19 0 29.5 -6.5t10.5 -17.5q0 -3 -1 -6q-3 -15 -14 -48t-23 -74.5t-20.5 -85.5t-8.5 -82t13.5 -64t45.5 -30q6 -1 12 -1q20 0 39 12.5t36 37.5t29.5 57.5t22 66t15.5 65t11 53.5q1 7 10 7q5 0 7.5 -2t2.5 -5v-2
q-5 -32 -13 -69.5t-20 -75t-28 -72t-38.5 -61.5t-51 -43t-64.5 -17z" />
    <glyph glyph-name="eth" unicode="&#xf0;" horiz-adv-x="605" 
 />
    <glyph glyph-name="ntilde" unicode="&#xf1;" horiz-adv-x="567" 
d="M171 573q22 50 48.5 68t55.5 18q21 0 43 -7t43 -15t40.5 -15t35.5 -7q15 0 27 7.5t20 26.5q2 3 4 3q4 0 7 -5.5t3 -9.5q0 -2 -1 -4q-16 -42 -37 -57.5t-46 -15.5q-19 0 -39.5 6.5t-40.5 14t-40 13.5t-39 6q-20 0 -37.5 -9.5t-31.5 -34.5q-1 -3 -5 -3q-5 0 -8 5t-3 9
q0 3 1 6zM182 119q24 73 47 139.5t46 121.5q28 65 50.5 92.5t56.5 27.5h2q29 0 44.5 -17t22.5 -44.5t7.5 -50.5t0.5 -35q0 -23 -1 -53t-1.5 -50.5t-0.5 -26.5q0 -27 4 -51t15 -38.5t32 -14.5h3q31 2 56.5 30.5t45 68t32 83t17.5 76.5q1 5 4 6.5t6 1.5q5 0 7.5 -2t2.5 -6v-2
q-7 -48 -24.5 -104t-45.5 -104t-67 -79.5t-89 -31.5q-36 0 -58.5 17t-35.5 45t-18 64t-5 73t3 73t5 64t2 45.5t-6 17.5q-10 0 -38 -61q-40 -87 -74 -190.5t-65 -204.5q-1 -3 -13.5 -5.5t-29.5 -2.5q-20 0 -38.5 4.5t-24.5 18.5q-4 11 -4.5 30.5t-0.5 24.5q0 29 2.5 70
t7.5 92t11.5 96.5t15 80t17.5 47.5q15 22 41 33t49 11q19 0 29.5 -6.5t10.5 -17.5q0 -3 -1 -6q-17 -85 -29.5 -171.5t-25.5 -178.5z" />
    <glyph glyph-name="ograve" unicode="&#xf2;" 
d="M363 190q-11 -27 -26.5 -50t-34.5 -39.5t-41.5 -26t-48.5 -9.5q-39 0 -65.5 21.5t-42.5 55.5t-22 75t-4.5 80.5t9.5 73t20 51.5q8 12 20 20.5t25.5 13.5t27 7t25.5 1q14 17 33 26.5t44 9.5q41 0 66 -27.5t35.5 -69.5t7 -93t-19.5 -98q31 7 58 26t48 44.5t34.5 54
t17.5 54.5q1 4 4 5.5t7 1t6.5 -2.5t2.5 -5q-3 -34 -18.5 -67.5t-40.5 -61.5t-57.5 -47t-69.5 -24zM208 301q17 -46 53 -69t84 -23q15 41 20 88.5t-1.5 89t-26 69t-53.5 28.5q-18 1 -32.5 -6.5t-25.5 -20.5q12 -7 9 -23q-4 -17 -12.5 -53.5t-14.5 -79.5zM321 189
q-42 4 -71 23.5t-47 48.5q-3 -28 -2 -54t6.5 -46t17 -32t30.5 -13q26 -1 46.5 19.5t35.5 52.5h-4l-8 1h-4zM252 715q11 -13 20 -25.5t19 -26t20.5 -30t23.5 -37.5q8 -10 2.5 -18.5t-16.5 -8.5q-5 0 -11 3q-43 27 -72.5 51.5t-61.5 56.5q-14 14 -16 25.5t16 18.5q18 9 36 9
q12 0 22.5 -4.5t17.5 -13.5z" />
    <glyph glyph-name="oacute" unicode="&#xf3;" 
d="M363 190q-11 -27 -26.5 -50t-34.5 -39.5t-41.5 -26t-48.5 -9.5q-39 0 -65.5 21.5t-42.5 55.5t-22 75t-4.5 80.5t9.5 73t20 51.5q8 12 20 20.5t25.5 13.5t27 7t25.5 1q14 17 33 26.5t44 9.5q41 0 66 -27.5t35.5 -69.5t7 -93t-19.5 -98q31 7 58 26t48 44.5t34.5 54
t17.5 54.5q1 4 4 5.5t7 1t6.5 -2.5t2.5 -5q-3 -34 -18.5 -67.5t-40.5 -61.5t-57.5 -47t-69.5 -24zM208 301q17 -46 53 -69t84 -23q15 41 20 88.5t-1.5 89t-26 69t-53.5 28.5q-18 1 -32.5 -6.5t-25.5 -20.5q12 -7 9 -23q-4 -17 -12.5 -53.5t-14.5 -79.5zM321 189
q-42 4 -71 23.5t-47 48.5q-3 -28 -2 -54t6.5 -46t17 -32t30.5 -13q26 -1 46.5 19.5t35.5 52.5h-4l-8 1h-4zM329 715q14 18 40 18q18 0 36 -9q18 -7 16 -18.5t-16 -25.5q-16 -16 -31 -30t-30.5 -26.5t-33 -25t-39.5 -26.5q-6 -3 -11 -3q-11 0 -16.5 8.5t2.5 18.5
q13 21 23.5 37.5t20.5 30t19.5 26t19.5 25.5z" />
    <glyph glyph-name="ocircumflex" unicode="&#xf4;" 
d="M363 190q-11 -27 -26.5 -50t-34.5 -39.5t-41.5 -26t-48.5 -9.5q-39 0 -65.5 21.5t-42.5 55.5t-22 75t-4.5 80.5t9.5 73t20 51.5q8 12 20 20.5t25.5 13.5t27 7t25.5 1q14 17 33 26.5t44 9.5q41 0 66 -27.5t35.5 -69.5t7 -93t-19.5 -98q31 7 58 26t48 44.5t34.5 54
t17.5 54.5q1 4 4 5.5t7 1t6.5 -2.5t2.5 -5q-3 -34 -18.5 -67.5t-40.5 -61.5t-57.5 -47t-69.5 -24zM208 301q17 -46 53 -69t84 -23q15 41 20 88.5t-1.5 89t-26 69t-53.5 28.5q-18 1 -32.5 -6.5t-25.5 -20.5q12 -7 9 -23q-4 -17 -12.5 -53.5t-14.5 -79.5zM321 189
q-42 4 -71 23.5t-47 48.5q-3 -28 -2 -54t6.5 -46t17 -32t30.5 -13q26 -1 46.5 19.5t35.5 52.5h-4l-8 1h-4zM397 596q2 -4 2 -8q0 -2 -1.5 -5t-5.5 -3h-1q-6 0 -10 6q-10 11 -23 27t-23.5 26.5t-17 15.5t-13.5 5q-8 -1 -18.5 -15t-29 -37t-25.5 -31q-5 -6 -13 -7q-7 0 -32 5
t-27 11t-2 9q0 8 7 18q3 5 12 16.5t26.5 32.5t31.5 35.5t27 25.5t21 11h1q11 0 25.5 -13.5t30.5 -34t31.5 -45t26.5 -45.5z" />
    <glyph glyph-name="otilde" unicode="&#xf5;" 
d="M363 190q-11 -27 -26.5 -50t-34.5 -39.5t-41.5 -26t-48.5 -9.5q-39 0 -65.5 21.5t-42.5 55.5t-22 75t-4.5 80.5t9.5 73t20 51.5q8 12 20 20.5t25.5 13.5t27 7t25.5 1q14 17 33 26.5t44 9.5q41 0 66 -27.5t35.5 -69.5t7 -93t-19.5 -98q31 7 58 26t48 44.5t34.5 54
t17.5 54.5q1 4 4 5.5t7 1t6.5 -2.5t2.5 -5q-3 -34 -18.5 -67.5t-40.5 -61.5t-57.5 -47t-69.5 -24zM208 301q17 -46 53 -69t84 -23q15 41 20 88.5t-1.5 89t-26 69t-53.5 28.5q-18 1 -32.5 -6.5t-25.5 -20.5q12 -7 9 -23q-4 -17 -12.5 -53.5t-14.5 -79.5zM321 189
q-42 4 -71 23.5t-47 48.5q-3 -28 -2 -54t6.5 -46t17 -32t30.5 -13q26 -1 46.5 19.5t35.5 52.5h-4l-8 1h-4zM406 690q1 2 4 4q2 0 4 -1t1 -5q-2 -24 -11 -45t-21 -37t-26 -25t-26 -8q-17 2 -31.5 10t-27 18.5t-23 21.5t-20.5 18q-5 4 -13 6.5t-16 2.5q-13 0 -24.5 -10.5
t-13.5 -42.5q0 -6 -6 -6t-6 8q2 26 11.5 46.5t22.5 34t28.5 19.5t29.5 3q12 -2 25.5 -9t26.5 -16.5l26 -19t25 -16.5q7 -4 15 -4q14 0 26.5 13.5t19.5 39.5z" />
    <glyph glyph-name="odieresis" unicode="&#xf6;" 
d="M299 651q30 0 45 -18.5t15 -40.5t-15 -40.5t-45 -18.5t-45.5 18.5t-15.5 40.5t15.5 40.5t45.5 18.5zM167 651q30 0 45 -18.5t15 -40.5t-15 -40.5t-45 -18.5t-45.5 18.5t-15.5 40.5t15.5 40.5t45.5 18.5zM363 190q-11 -27 -26.5 -50t-34.5 -39.5t-41.5 -26t-48.5 -9.5
q-39 0 -65.5 21.5t-42.5 55.5t-21.5 71t-5.5 69q0 8 1 31.5t9 57t20 51.5q8 12 20 20.5t25.5 13.5t25 6.5t19.5 1.5h8q14 17 33 26.5t44 9.5q41 0 66 -27.5t34 -64t9 -73.5q0 -12 -2 -44t-18 -79q31 7 58 26t48 44.5t34.5 54t17.5 54.5q1 4 3.5 5.5t5.5 1.5q1 0 3.5 -0.5
t5 -2.5t2.5 -5q-3 -34 -18.5 -67.5t-40.5 -61.5t-57.5 -47t-69.5 -24zM208 301q17 -46 53 -69t84 -23q15 41 18.5 75t3.5 54q0 25 -5 57.5t-24.5 60t-53.5 28.5h-4q-16 0 -29.5 -7t-24.5 -20q10 -6 10 -17q0 -3 -1 -6q-4 -17 -12.5 -53.5t-14.5 -79.5zM321 189
q-42 4 -71 23.5t-47 48.5q-2 -21 -2 -41q0 -6 0.5 -22.5t6 -36.5t17 -32t30.5 -13h2q25 0 45 20t35 52h-4l-8 1h-4z" />
    <glyph glyph-name="divide" unicode="&#xf7;" horiz-adv-x="471" 
d="M244 501q30 0 45 -18.5t15 -40.5t-15 -40.5t-45 -18.5t-45.5 18.5t-15.5 40.5t15.5 40.5t45.5 18.5zM444 334q23 0 34 -8t11 -17.5t-12 -17t-37 -7.5l-388 5q-21 0 -31 8t-10 17.5t10.5 17t31.5 7.5zM244 242q30 0 45 -18.5t15 -40.5t-15 -40.5t-45 -18.5t-45.5 18.5
t-15.5 40.5t15.5 40.5t45.5 18.5z" />
    <glyph glyph-name="oslash" unicode="&#xf8;" 
d="M231 228l-27 -49q5 -27 16.5 -44.5t34.5 -18.5h2q25 0 45 20t35 52q-29 0 -57 10t-49 30zM214 287q26 45 52 89.5t55 95.5q-17 12 -37 12h-4q-16 0 -29.5 -7t-24.5 -20q10 -6 10 -17q0 -3 -1 -6q-4 -17 -12.5 -53.5t-14.5 -79.5q4 -10 6 -14zM242 247q21 -21 47.5 -29.5
t55.5 -8.5q10 27 15.5 58t6 48.5t0.5 23.5q0 24 -4 49.5t-15 46.5q-28 -50 -54 -95.5t-52 -92.5zM427 576q-18 -32 -34.5 -62.5t-31.5 -56.5q15 -21 22.5 -50t8 -46.5t0.5 -20.5q0 -30 -5 -63t-16 -65q31 7 58 26t48 44.5t34.5 54t17.5 54.5q1 4 3.5 5.5t5.5 1.5
q1 0 3.5 -0.5t5 -2.5t2.5 -5q-3 -34 -18.5 -67.5t-40.5 -61.5t-57.5 -47t-69.5 -24q-11 -27 -26.5 -50t-34.5 -39.5t-41.5 -26t-48.5 -9.5q-18 0 -33 6t-24 21q-17 -31 -73 -129q-11 -20 -21.5 -29.5t-17.5 -9.5q-13 0 -13.5 11l-0.5 11q0 21 18 52q19 33 36.5 63.5
t33.5 57.5q-21 32 -30.5 76t-9.5 88t8.5 82t21.5 57q8 12 20 20.5t25.5 13.5t25 6.5t19.5 1.5h8q14 17 33 26.5t44 9.5q14 0 25.5 -3.5t20.5 -11.5q16 28 33 57t35 61q12 21 19.5 24.5t11.5 3.5t7.5 -3.5t3.5 -14.5q0 -2 -0.5 -10.5t-10.5 -26.5z" />
    <glyph glyph-name="ugrave" unicode="&#xf9;" horiz-adv-x="612" 
d="M390 460q14 20 38.5 30t47.5 10q19 0 30 -6.5t11 -17.5q0 -3 -1 -7q-4 -19 -14 -59.5t-19 -89.5t-13.5 -90t-4.5 -68q0 -20 3 -50t19.5 -57t50.5 -27q28 0 50 18t39 47.5t29.5 67t22 76t16 75.5t11.5 65q2 9 11 9q4 0 6.5 -2t2.5 -6v-2q-5 -34 -11.5 -76.5t-16.5 -85.5
t-24.5 -83.5t-35 -72t-49 -50.5t-65.5 -19q-42 0 -72 23.5t-49.5 61.5t-29.5 85.5t-13 95.5q-8 -30 -19 -59.5t-28.5 -52.5t-42 -37t-59.5 -14q-43 1 -70 22.5t-41.5 55t-17 63t-2.5 48.5q0 21 3 51.5t12.5 63.5t21.5 50q15 22 41 33t49 11q19 0 29.5 -6.5t10.5 -17.5
q0 -3 -1 -6q-3 -15 -12 -44t-18 -63.5t-15.5 -69t-6.5 -61.5q0 -4 0.5 -21t11 -36.5t36.5 -20.5h3q24 0 41.5 18.5t30.5 48t22 66.5t17 72.5t16 65t18 45.5zM292 715q11 -13 20 -25.5t19 -26t20.5 -30t23.5 -37.5q8 -10 2.5 -18.5t-16.5 -8.5q-5 0 -11 3q-43 27 -72.5 51.5
t-61.5 56.5q-14 14 -16 25.5t16 18.5q18 9 36 9q12 0 22.5 -4.5t17.5 -13.5z" />
    <glyph glyph-name="uacute" unicode="&#xfa;" horiz-adv-x="612" 
d="M390 460q14 20 38.5 30t47.5 10q19 0 30 -6.5t11 -17.5q0 -3 -1 -7q-4 -19 -14 -59.5t-19 -89.5t-13.5 -90t-4.5 -68q0 -20 3 -50t19.5 -57t50.5 -27q28 0 50 18t39 47.5t29.5 67t22 76t16 75.5t11.5 65q2 9 11 9q4 0 6.5 -2t2.5 -6v-2q-5 -34 -11.5 -76.5t-16.5 -85.5
t-24.5 -83.5t-35 -72t-49 -50.5t-65.5 -19q-42 0 -72 23.5t-49.5 61.5t-29.5 85.5t-13 95.5q-8 -30 -19 -59.5t-28.5 -52.5t-42 -37t-59.5 -14q-43 1 -70 22.5t-41.5 55t-17 63t-2.5 48.5q0 21 3 51.5t12.5 63.5t21.5 50q15 22 41 33t49 11q19 0 29.5 -6.5t10.5 -17.5
q0 -3 -1 -6q-3 -15 -12 -44t-18 -63.5t-15.5 -69t-6.5 -61.5q0 -4 0.5 -21t11 -36.5t36.5 -20.5h3q24 0 41.5 18.5t30.5 48t22 66.5t17 72.5t16 65t18 45.5zM369 715q14 18 40 18q18 0 36 -9q18 -7 16 -18.5t-16 -25.5q-16 -16 -31 -30t-30.5 -26.5t-33 -25t-39.5 -26.5
q-6 -3 -11 -3q-11 0 -16.5 8.5t2.5 18.5q13 21 23.5 37.5t20.5 30t19.5 26t19.5 25.5z" />
    <glyph glyph-name="ucircumflex" unicode="&#xfb;" horiz-adv-x="612" 
d="M452 562q2 -4 2 -7q0 -2 -2 -5.5t-7 -3.5q-6 0 -10 7q-9 12 -21 28.5t-24.5 31t-23.5 24t-18 9.5q-8 0 -23.5 -14.5t-32 -33t-31 -36.5t-21.5 -26q-6 -6 -14 -6q-7 0 -14 4t-12 9.5t-6 9.5t-1 6q0 4 3 8q4 5 14.5 17t24.5 27.5t30 32t31 30.5t28.5 23.5t21.5 9.5
q11 0 25 -14.5t28.5 -36t28.5 -47t24 -47.5zM390 460q14 20 38.5 30t47.5 10q19 0 30 -6.5t11 -17.5q0 -3 -1 -7q-4 -19 -14 -59.5t-19 -89.5t-13.5 -90t-4.5 -68q0 -20 3 -50t19.5 -57t50.5 -27q28 0 50 18t39 47.5t29.5 67t22 76t16 75.5t11.5 65q2 9 11 9q4 0 6.5 -2
t2.5 -6v-2q-5 -34 -11.5 -76.5t-16.5 -85.5t-24.5 -83.5t-35 -72t-49 -50.5t-65.5 -19q-42 0 -72 23.5t-49.5 61.5t-29.5 85.5t-13 95.5q-8 -30 -19 -59.5t-28.5 -52.5t-42 -37t-59.5 -14q-43 1 -70 22.5t-41.5 55t-17 63t-2.5 48.5q0 21 3 51.5t12.5 63.5t21.5 50
q15 22 41 33t49 11q19 0 29.5 -6.5t10.5 -17.5q0 -3 -1 -6q-3 -15 -12 -44t-18 -63.5t-15.5 -69t-6.5 -61.5q0 -4 0.5 -21t11 -36.5t36.5 -20.5h3q24 0 41.5 18.5t30.5 48t22 66.5t17 72.5t16 65t18 45.5z" />
    <glyph glyph-name="udieresis" unicode="&#xfc;" horiz-adv-x="612" 
d="M399 651q30 0 45 -18.5t15 -40.5t-15 -40.5t-45 -18.5t-45.5 18.5t-15.5 40.5t15.5 40.5t45.5 18.5zM267 651q30 0 45 -18.5t15 -40.5t-15 -40.5t-45 -18.5t-45.5 18.5t-15.5 40.5t15.5 40.5t45.5 18.5zM390 460q14 20 38.5 30t47.5 10q19 0 30 -6.5t11 -17.5q0 -3 -1 -7
q-4 -19 -14 -59.5t-19 -89.5t-13.5 -90t-4.5 -68q0 -20 3 -50t19.5 -57t50.5 -27q28 0 50 18t39 47.5t29.5 67t22 76t16 75.5t11.5 65q2 9 11 9q4 0 6.5 -2t2.5 -6v-2q-5 -34 -11.5 -76.5t-16.5 -85.5t-24.5 -83.5t-35 -72t-49 -50.5t-65.5 -19q-42 0 -72 23.5t-49.5 61.5
t-29.5 85.5t-13 95.5q-8 -30 -19 -59.5t-28.5 -52.5t-42 -37t-59.5 -14q-43 1 -70 22.5t-41.5 55t-17 63t-2.5 48.5q0 21 3 51.5t12.5 63.5t21.5 50q15 22 41 33t49 11q19 0 29.5 -6.5t10.5 -17.5q0 -3 -1 -6q-3 -15 -12 -44t-18 -63.5t-15.5 -69t-6.5 -61.5q0 -4 0.5 -21
t11 -36.5t36.5 -20.5h3q24 0 41.5 18.5t30.5 48t22 66.5t17 72.5t16 65t18 45.5z" />
    <glyph glyph-name="yacute" unicode="&#xfd;" horiz-adv-x="574" 
d="M246 460q-3 -15 -11.5 -44t-17 -63.5t-14 -68t-5.5 -58.5q0 -6 1 -24t12 -37.5t37 -20.5h2q29 0 48 23t32 57.5t20.5 72.5t12.5 66q5 30 10 51.5t13 34.5q7 12 18 21.5t23.5 16t25.5 10t24 3.5q17 0 27 -6.5t10 -19.5v-2q-5 -88 -13.5 -173.5t-20.5 -172.5q35 30 65 55
t54 52.5t41.5 62t28.5 85.5q3 9 12 9q8 0 8 -6v-3q-10 -54 -30 -93t-48 -71t-63 -61.5t-74 -65.5q-4 -29 -13 -78.5t-22.5 -107.5t-33.5 -117t-46.5 -107t-60.5 -78.5t-76 -30.5q-19 0 -35.5 8t-28 24t-16.5 35t-5 37q0 9 1 19q4 42 21.5 81t45 76.5t62.5 73.5t73 72
q4 59 6.5 118t5.5 113q-9 -27 -21 -51.5t-29.5 -43.5t-40 -30t-52.5 -11q-41 1 -67.5 22.5t-40.5 55t-17 64.5t-3 52q0 19 2.5 48t12 62t21.5 50q15 22 41 33t49 11q19 0 29.5 -6.5t10.5 -17.5q0 -3 -1 -6zM337 -38q-35 -33 -66.5 -66.5t-55.5 -67t-38.5 -67.5t-16.5 -70v-9
q0 -30 13.5 -49t34.5 -19q15 0 31 10t30 31q15 23 26 56t19 72.5t13.5 85t9.5 93.5zM369 715q14 18 40 18q18 0 36 -9q18 -7 16 -18.5t-16 -25.5q-16 -16 -31 -30t-30.5 -26.5t-33 -25t-39.5 -26.5q-6 -3 -11 -3q-11 0 -16.5 8.5t2.5 18.5q13 21 23.5 37.5t20.5 30t19.5 26
t19.5 25.5z" />
    <glyph glyph-name="thorn" unicode="&#xfe;" horiz-adv-x="436" 
d="M152 863q-1 -65 -2.5 -142.5t-3.5 -161t-4 -170t-4 -170.5q14 41 31.5 79.5t40.5 67t47 40.5t46 12q11 0 22 -2q36 -7 59.5 -32t35.5 -59t12.5 -56t0.5 -26q0 -35 -7 -66q-8 -37 -26 -68t-41.5 -53.5t-51.5 -35.5t-57 -13q-37 0 -59 18.5t-25 35t-3 23.5q0 21 13.5 47
t51.5 47q7 4 18 4q15 0 21.5 -6t6.5 -9q0 -5 -8 -10q-26 -15 -39.5 -30.5t-16 -24.5t-2.5 -14q0 -6 3.5 -12.5t14.5 -6.5q13 0 28 11q24 17 38 51t23 77q13 56 13 95q0 14 -4 42.5t-30 38.5q-6 2 -12 2q-17 0 -37 -20.5t-40.5 -60.5t-38 -89.5t-30.5 -93.5q-2 -64 -3 -122.5
t-3 -109.5q-1 -32 -11.5 -48t-21.5 -16t-19.5 13.5t-8.5 37.5v5q2 51 3.5 107.5t3.5 118.5l15 515q2 62 3.5 118.5t3.5 107.5q1 26 10.5 39t20.5 13q10 0 16.5 -9t6.5 -29z" />
    <glyph glyph-name="ydieresis" unicode="&#xff;" horiz-adv-x="574" 
d="M385 648q30 0 45 -18.5t15 -40.5t-15 -40.5t-45 -18.5t-45.5 18.5t-15.5 40.5t15.5 40.5t45.5 18.5zM253 648q30 0 45 -18.5t15 -40.5t-15 -40.5t-45 -18.5t-45.5 18.5t-15.5 40.5t15.5 40.5t45.5 18.5zM246 460q-3 -15 -11.5 -44t-17 -63.5t-14 -68t-5.5 -58.5
q0 -6 1 -24t12 -37.5t37 -20.5h2q29 0 48 23t32 57.5t20.5 72.5t12.5 66q5 30 10 51.5t13 34.5q7 12 18 21.5t23.5 16t25.5 10t24 3.5q17 0 27 -6.5t10 -19.5v-2q-5 -88 -13.5 -173.5t-20.5 -172.5q35 30 65 55t54 52.5t41.5 62t28.5 85.5q3 9 12 9q8 0 8 -6v-3
q-10 -54 -30 -93t-48 -71t-63 -61.5t-74 -65.5q-4 -29 -13 -78.5t-22.5 -107.5t-33.5 -117t-46.5 -107t-60.5 -78.5t-76 -30.5q-19 0 -35.5 8t-28 24t-16.5 35t-5 37q0 9 1 19q4 42 21.5 81t45 76.5t62.5 73.5t73 72q4 59 6.5 118t5.5 113q-9 -27 -21 -51.5t-29.5 -43.5
t-40 -30t-52.5 -11q-41 1 -67.5 22.5t-40.5 55t-17 64.5t-3 52q0 19 2.5 48t12 62t21.5 50q15 22 41 33t49 11q19 0 29.5 -6.5t10.5 -17.5q0 -3 -1 -6zM337 -38q-35 -33 -66.5 -66.5t-55.5 -67t-38.5 -67.5t-16.5 -70v-9q0 -30 13.5 -49t34.5 -19q15 0 31 10t30 31
q15 23 26 56t19 72.5t13.5 85t9.5 93.5z" />
    <glyph glyph-name="Amacron" unicode="&#x100;" horiz-adv-x="1118" 
d="M638 1144h317q22 0 33.5 -8t11.5 -17t-12 -17t-37 -8h-314q-21 0 -31.5 8t-10.5 17t11 17t32 8zM493 488q24 104 54.5 199.5t68.5 169t84 117.5t102 44q41 0 68 -24.5t43 -66.5t23.5 -99.5t8.5 -102.5t1 -70q0 -43 -2 -101t-5 -129q40 5 71.5 24t52.5 61q3 7 10 7
q5 0 7.5 -3t2.5 -6q0 -2 -1 -5q-26 -52 -62.5 -77.5t-81.5 -33.5q-2 -64 -2.5 -98.5t-0.5 -42.5q0 -50 3 -94q3 -42 9.5 -77t18 -60t29 -39t42.5 -14q32 0 56.5 21.5t43 57t31 80.5t21 90.5t14 88t9.5 72.5q0 5 3.5 7t7.5 2q5 0 7.5 -2t2.5 -6v-2q-5 -36 -12 -86t-18 -104.5
t-27 -108t-41 -95.5t-58.5 -67.5t-77.5 -25.5h-3q-39 1 -67 20.5t-48 53.5t-32.5 80.5t-19.5 101.5q-7 56 -9.5 117.5t-3.5 126.5q-65 8 -134 24.5t-141 25.5q-18 -87 -34 -174t-28 -163.5t-21 -138t-14 -98.5q-2 -16 -11.5 -23t-20.5 -7q-13 0 -22 8t-9 18v4q8 42 18 105
t22 139.5t27.5 162t34.5 171.5q-14 1 -27 1q-30 0 -67 -4t-78.5 -19.5t-80 -43.5t-73.5 -72q-4 -5 -10 -5q-5 0 -7.5 3.5t-2.5 5.5q0 3 2 6q36 55 77.5 90t86.5 54.5t85 24.5t72 5q17 0 33 -1zM550 483q69 -9 136.5 -25t129.5 -26q0 98 1.5 159.5t1.5 90.5q0 57 -3.5 117.5
t-17.5 104.5t-46 44q-29 0 -56.5 -38.5t-53 -102.5t-49 -148t-43.5 -176z" />
    <glyph glyph-name="amacron" unicode="&#x101;" horiz-adv-x="546" 
d="M113 593h317q22 0 33.5 -8t11.5 -17t-12 -17t-37 -8h-314q-21 0 -31.5 8t-10.5 17t11 17t32 8zM450 469q-3 -15 -10 -41.5t-15 -60.5t-15.5 -72t-12 -76t-5 -56.5t-0.5 -20.5q0 -32 7 -57.5t21.5 -41t40.5 -15.5q28 0 51 19t41 49.5t32 68.5t24.5 76.5t18 74t12.5 60.5
q1 5 4 6.5t6 1.5q5 0 7.5 -2t2.5 -6v-2q-5 -31 -12.5 -71.5t-18 -83.5t-26 -84t-37.5 -73.5t-51.5 -52.5t-68.5 -20q-38 0 -65.5 20t-46 53t-29 75.5t-13.5 87.5q-27 -66 -56.5 -96t-67.5 -30q-24 0 -46.5 11.5t-39 33t-26 50.5t-9.5 62v7q1 39 14 75.5t36 64t54 43.5t68 16
h5q31 -1 52 -11.5t32 -27.5q8 24 16 37q14 20 38.5 30t47.5 10q19 0 30 -6.5t11 -17.5q0 -3 -1 -7zM290 276q0 62 9 110q-4 20 -18.5 33t-33.5 13q-14 0 -28 -8.5t-26 -27.5t-20 -50.5t-10 -76.5v-19q0 -45 9 -72.5t27 -27.5t41.5 30.5t49.5 95.5z" />
    <glyph glyph-name="Abreve" unicode="&#x102;" horiz-adv-x="1007" 
d="M439 483q69 -9 136.5 -25t129.5 -26q0 98 1.5 159.5t1.5 90.5q0 57 -3.5 117.5t-17.5 104.5t-46 44q-29 0 -56.5 -38.5t-53 -102.5t-49 -148t-43.5 -176zM382 488q24 104 54.5 199.5t68.5 169t84 117.5t102 44q41 0 68 -24.5t43 -66.5t23.5 -99.5t8.5 -102.5t1 -70
q0 -43 -2 -101t-5 -129q40 5 71.5 24t52.5 61q3 7 10 7q5 0 7.5 -3t2.5 -6q0 -2 -1 -5q-26 -52 -62.5 -77.5t-81.5 -33.5q-1 -22 -3.5 -61.5t-3 -66.5t-0.5 -33q0 -41 3 -86.5t14 -85.5t31 -66t54 -26q31 0 54.5 21.5t42 56t31.5 79t22.5 90t16.5 88t12 74.5q1 5 4 6.5
t6 1.5q5 0 7.5 -2t2.5 -6v-2q-7 -37 -15 -87.5t-19.5 -104.5t-28.5 -107t-42 -94.5t-58.5 -66.5t-76.5 -25h-3q-47 1 -78 29t-50 72.5t-28 100t-13 110.5t-4 188q-65 8 -134 24.5t-141 25.5q-18 -87 -34 -174t-28 -163.5t-21 -138t-14 -98.5q-2 -16 -11.5 -23t-20.5 -7
q-13 0 -22 8t-9 18v4q8 42 18 105t22 139.5t27.5 162t34.5 171.5q-14 1 -27 1q-30 0 -67 -4t-78.5 -19.5t-80 -43.5t-73.5 -72q-4 -5 -10 -5q-5 0 -7.5 3.5t-2.5 5.5q0 3 2 6q36 55 77.5 90t86.5 54.5t85 24.5t72 5q17 0 33 -1zM634 1233q0 -49 23.5 -64t50.5 -15h4
q41 0 65 16.5t35 55.5q1 4 4 4h2q4 -1 4 -6q-1 -23 -17 -59t-47 -60.5t-65 -24.5h-5q-30 0 -51.5 21t-24 45t-2.5 34q0 28 8 55q3 5 8 5h2q6 -1 6 -7z" />
    <glyph glyph-name="abreve" unicode="&#x103;" horiz-adv-x="546" 
d="M450 469q-3 -15 -10 -41.5t-15 -60.5t-15.5 -72t-12 -76t-5 -56.5t-0.5 -20.5q0 -32 7 -57.5t21.5 -41t40.5 -15.5q28 0 51 19t41 49.5t32 68.5t24.5 76.5t18 74t12.5 60.5q1 5 4 6.5t6 1.5q5 0 7.5 -2t2.5 -6v-2q-5 -31 -12.5 -71.5t-18 -83.5t-26 -84t-37.5 -73.5
t-51.5 -52.5t-68.5 -20q-38 0 -65.5 20t-46 53t-29 75.5t-13.5 87.5q-27 -66 -56.5 -96t-67.5 -30q-24 0 -46.5 11.5t-39 33t-26 50.5t-9.5 62v7q1 39 14 75.5t36 64t54 43.5t68 16h5q31 -1 52 -11.5t32 -27.5q8 24 16 37q14 20 38.5 30t47.5 10q19 0 30 -6.5t11 -17.5
q0 -3 -1 -7zM290 276q0 62 9 110q-4 20 -18.5 33t-33.5 13q-14 0 -28 -8.5t-26 -27.5t-20 -50.5t-10 -76.5v-19q0 -45 9 -72.5t27 -27.5t41.5 30.5t49.5 95.5zM224 706q0 -49 23.5 -64t50.5 -15h4q41 0 65 16.5t35 55.5q1 4 4 4h2q4 -1 4 -6q-1 -23 -17 -59t-47 -60.5
t-65 -24.5h-5q-30 0 -51.5 21t-24 45t-2.5 34q0 28 8 55q3 5 8 5h2q6 -1 6 -7z" />
    <glyph glyph-name="Aogonek" unicode="&#x104;" horiz-adv-x="1118" 
d="M493 488q24 104 54.5 199.5t68.5 169t84 117.5t102 44q41 0 68 -24.5t43 -66.5t23.5 -99.5t8.5 -102.5t1 -70q0 -43 -2 -101t-5 -129q40 5 71.5 24t52.5 61q3 7 10 7q5 0 7.5 -3t2.5 -6q0 -2 -1 -5q-26 -52 -62.5 -77.5t-81.5 -33.5q-2 -64 -2.5 -98.5t-0.5 -42.5
q0 -50 3 -94q3 -42 9.5 -77t18 -60t29 -39t42.5 -14q32 0 56.5 21.5t43 57t31 80.5t21 90.5t14 88t9.5 72.5q0 5 3.5 7t7.5 2q5 0 7.5 -2t2.5 -6v-2q-8 -57 -15 -118.5t-18.5 -120t-31 -110.5t-52.5 -91q-24 -29 -25 -39.5t-1 -12.5q0 -15 13.5 -24.5t32 -11t30.5 -1.5
q17 0 37 2h2q10 0 14.5 -7t4.5 -17q0 -1 -0.5 -6.5t-7.5 -15t-21 -12.5q-15 -3 -28.5 -4t-24.5 -1q-34 0 -56 9.5t-33.5 25t-12.5 27.5t-1 16q0 16 5 33q-24 -8 -48 -8q-39 0 -67 19.5t-48 53.5t-32.5 81t-19.5 102q-7 56 -9.5 117.5t-3.5 126.5q-65 8 -134 24.5t-141 25.5
q-18 -87 -34 -174t-28 -163.5t-21 -138t-14 -98.5q-2 -16 -11.5 -23t-20.5 -7q-13 0 -22 8t-9 18v4q8 42 18 105t22 139.5t27.5 162t34.5 171.5q-14 1 -27 1q-30 0 -67 -4t-78.5 -19.5t-80 -43.5t-73.5 -72q-4 -5 -10 -5q-5 0 -7.5 3.5t-2.5 5.5q0 3 2 6q36 55 77.5 90
t86.5 54.5t85 24.5t72 5q17 0 33 -1zM550 483q69 -9 136.5 -25t129.5 -26q0 98 1.5 159.5t1.5 90.5q0 57 -3.5 117.5t-17.5 104.5t-46 44q-29 0 -56.5 -38.5t-53 -102.5t-49 -148t-43.5 -176z" />
    <glyph glyph-name="Cacute" unicode="&#x106;" horiz-adv-x="758" 
d="M632 1261q-10 -28 -17.5 -48t-13.5 -34.5t-12 -25t-12 -20.5q-25 -38 -39 -38t-14 39q0 9 1 20t2.5 22t4 25t7 33.5t11.5 47.5q4 15 15 22t24 7q10 0 19.5 -3.5t16 -10t8 -13t1.5 -10.5q0 -6 -2 -13zM513 1017q63 0 108 -25.5t73 -68t38.5 -92t10.5 -96.5q0 -11 -1.5 -45
t-18.5 -91.5t-46 -105.5t-70 -82.5t-93 -46.5h-2q-3 0 -5.5 2t-3 4.5t-0.5 3.5q0 3 2 6.5t7 4.5q67 16 109.5 62.5t62 106.5t19.5 124q0 3 -0.5 38.5t-21 94t-60.5 99.5t-97 49q-12 2 -23 2q-38 0 -76 -21t-73 -66t-60.5 -107.5t-41.5 -134.5t-19.5 -127t-3.5 -87
q0 -43 5 -100.5t24 -123.5t51.5 -115.5t79 -79.5t107.5 -31h5q46 0 88 16.5t79.5 47t68 71t54.5 86.5t39.5 94t23.5 94q2 9 11 9q4 0 6.5 -2t2.5 -6v-2q-13 -88 -50 -171.5t-95 -149t-134.5 -105t-169.5 -39.5q-102 0 -171 47.5t-109 125.5t-49 152.5t-9 125.5t9 129
t44.5 177t89.5 177t126.5 125t158.5 47z" />
    <glyph glyph-name="cacute" unicode="&#x107;" horiz-adv-x="417" 
d="M349 698q-10 -28 -17.5 -48t-13.5 -34.5t-12 -25t-12 -20.5q-25 -38 -39 -38t-14 39q0 9 1 20t2.5 22t4 25t7 33.5t11.5 47.5q4 15 15 22t24 7q10 0 19.5 -3.5t16 -10t8 -13t1.5 -10.5q0 -6 -2 -13zM291 81q42 1 79 30t66.5 72.5t49 94.5t25.5 97q2 9 11 9q4 0 6.5 -2
t2.5 -6v-2q-10 -60 -33.5 -120.5t-61 -109.5t-87.5 -80.5t-113 -31.5q-53 0 -88.5 22t-56 58t-25.5 70.5t-5 57.5q0 24 5 59.5t23.5 80t46.5 77.5t61 49t64 16q11 0 22 -2q41 -6 63 -27.5t27.5 -41.5t5.5 -33t-5.5 -32.5t-22.5 -33.5q-15 -12 -32 -12q-15 0 -21 7t-6 12
q0 6 6 14q7 9 11.5 24.5t5 24t0.5 9.5q0 14 -6 27t-20 17q-5 1 -9 1q-13 0 -27.5 -12t-28 -39t-23 -63t-12 -65.5t-2.5 -50.5q0 -17 2 -44t14 -56.5t33.5 -47t54.5 -17.5z" />
    <glyph glyph-name="Ccircumflex" unicode="&#x108;" horiz-adv-x="758" 
d="M608 1127q2 -4 2 -7q0 -2 -2 -5.5t-7 -3.5q-6 0 -10 7q-9 12 -21 28.5t-24.5 31t-23.5 24t-18 9.5q-8 0 -23.5 -14.5t-32 -33t-31 -36.5t-21.5 -26q-6 -6 -14 -6q-7 0 -14 4t-12 9.5t-6 9.5t-1 6q0 4 3 8q4 5 14.5 17t24.5 27.5t30 32t31 30.5t28.5 23.5t21.5 9.5
q11 0 25 -14.5t28.5 -36t28.5 -47t24 -47.5zM513 1017q63 0 108 -25.5t73 -68t38.5 -92t10.5 -96.5q0 -11 -1.5 -45t-18.5 -91.5t-46 -105.5t-70 -82.5t-93 -46.5h-2q-3 0 -5.5 2t-3 4.5t-0.5 3.5q0 3 2 6.5t7 4.5q67 16 109.5 62.5t62 106.5t19.5 124q0 3 -0.5 38.5t-21 94
t-60.5 99.5t-97 49q-12 2 -23 2q-38 0 -76 -21t-73 -66t-60.5 -107.5t-41.5 -134.5t-19.5 -127t-3.5 -87q0 -43 5 -100.5t24 -123.5t51.5 -115.5t79 -79.5t107.5 -31h5q46 0 88 16.5t79.5 47t68 71t54.5 86.5t39.5 94t23.5 94q2 9 11 9q4 0 6.5 -2t2.5 -6v-2
q-13 -88 -50 -171.5t-95 -149t-134.5 -105t-169.5 -39.5q-102 0 -171 47.5t-109 125.5t-49 152.5t-9 125.5t9 129t44.5 177t89.5 177t126.5 125t158.5 47z" />
    <glyph glyph-name="ccircumflex" unicode="&#x109;" horiz-adv-x="417" 
d="M377 565q2 -4 2 -7q0 -2 -2 -5.5t-7 -3.5q-6 0 -10 7q-9 12 -21 28.5t-24.5 31t-23.5 24t-18 9.5q-8 0 -23.5 -14.5t-32 -33t-31 -36.5t-21.5 -26q-6 -6 -14 -6q-7 0 -14 4t-12 9.5t-6 9.5t-1 6q0 4 3 8q4 5 14.5 17t24.5 27.5t30 32t31 30.5t28.5 23.5t21.5 9.5
q11 0 25 -14.5t28.5 -36t28.5 -47t24 -47.5zM291 81q42 1 79 30t66.5 72.5t49 94.5t25.5 97q2 9 11 9q4 0 6.5 -2t2.5 -6v-2q-10 -60 -33.5 -120.5t-61 -109.5t-87.5 -80.5t-113 -31.5q-53 0 -88.5 22t-56 58t-25.5 70.5t-5 57.5q0 24 5 59.5t23.5 80t46.5 77.5t61 49t64 16
q11 0 22 -2q41 -6 63 -27.5t27.5 -41.5t5.5 -33t-5.5 -32.5t-22.5 -33.5q-15 -12 -32 -12q-15 0 -21 7t-6 12q0 6 6 14q7 9 11.5 24.5t5 24t0.5 9.5q0 14 -6 27t-20 17q-5 1 -9 1q-13 0 -27.5 -12t-28 -39t-23 -63t-12 -65.5t-2.5 -50.5q0 -17 2 -44t14 -56.5t33.5 -47
t54.5 -17.5z" />
    <glyph glyph-name="Cdotaccent" unicode="&#x10a;" horiz-adv-x="758" 
d="M514 1212q30 0 45 -18.5t15 -40.5t-15 -40.5t-45 -18.5t-45.5 18.5t-15.5 40.5t15.5 40.5t45.5 18.5zM513 1017q63 0 108 -25.5t73 -68t38.5 -92t10.5 -96.5q0 -11 -1.5 -45t-18.5 -91.5t-46 -105.5t-70 -82.5t-93 -46.5h-2q-3 0 -5.5 2t-3 4.5t-0.5 3.5q0 3 2 6.5t7 4.5
q67 16 109.5 62.5t62 106.5t19.5 124q0 3 -0.5 38.5t-21 94t-60.5 99.5t-97 49q-12 2 -23 2q-38 0 -76 -21t-73 -66t-60.5 -107.5t-41.5 -134.5t-19.5 -127t-3.5 -87q0 -43 5 -100.5t24 -123.5t51.5 -115.5t79 -79.5t107.5 -31h5q46 0 88 16.5t79.5 47t68 71t54.5 86.5
t39.5 94t23.5 94q2 9 11 9q4 0 6.5 -2t2.5 -6v-2q-13 -88 -50 -171.5t-95 -149t-134.5 -105t-169.5 -39.5q-102 0 -171 47.5t-109 125.5t-49 152.5t-9 125.5t9 129t44.5 177t89.5 177t126.5 125t158.5 47z" />
    <glyph glyph-name="cdotaccent" unicode="&#x10b;" horiz-adv-x="417" 
d="M259 666q30 0 45 -18.5t15 -40.5t-15 -40.5t-45 -18.5t-45.5 18.5t-15.5 40.5t15.5 40.5t45.5 18.5zM291 81q42 1 79 30t66.5 72.5t49 94.5t25.5 97q2 9 11 9q4 0 6.5 -2t2.5 -6v-2q-10 -60 -33.5 -120.5t-61 -109.5t-87.5 -80.5t-113 -31.5q-53 0 -88.5 22t-56 58
t-25.5 70.5t-5 57.5q0 24 5 59.5t23.5 80t46.5 77.5t61 49t64 16q11 0 22 -2q41 -6 63 -27.5t27.5 -41.5t5.5 -33t-5.5 -32.5t-22.5 -33.5q-15 -12 -32 -12q-15 0 -21 7t-6 12q0 6 6 14q7 9 11.5 24.5t5 24t0.5 9.5q0 14 -6 27t-20 17q-5 1 -9 1q-13 0 -27.5 -12t-28 -39
t-23 -63t-12 -65.5t-2.5 -50.5q0 -17 2 -44t14 -56.5t33.5 -47t54.5 -17.5z" />
    <glyph glyph-name="Ccaron" unicode="&#x10c;" horiz-adv-x="758" 
d="M595 1206q-8 -18 -19.5 -38.5t-23.5 -38t-23.5 -29.5t-20.5 -12q-10 0 -28.5 16t-38 36t-35.5 38.5t-21 23.5q-3 4 -3 8q0 6 8 14.5t20 8.5q6 0 11 -5q6 -7 18 -22t25.5 -30t26 -27t18.5 -12t15 8.5t19 20.5t20 25t17 23q4 6 8 6q2 0 5.5 -2t3.5 -6q0 -3 -2 -6zM513 1017
q63 0 108 -25.5t73 -68t38.5 -92t10.5 -96.5q0 -11 -1.5 -45t-18.5 -91.5t-46 -105.5t-70 -82.5t-93 -46.5h-2q-3 0 -5.5 2t-3 4.5t-0.5 3.5q0 3 2 6.5t7 4.5q67 16 109.5 62.5t62 106.5t19.5 124q0 3 -0.5 38.5t-21 94t-60.5 99.5t-97 49q-12 2 -23 2q-38 0 -76 -21
t-73 -66t-60.5 -107.5t-41.5 -134.5t-19.5 -127t-3.5 -87q0 -43 5 -100.5t24 -123.5t51.5 -115.5t79 -79.5t107.5 -31h5q46 0 88 16.5t79.5 47t68 71t54.5 86.5t39.5 94t23.5 94q2 9 11 9q4 0 6.5 -2t2.5 -6v-2q-13 -88 -50 -171.5t-95 -149t-134.5 -105t-169.5 -39.5
q-102 0 -171 47.5t-109 125.5t-49 152.5t-9 125.5t9 129t44.5 177t89.5 177t126.5 125t158.5 47z" />
    <glyph glyph-name="ccaron" unicode="&#x10d;" horiz-adv-x="417" 
d="M344 658q-8 -18 -19.5 -38.5t-23.5 -38t-23.5 -29.5t-20.5 -12q-10 0 -28.5 16t-38 36t-35.5 38.5t-21 23.5q-3 4 -3 8q0 6 8 14.5t20 8.5q6 0 11 -5q6 -7 18 -22t25.5 -30t26 -27t18.5 -12t15 8.5t19 20.5t20 25t17 23q4 6 8 6q2 0 5.5 -2t3.5 -6q0 -3 -2 -6zM291 81
q42 1 79 30t66.5 72.5t49 94.5t25.5 97q2 9 11 9q4 0 6.5 -2t2.5 -6v-2q-10 -60 -33.5 -120.5t-61 -109.5t-87.5 -80.5t-113 -31.5q-53 0 -88.5 22t-56 58t-25.5 70.5t-5 57.5q0 24 5 59.5t23.5 80t46.5 77.5t61 49t64 16q11 0 22 -2q41 -6 63 -27.5t27.5 -41.5t5.5 -33
t-5.5 -32.5t-22.5 -33.5q-15 -12 -32 -12q-15 0 -21 7t-6 12q0 6 6 14q7 9 11.5 24.5t5 24t0.5 9.5q0 14 -6 27t-20 17q-5 1 -9 1q-13 0 -27.5 -12t-28 -39t-23 -63t-12 -65.5t-2.5 -50.5q0 -17 2 -44t14 -56.5t33.5 -47t54.5 -17.5z" />
    <glyph glyph-name="Dcaron" unicode="&#x10e;" horiz-adv-x="1051" 
d="M711 1209q-8 -18 -19.5 -38.5t-23.5 -38t-23.5 -29.5t-20.5 -12q-10 0 -28.5 16t-38 36t-35.5 38.5t-21 23.5q-3 4 -3 8q0 6 8 14.5t20 8.5q6 0 11 -5q6 -7 18 -22t25.5 -30t26 -27t18.5 -12t15 8.5t19 20.5t20 25t17 23q4 6 8 6q2 0 5.5 -2t3.5 -6q0 -3 -2 -6zM323 93
q7 41 14 100.5t11.5 129t5 110t0.5 45.5q0 70 -6.5 140t-22 135.5t-42 115.5t-66 79t-95.5 30q-49 0 -90 -25.5t-72 -67t-50.5 -95t-25 -95.5t-5.5 -69q0 -28 5.5 -68t27.5 -81.5t60.5 -66.5t92.5 -25h4q48 0 85 18.5t60 48.5t28 56.5t5 40.5q0 24 -7 48q-1 2 -1 4
q0 3 3 6.5t8 3.5q7 0 10 -8q8 -28 8 -55q0 -18 -6.5 -48t-33.5 -63t-69 -53t-92 -20h-4q-58 0 -100.5 27.5t-67.5 73t-31 90t-6 74.5t6 75.5t30.5 104.5t64 105.5t93.5 74.5t122 28q70 0 123 -30.5t90 -84.5t59 -128.5t30 -162.5q15 91 43.5 159.5t66 114t80 68.5t85.5 23
q49 0 94 -29.5t78 -89t47.5 -136t14.5 -154.5q0 -32 -2 -67q-5 -79 -19 -150t-36 -133q39 7 74 18.5t63.5 30t49.5 45.5t30 65q1 8 11 8q4 0 7 -2t3 -5q0 -1 -1 -3q-10 -46 -34 -77.5t-56.5 -52t-72.5 -32t-83 -18.5q-26 -67 -60 -120t-73 -90t-79.5 -54.5t-79.5 -17.5h-8
q-50 3 -77 30.5t-30 50t-3 31.5q0 28 14 62t48 59q20 14 46.5 23.5t57.5 15.5t64.5 10t68.5 8q20 69 32 152t14 181v32q0 75 -8.5 138t-25.5 107.5t-41 66t-51 21.5q-37 0 -77.5 -38t-77.5 -110t-66 -174.5t-43 -231.5q0 -3 -2.5 -25t-6.5 -58t-9 -82.5t-11 -97.5
q-2 -19 -17 -27t-34 -8q-12 0 -23.5 3t-20.5 9t-13.5 13.5t-4.5 13.5q0 3 1 6zM801 181q-66 -6 -124.5 -15.5t-93.5 -35.5q-28 -20 -41 -49.5t-13 -56.5q0 -3 1 -19t18 -37.5t51 -22.5h4q55 0 107.5 60.5t90.5 175.5z" />
    <glyph glyph-name="dcaron" unicode="&#x10f;" horiz-adv-x="847" 
d="M293 278q-3 32 -3.5 57t-0.5 42v34q-8 9 -18.5 14.5t-22.5 5.5q-13 0 -27 -8.5t-26 -27.5t-20 -50t-10 -76v-19q0 -44 9 -72t27 -28t42 31t50 97zM408 421q29 26 54.5 61.5t46 75t35 80.5t20.5 78q5 29 5 54q0 9 -1.5 30t-8 46.5t-17.5 41t-23 17.5h-3q-12 0 -25 -17.5
t-25 -51.5t-21.5 -81t-17.5 -101.5t-12.5 -114t-6.5 -118.5zM498 28q22 0 42.5 21t39 54t34.5 73.5t28 79.5t19 71.5t8 49.5q0 9 10 9q4 0 7 -2t3 -6v-2q-3 -27 -11 -66.5t-21.5 -82.5t-32.5 -85.5t-44 -76.5t-55.5 -55t-67.5 -21q-34 0 -60.5 18.5t-46 51.5t-32.5 78
t-20 97q-29 -70 -58.5 -102.5t-69.5 -32.5q-24 0 -46.5 11.5t-39 33t-26 50.5t-9.5 62v7q1 39 14 75.5t36 64t54 43.5t68 16h5q39 -1 65 -19q3 64 12 127t23 121t33 107t42 84.5t48 53.5t51 18h8q29 -2 47 -22t27 -51.5t9.5 -53.5t0.5 -27q0 -35 -6 -72q-7 -45 -23.5 -92.5
t-39.5 -92t-52.5 -83t-62.5 -65.5v-26q0 -58 4 -118.5t14.5 -111.5t28.5 -81t43 -30zM839 778v-12q0 -32 -9.5 -53.5t-14.5 -29.5q-9 -14 -17.5 -19.5t-15.5 -5.5q-8 0 -11 4.5t-3 8.5q0 3 2 7q8 15 8 27q0 2 -1 10t-7 19t-26 31q-19 18 -21 29.5t-2 16.5q0 12 6 24.5
t20.5 21t30.5 8.5q22 0 40.5 -19.5t20.5 -67.5z" />
    <glyph glyph-name="Dcroat" unicode="&#x110;" horiz-adv-x="1051" 
d="M204 337q-21 0 -31 8t-10 17t10.5 17t31.5 8h147q2 40 2 81q0 28 -1.5 76.5t-10 114t-24.5 123.5t-42.5 101.5t-64.5 69t-89 25.5q-49 0 -90 -25.5t-72 -67t-50.5 -95t-25 -95.5t-5.5 -69q0 -28 5.5 -68t27.5 -81.5t60.5 -66.5t92.5 -25h4q48 0 85 18.5t60 48t28 56
t5 40.5q0 24 -7 48q-1 2 -1 3q0 3 3.5 6.5t8.5 3.5q6 0 9 -7q8 -28 8 -55q0 -18 -6.5 -48t-33.5 -62.5t-69 -52.5t-92 -20h-4q-58 0 -100.5 27.5t-67.5 73t-31 90t-6 74.5t6 75.5t30.5 104.5t64 105.5t93.5 74.5t122 28q70 0 123 -30.5t90 -84.5t59 -128.5t30 -162.5
q15 91 43.5 159.5t66 114t80 68.5t85.5 23q49 0 94 -29.5t78 -89t47.5 -136t14.5 -154.5q0 -32 -2 -67q-5 -79 -19 -150t-36 -133q39 7 74 18.5t63.5 30t49.5 45.5t30 65q1 8 11 8q4 0 7 -2t3 -5q0 -1 -1 -3q-10 -46 -34 -77.5t-56.5 -52t-72.5 -32t-83 -18.5
q-26 -67 -60 -120t-73 -90t-79.5 -54.5t-79.5 -17.5h-8q-50 3 -77 30.5t-30 50t-3 31.5q0 28 14 62t48 59q20 14 46.5 23.5t57.5 15.5t64.5 10t68.5 8q20 69 32 152t14 180v33q0 75 -8.5 138.5t-26 108.5t-41.5 66.5t-52 21.5q-36 0 -75.5 -35.5t-75 -102.5t-64 -162
t-43.5 -215h128q23 0 34 -8t11 -17t-12 -17t-37 -8h-128q-1 -11 -4 -35.5t-7 -58.5t-8.5 -75t-9.5 -85q-2 -19 -17 -27t-34 -8q-12 0 -23.5 3t-20.5 9t-13.5 13.5t-4.5 13.5q0 3 1 6q8 43 14.5 106t11.5 138h-145zM801 181q-66 -6 -124.5 -15.5t-93.5 -35.5
q-28 -20 -41 -49.5t-13 -56.5q0 -3 1 -19t18 -37.5t51 -22.5h4q55 0 107.5 60.5t90.5 175.5z" />
    <glyph glyph-name="dcroat" unicode="&#x111;" horiz-adv-x="575" 
d="M293 278q-3 32 -3.5 57t-0.5 42v34q-8 9 -18.5 14.5t-22.5 5.5q-13 0 -27 -8.5t-26 -27.5t-20 -50t-10 -76v-19q0 -44 9 -72t27 -28t42 31t50 97zM427 656q-8 -55 -12.5 -115t-6.5 -120q23 21 44.5 48.5t39.5 58t32.5 63.5t24.5 65h-122zM562 706l1 2v6l1 2q5 29 5 54
q0 9 -1.5 30t-8 46.5t-17.5 41t-23 17.5h-3q-11 0 -22.5 -13t-22 -40t-19.5 -64t-17 -82h127zM246 706h84q14 55 33 101.5t41.5 79.5t47 50t50.5 17h6q29 -2 47 -22t27 -51.5t9.5 -53.5t0.5 -27q0 -35 -6 -72q-1 -5 -1.5 -11t-2.5 -11h11q22 0 33.5 -8t11.5 -17t-12 -17
t-37 -8h-20q-12 -38 -28.5 -75.5t-37 -71.5t-44.5 -63.5t-51 -50.5v-26q0 -58 4 -118.5t14.5 -111.5t28.5 -81t43 -30q22 0 42.5 21t39 54t34.5 73.5t28 79.5t19 71.5t8 49.5q0 9 10 9q4 0 7 -2t3 -6v-2q-3 -27 -11 -66.5t-21.5 -82.5t-32.5 -85.5t-44 -76.5t-55.5 -55
t-67.5 -21q-34 0 -60.5 18.5t-46 51.5t-32.5 78t-20 97q-29 -70 -58.5 -102.5t-69.5 -32.5q-24 0 -46.5 11.5t-39 33t-26 50.5t-9.5 62v7q1 39 14 75.5t36 64t54 43.5t68 16h5q39 -1 65 -19q3 54 9.5 108t17.5 105h-73q-21 0 -31.5 8t-10.5 17t11 17t32 8z" />
    <glyph glyph-name="Emacron" unicode="&#x112;" horiz-adv-x="757" 
d="M349 1147h317q22 0 33.5 -8t11.5 -17t-12 -17t-37 -8h-314q-21 0 -31.5 8t-10.5 17t11 17t32 8zM698 756q-21 -31 -55 -43t-76 -12q-37 0 -77.5 6.5t-82.5 15.5q1 -46 10.5 -87t31 -71.5t56.5 -50t87 -24.5q6 -1 6.5 -4.5t0.5 -4.5q0 -6 -7 -8q-40 -11 -81.5 -25.5
t-73.5 -34.5q-47 -29 -73.5 -73t-33 -80.5t-6.5 -60.5q0 -25 7 -62.5t31 -77t62.5 -65t89.5 -26.5h5q40 0 79 16.5t74 47t64.5 71t52.5 86.5t39 94t23 94q2 9 11 9q4 0 6.5 -2t2.5 -6v-2q-13 -88 -50 -171.5t-92 -149t-127 -105t-156 -39.5q-76 0 -128 32.5t-80 83
t-30.5 87.5t-2.5 47q0 52 18.5 108t62 108.5t111.5 82.5q20 9 41.5 15t42.5 11q-38 14 -73 38.5t-62 59t-43.5 76.5t-18.5 90q-54 11 -100 12h-5q-63 0 -107 -22.5t-70 -58t-31 -64.5t-5 -45q0 -23 8.5 -51.5t36 -52t68.5 -23.5h3q44 1 67 24t26.5 42t3.5 28q0 19 -9.5 41.5
t-33.5 30.5q-4 2 -5 5t-1 5q0 1 0.5 3.5t2.5 4.5t5 2h2q25 -6 39 -24t17 -35t3 -27q0 -14 -4.5 -34.5t-20 -42t-40.5 -36t-60 -15.5h-3q-48 0 -80 27t-43.5 62t-11.5 67q0 15 4.5 47.5t32 74t75.5 67.5t113 26h10q25 -1 53.5 -5t59.5 -10q3 61 29 107t65 76.5t85 46t88 15.5
q62 0 100.5 -29t54.5 -67t16 -76q0 -6 -1.5 -32t-22.5 -58zM408 747q42 -8 81 -14t74 -6q40 0 70.5 10t47.5 35q16 24 16 56q0 2 -0.5 20.5t-16.5 49.5t-44 50.5t-64 19.5h-10q-41 -3 -70.5 -24.5t-48 -53.5t-27 -70t-8.5 -73z" />
    <glyph glyph-name="emacron" unicode="&#x113;" horiz-adv-x="384" 
d="M32 580h317q22 0 33.5 -8t11.5 -17t-12 -17t-37 -8h-314q-21 0 -31.5 8t-10.5 17t11 17t32 8zM235 99q-67 1 -105 32t-50 69.5t-12 72.5q0 16 4.5 51t27.5 80t60 75t82 30q13 0 28 -3q35 -8 54 -29.5t22.5 -40.5t3.5 -31q0 -17 -6 -40t-25.5 -46t-47 -35t-56.5 -12
q-9 0 -18 1q2 -25 8.5 -48t19 -40t31 -27t43.5 -10q59 1 109 60.5t72 179.5q2 6 9 6q5 0 8 -2t3 -5v-2q-11 -63 -33.5 -116t-56 -91.5t-76.5 -58.5t-94 -20h-5zM196 291q25 1 43.5 13t31.5 29.5t19.5 38.5t7 31t0.5 12q0 16 -5.5 30t-18.5 19q-5 2 -10 2q-10 0 -22.5 -11.5
t-23 -37t-16.5 -57t-6 -60.5v-9z" />
    <glyph glyph-name="Ebreve" unicode="&#x114;" horiz-adv-x="757" 
d="M478 1258v-4q0 -48 21.5 -75t48.5 -27q25 0 45.5 24t23.5 75q2 14 16 14q5 0 9.5 -3t4.5 -9v-2q-3 -38 -13 -66t-24 -46.5t-31 -27.5t-34 -9q-19 0 -36.5 10t-31 29.5t-20.5 47t-7 58.5v9q0 5 5 8t10 3q13 0 13 -9zM698 756q-21 -31 -55 -43t-76 -12q-37 0 -77.5 6.5
t-82.5 15.5q1 -46 10.5 -87t31 -71.5t56.5 -50t87 -24.5q6 -1 6.5 -4.5t0.5 -4.5q0 -6 -7 -8q-40 -11 -81.5 -25.5t-73.5 -34.5q-47 -29 -73.5 -73t-33 -80.5t-6.5 -60.5q0 -25 7 -62.5t31 -77t62.5 -65t89.5 -26.5h5q40 0 79 16.5t74 47t64.5 71t52.5 86.5t39 94t23 94
q2 9 11 9q4 0 6.5 -2t2.5 -6v-2q-13 -88 -50 -171.5t-92 -149t-127 -105t-156 -39.5q-76 0 -128 32.5t-80 83t-30.5 87.5t-2.5 47q0 52 18.5 108t62 108.5t111.5 82.5q20 9 41.5 15t42.5 11q-38 14 -73 38.5t-62 59t-43.5 76.5t-18.5 90q-54 11 -100 12h-5q-63 0 -107 -22.5
t-70 -58t-31 -64.5t-5 -45q0 -23 8.5 -51.5t36 -52t68.5 -23.5h3q44 1 67 24t26.5 42t3.5 28q0 19 -9.5 41.5t-33.5 30.5q-4 2 -5 5t-1 5q0 1 0.5 3.5t2.5 4.5t5 2h2q25 -6 39 -24t17 -35t3 -27q0 -14 -4.5 -34.5t-20 -42t-40.5 -36t-60 -15.5h-3q-48 0 -80 27t-43.5 62
t-11.5 67q0 15 4.5 47.5t32 74t75.5 67.5t113 26h10q25 -1 53.5 -5t59.5 -10q3 61 29 107t65 76.5t85 46t88 15.5q62 0 100.5 -29t54.5 -67t16 -76q0 -6 -1.5 -32t-22.5 -58zM408 747q42 -8 81 -14t74 -6q40 0 70.5 10t47.5 35q16 24 16 56q0 2 -0.5 20.5t-16.5 49.5
t-44 50.5t-64 19.5h-10q-41 -3 -70.5 -24.5t-48 -53.5t-27 -70t-8.5 -73z" />
    <glyph glyph-name="ebreve" unicode="&#x115;" horiz-adv-x="384" 
d="M172 689v-4q0 -48 21.5 -75t48.5 -27q25 0 45.5 24t23.5 75q2 14 16 14q5 0 9.5 -3t4.5 -9v-2q-3 -38 -13 -66t-24 -46.5t-31 -27.5t-34 -9q-19 0 -36.5 10t-31 29.5t-20.5 47t-7 58.5v9q0 5 5 8t10 3q13 0 13 -9zM235 99q-67 1 -105 32t-50 69.5t-12 72.5q0 16 4.5 51
t27.5 80t60 75t82 30q13 0 28 -3q35 -8 54 -29.5t22.5 -40.5t3.5 -31q0 -17 -6 -40t-25.5 -46t-47 -35t-56.5 -12q-9 0 -18 1q2 -25 8.5 -48t19 -40t31 -27t43.5 -10q59 1 109 60.5t72 179.5q2 6 9 6q5 0 8 -2t3 -5v-2q-11 -63 -33.5 -116t-56 -91.5t-76.5 -58.5t-94 -20h-5
zM196 291q25 1 43.5 13t31.5 29.5t19.5 38.5t7 31t0.5 12q0 16 -5.5 30t-18.5 19q-5 2 -10 2q-10 0 -22.5 -11.5t-23 -37t-16.5 -57t-6 -60.5v-9z" />
    <glyph glyph-name="Edotaccent" unicode="&#x116;" horiz-adv-x="757" 
d="M549 1212q30 0 45 -18.5t15 -40.5t-15 -40.5t-45 -18.5t-45.5 18.5t-15.5 40.5t15.5 40.5t45.5 18.5zM698 756q-21 -31 -55 -43t-76 -12q-37 0 -77.5 6.5t-82.5 15.5q1 -46 10.5 -87t31 -71.5t56.5 -50t87 -24.5q6 -1 6.5 -4.5t0.5 -4.5q0 -6 -7 -8q-40 -11 -81.5 -25.5
t-73.5 -34.5q-47 -29 -73.5 -73t-33 -80.5t-6.5 -60.5q0 -25 7 -62.5t31 -77t62.5 -65t89.5 -26.5h5q40 0 79 16.5t74 47t64.5 71t52.5 86.5t39 94t23 94q2 9 11 9q4 0 6.5 -2t2.5 -6v-2q-13 -88 -50 -171.5t-92 -149t-127 -105t-156 -39.5q-76 0 -128 32.5t-80 83
t-30.5 87.5t-2.5 47q0 52 18.5 108t62 108.5t111.5 82.5q20 9 41.5 15t42.5 11q-38 14 -73 38.5t-62 59t-43.5 76.5t-18.5 90q-54 11 -100 12h-5q-63 0 -107 -22.5t-70 -58t-31 -64.5t-5 -45q0 -23 8.5 -51.5t36 -52t68.5 -23.5h3q44 1 67 24t26.5 42t3.5 28q0 19 -9.5 41.5
t-33.5 30.5q-4 2 -5 5t-1 5q0 1 0.5 3.5t2.5 4.5t5 2h2q25 -6 39 -24t17 -35t3 -27q0 -14 -4.5 -34.5t-20 -42t-40.5 -36t-60 -15.5h-3q-48 0 -80 27t-43.5 62t-11.5 67q0 15 4.5 47.5t32 74t75.5 67.5t113 26h10q25 -1 53.5 -5t59.5 -10q3 61 29 107t65 76.5t85 46t88 15.5
q62 0 100.5 -29t54.5 -67t16 -76q0 -6 -1.5 -32t-22.5 -58zM408 747q42 -8 81 -14t74 -6q40 0 70.5 10t47.5 35q16 24 16 56q0 2 -0.5 20.5t-16.5 49.5t-44 50.5t-64 19.5h-10q-41 -3 -70.5 -24.5t-48 -53.5t-27 -70t-8.5 -73z" />
    <glyph glyph-name="edotaccent" unicode="&#x117;" horiz-adv-x="384" 
d="M242 651q30 0 45 -18.5t15 -40.5t-15 -40.5t-45 -18.5t-45.5 18.5t-15.5 40.5t15.5 40.5t45.5 18.5zM235 99q-67 1 -105 32t-50 69.5t-12 72.5q0 16 4.5 51t27.5 80t60 75t82 30q13 0 28 -3q35 -8 54 -29.5t22.5 -40.5t3.5 -31q0 -17 -6 -40t-25.5 -46t-47 -35t-56.5 -12
q-9 0 -18 1q2 -25 8.5 -48t19 -40t31 -27t43.5 -10q59 1 109 60.5t72 179.5q2 6 9 6q5 0 8 -2t3 -5v-2q-11 -63 -33.5 -116t-56 -91.5t-76.5 -58.5t-94 -20h-5zM196 291q25 1 43.5 13t31.5 29.5t19.5 38.5t7 31t0.5 12q0 16 -5.5 30t-18.5 19q-5 2 -10 2q-10 0 -22.5 -11.5
t-23 -37t-16.5 -57t-6 -60.5v-9z" />
    <glyph glyph-name="Eogonek" unicode="&#x118;" horiz-adv-x="757" 
d="M408 747q42 -8 81 -14t74 -6q40 0 70.5 10t47.5 35q16 24 16 56q0 2 -0.5 20.5t-16.5 49.5t-44 50.5t-64 19.5h-10q-41 -3 -70.5 -24.5t-48 -53.5t-27 -70t-8.5 -73zM698 756q-21 -31 -55 -43t-76 -12q-37 0 -77.5 6.5t-82.5 15.5q1 -46 10.5 -87t31 -71.5t56.5 -50
t87 -24.5q6 -1 6.5 -4.5t0.5 -4.5q0 -6 -7 -8q-40 -11 -81.5 -25.5t-73.5 -34.5q-47 -29 -73.5 -73t-33 -80.5t-6.5 -60.5q0 -25 7 -62.5t31 -77t62.5 -65t89.5 -26.5h5q40 0 79 16.5t74 47t64.5 71t52.5 86.5t39 94t23 94q2 9 11 9q4 0 6.5 -2t2.5 -6v-2
q-12 -75 -40.5 -145t-71.5 -129t-98 -105t-118 -71q-22 -9 -33.5 -27t-11.5 -33q0 -5 3 -18t26.5 -24.5t57.5 -11.5q16 0 34 2h2q10 0 14.5 -7t4.5 -17q0 -1 -0.5 -6.5t-7.5 -15t-21 -12.5q-15 -3 -28.5 -4t-25.5 -1q-45 0 -68.5 16t-28 33.5t-4.5 28.5q0 15 6 37t24 47
q-10 -2 -40 -2q-76 0 -128 32.5t-80 83t-30.5 87.5t-2.5 47q0 52 18.5 108t62 108.5t111.5 82.5q20 9 41.5 15t42.5 11q-38 14 -73 38.5t-62 59t-43.5 76.5t-18.5 90q-54 11 -100 12h-5q-63 0 -107 -22.5t-70 -58t-31 -64.5t-5 -45q0 -23 8.5 -51.5t36 -52t68.5 -23.5h3
q44 1 67 24t26.5 42t3.5 28q0 19 -9.5 41.5t-33.5 30.5q-4 2 -5 5t-1 5q0 1 0.5 3.5t2.5 4.5t5 2h2q25 -6 39 -24t17 -35t3 -27q0 -14 -4.5 -34.5t-20 -42t-40.5 -36t-60 -15.5h-3q-48 0 -80 27t-43.5 62t-11.5 67q0 15 4.5 47.5t32 74t75.5 67.5t113 26h10q25 -1 53.5 -5
t59.5 -10q3 61 29 107t65 76.5t85 46t88 15.5q62 0 100.5 -29t54.5 -67t16 -76q0 -6 -1.5 -32t-22.5 -58z" />
    </font>
</defs>
</svg>
